<svg width="285" height="302" viewBox="0 0 285 302" fill="none" xmlns="http://www.w3.org/2000/svg">
<path d="M202.4 158.735L204.309 159.331L204.922 157.366L202.941 156.809L202.4 158.735ZM166.1 148.535L166.641 146.609L164.745 146.077L164.183 147.964L166.1 148.535ZM40.1 115.235L42.1 115.248V115.235H40.1ZM166.1 81.6349L164.185 82.2114L164.747 84.077L166.626 83.5644L166.1 81.6349ZM202.4 71.7349L202.926 73.6644L204.927 73.1187L204.309 71.1391L202.4 71.7349ZM105.5 229.735C155.863 229.735 190.845 202.477 204.309 159.331L200.491 158.139C187.555 199.592 154.137 225.735 105.5 225.735V229.735ZM202.941 156.809L166.641 146.609L165.559 150.46L201.859 160.66L202.941 156.809ZM164.183 147.964C160.077 161.748 153.158 172.604 143.472 180.022C133.792 187.435 121.191 191.535 105.5 191.535V195.535C121.909 195.535 135.408 191.235 145.904 183.198C156.392 175.165 163.723 163.522 168.017 149.106L164.183 147.964ZM105.5 191.535C84.2728 191.535 68.4572 183.949 57.9367 170.798C47.3654 157.584 41.9518 138.513 42.1 115.248L38.1 115.222C37.9482 139.057 43.4846 159.136 54.8133 173.297C66.1928 187.521 83.2272 195.535 105.5 195.535V191.535ZM42.1 115.235C42.1 91.8087 47.5156 72.7353 58.0497 59.5587C68.5301 46.4492 84.2684 38.9348 105.5 38.9348V34.9348C83.2316 34.9348 66.2699 42.8705 54.9253 57.061C43.6344 71.1844 38.1 91.2611 38.1 115.235H42.1ZM105.5 38.9348C121.191 38.9348 133.794 43.035 143.475 50.4131C153.163 57.7956 160.081 68.5793 164.185 82.2114L168.015 81.0583C163.719 66.7904 156.387 55.2241 145.9 47.2316C135.406 39.2347 121.909 34.9348 105.5 34.9348V38.9348ZM166.626 83.5644L202.926 73.6644L201.874 69.8053L165.574 79.7053L166.626 83.5644ZM204.309 71.1391C190.845 27.9924 155.863 0.734856 105.5 0.734856V4.73486C154.137 4.73486 187.555 30.8773 200.491 72.3306L204.309 71.1391ZM105.5 0.734856C72.6034 0.734856 46.1621 12.3259 27.963 32.5599C9.78659 52.7687 4.76837e-07 81.4089 4.76837e-07 115.235H4C4 82.1609 13.5634 54.551 30.937 35.2348C48.2879 15.9438 73.5966 4.73486 105.5 4.73486V0.734856ZM4.76837e-07 115.235C4.76837e-07 149.061 9.78659 177.701 27.963 197.91C46.1621 218.144 72.6034 229.735 105.5 229.735V225.735C73.5966 225.735 48.2879 214.526 30.937 195.235C13.5634 175.919 4 148.309 4 115.235H4.76837e-07ZM346.784 86.7349L348.573 85.8404L348.568 85.8304L346.784 86.7349ZM215.684 102.035L213.767 101.466L213.208 103.351L215.083 103.942L215.684 102.035ZM248.984 112.535L248.383 114.442L250.301 115.047L250.895 113.125L248.984 112.535ZM317.384 117.335L317.656 119.316L319.498 119.064L319.38 117.208L317.384 117.335ZM246.884 130.235L246.282 128.328L246.25 128.338L246.219 128.349L246.884 130.235ZM321.284 201.335H323.284V195.439L319.697 200.118L321.284 201.335ZM321.284 223.235H319.284V225.235H321.284V223.235ZM352.784 223.235V225.235H354.784V223.235H352.784ZM313.184 171.935L311.338 171.166L311.295 171.27L311.263 171.379L313.184 171.935ZM265.184 156.935L264.582 155.028L264.527 155.045L264.472 155.066L265.184 156.935ZM317.084 146.735L319.083 146.812L319.177 144.368L316.763 144.761L317.084 146.735ZM348.568 85.8304C337.27 63.5471 313.51 54.7349 284.384 54.7349V58.7349C312.859 58.7349 334.699 67.3226 345.001 87.6393L348.568 85.8304ZM284.384 54.7349C264.873 54.7349 249.299 59.31 237.529 67.5061C225.748 75.7102 217.929 87.4385 213.767 101.466L217.602 102.604C221.54 89.3312 228.871 78.4095 239.815 70.7886C250.77 63.1597 265.496 58.7349 284.384 58.7349V54.7349ZM215.083 103.942L248.383 114.442L249.586 110.627L216.286 100.127L215.083 103.942ZM250.895 113.125C255.633 97.7969 270.154 91.7349 284.084 91.7349V87.7349C269.215 87.7349 252.536 94.2728 247.074 111.944L250.895 113.125ZM284.084 91.7349C294.975 91.7349 302.443 93.8778 307.323 97.9786C312.155 102.039 314.808 108.325 315.388 117.462L319.38 117.208C318.76 107.444 315.864 99.9309 309.896 94.9162C303.976 89.9419 295.393 87.7349 284.084 87.7349V91.7349ZM317.113 115.353C288.671 119.245 263.58 122.865 246.282 128.328L247.487 132.142C264.389 126.804 289.098 123.224 317.656 119.316L317.113 115.353ZM246.219 128.349C233.206 132.942 223.605 139.438 217.268 147.94C210.922 156.454 207.984 166.799 207.984 178.835H211.984C211.984 167.471 214.747 158.016 220.475 150.33C226.214 142.632 235.063 136.528 247.55 132.121L246.219 128.349ZM207.984 178.835C207.984 192.672 212.967 205.434 222.581 214.735C232.2 224.039 246.303 229.735 264.284 229.735V225.735C247.166 225.735 234.119 220.33 225.362 211.86C216.602 203.385 211.984 191.697 211.984 178.835H207.984ZM264.284 229.735C277.402 229.735 288.506 227.599 298.132 223.096C307.767 218.59 315.808 211.765 322.872 202.552L319.697 200.118C312.96 208.905 305.402 215.28 296.437 219.473C287.463 223.671 276.967 225.735 264.284 225.735V229.735ZM319.284 201.335V223.235H323.284V201.335H319.284ZM321.284 225.235H352.784V221.235H321.284V225.235ZM354.784 223.235V123.935H350.784V223.235H354.784ZM354.784 123.935C354.784 109.87 354.511 97.716 348.573 85.8404L344.996 87.6293C350.458 98.5537 350.784 109.799 350.784 123.935H354.784ZM311.263 171.379C308.201 181.956 295.16 196.935 271.484 196.935V200.935C297.008 200.935 311.567 184.714 315.105 172.491L311.263 171.379ZM271.484 196.935C263.255 196.935 257.234 194.842 253.306 191.552C249.414 188.292 247.384 183.7 247.384 178.235H243.384C243.384 184.769 245.854 190.528 250.738 194.618C255.585 198.678 262.613 200.935 271.484 200.935V196.935ZM247.384 178.235C247.384 173.676 248.967 170.048 251.989 166.958C255.073 163.806 259.716 161.158 265.896 158.804L264.472 155.066C258.053 157.511 252.796 160.414 249.13 164.161C245.402 167.972 243.384 172.594 243.384 178.235H247.384ZM265.787 158.842C277.014 155.296 291.538 152.92 317.406 148.709L316.763 144.761C291.031 148.95 276.155 151.373 264.582 155.028L265.787 158.842ZM315.086 146.658C314.783 154.525 314.176 164.354 311.338 171.166L315.031 172.704C318.192 165.115 318.785 154.545 319.083 146.812L315.086 146.658ZM423.636 69.6349L424.676 71.3432L424.726 71.3127L424.774 71.2792L423.636 69.6349ZM407.436 87.0349H405.436V94.6379L409.177 88.019L407.436 87.0349ZM407.436 61.2349H409.436V59.2349H407.436V61.2349ZM375.336 61.2349V59.2349H373.336V61.2349H375.336ZM375.336 223.235H373.336V225.235H375.336V223.235ZM411.636 223.235V225.235H413.636V223.235H411.636ZM432.936 98.7349L433.901 100.487L433.912 100.481L432.936 98.7349ZM466.536 94.8349L465.994 96.7602L468.536 97.4749V94.8349H466.536ZM466.536 61.2349H468.536V59.5406L466.865 59.2621L466.536 61.2349ZM422.596 67.9265C415.337 72.3447 409.72 78.9299 405.695 86.0507L409.177 88.019C412.952 81.3398 418.134 75.325 424.676 71.3432L422.596 67.9265ZM409.436 87.0349V61.2349H405.436V87.0349H409.436ZM407.436 59.2349H375.336V63.2349H407.436V59.2349ZM373.336 61.2349V223.235H377.336V61.2349H373.336ZM375.336 225.235H411.636V221.235H375.336V225.235ZM413.636 223.235V141.035H409.636V223.235H413.636ZM413.636 141.035C413.636 122.591 420.047 108.12 433.901 100.487L431.971 96.9832C416.424 105.549 409.636 121.679 409.636 141.035H413.636ZM433.912 100.481C443.608 95.0621 456.856 94.1901 465.994 96.7602L467.077 92.9095C457.015 90.0796 442.664 91.0076 431.96 96.989L433.912 100.481ZM468.536 94.8349V61.2349H464.536V94.8349H468.536ZM466.865 59.2621C452.059 56.7945 434.707 59.5374 422.498 67.9905L424.774 71.2792C435.964 63.5323 452.212 60.8752 466.207 63.2076L466.865 59.2621ZM583.801 61.2349V59.2349H581.801V61.2349H583.801ZM583.801 72.6349L582.467 74.1253L585.801 77.108V72.6349H583.801ZM579.601 214.835H581.601V210.813L578.394 213.24L579.601 214.835ZM579.601 230.435H577.601V230.448L577.601 230.461L579.601 230.435ZM510.001 248.135L511.78 247.222L510.883 245.473L509.119 246.34L510.001 248.135ZM476.401 264.635L475.519 262.84L473.582 263.791L474.678 265.65L476.401 264.635ZM613.501 253.835L615.446 254.298L615.453 254.271L615.459 254.243L613.501 253.835ZM615.601 61.2349H617.601V59.2349H615.601V61.2349ZM581.801 61.2349V72.6349H585.801V61.2349H581.801ZM585.134 71.1444C573.331 60.5832 557.841 54.7349 539.101 54.7349V58.7349C556.961 58.7349 571.471 64.2865 582.467 74.1253L585.134 71.1444ZM539.101 54.7349C515.583 54.7349 496.199 64.0529 482.722 79.7311C469.268 95.3818 461.801 117.246 461.801 142.235H465.801C465.801 118.023 473.033 97.1379 485.755 82.3386C498.453 67.5669 516.719 58.7349 539.101 58.7349V54.7349ZM461.801 142.235C461.801 166.923 469.192 188.779 482.447 204.499C495.725 220.248 514.809 229.735 537.901 229.735V225.735C515.993 225.735 498.026 216.772 485.505 201.921C472.959 187.041 465.801 166.147 465.801 142.235H461.801ZM537.901 229.735C555.078 229.735 569.317 225.126 580.808 216.43L578.394 213.24C567.685 221.344 554.323 225.735 537.901 225.735V229.735ZM577.601 214.835V230.435H581.601V214.835H577.601ZM577.601 230.461C577.744 241.501 573.965 249.6 567.654 254.975C561.293 260.392 552.129 263.235 541.201 263.235V267.235C552.772 267.235 562.959 264.227 570.248 258.02C577.586 251.77 581.757 242.469 581.601 230.409L577.601 230.461ZM541.201 263.235C528.816 263.235 517.343 258.069 511.78 247.222L508.221 249.047C514.659 261.601 527.786 267.235 541.201 267.235V263.235ZM509.119 246.34L475.519 262.84L477.282 266.43L510.882 249.93L509.119 246.34ZM474.678 265.65C487.971 288.219 513.263 301.735 540.901 301.735V297.735C514.539 297.735 490.63 284.851 478.124 263.62L474.678 265.65ZM540.901 301.735C559.44 301.735 576.101 298.091 589.138 290.315C602.224 282.51 611.567 270.591 615.446 254.298L611.555 253.372C607.934 268.579 599.278 279.61 587.089 286.88C574.851 294.179 558.961 297.735 540.901 297.735V301.735ZM615.459 254.243C616.993 246.877 617.601 239.535 617.601 231.035H613.601C613.601 239.335 613.008 246.393 611.543 253.427L615.459 254.243ZM617.601 231.035V61.2349H613.601V231.035H617.601ZM615.601 59.2349H583.801V63.2349H615.601V59.2349ZM543.301 193.335C529.84 193.335 520.179 187.792 513.81 178.769C507.377 169.657 504.201 156.835 504.201 142.235H500.201C500.201 157.334 503.474 171.063 510.542 181.076C517.673 191.178 528.562 197.335 543.301 197.335V193.335ZM504.201 142.235C504.201 127.796 507.448 114.98 514.059 105.831C520.61 96.7671 530.573 91.1349 544.501 91.1349V87.1349C529.328 87.1349 518.142 93.3526 510.817 103.488C503.554 113.539 500.201 127.274 500.201 142.235H504.201ZM544.501 91.1349C557.694 91.1349 566.876 96.2518 572.849 105C578.903 113.868 581.801 126.68 581.801 142.235H585.801C585.801 126.29 582.848 112.552 576.153 102.745C569.375 92.8179 558.907 87.1349 544.501 87.1349V91.1349ZM581.801 142.235C581.801 157.8 578.974 170.6 572.821 179.456C566.754 188.188 557.282 193.335 543.301 193.335V197.335C558.419 197.335 569.198 191.681 576.106 181.739C582.927 171.92 585.801 158.169 585.801 142.235H581.801ZM712.864 229.735C737.521 229.735 758.24 220.763 772.785 205.253C787.32 189.754 795.564 167.865 795.564 142.235H791.564C791.564 167.005 783.608 187.866 769.868 202.517C756.138 217.156 736.507 225.735 712.864 225.735V229.735ZM795.564 142.235C795.564 116.757 787.397 94.8697 772.901 79.333C758.393 63.7832 737.674 54.7349 712.864 54.7349V58.7349C736.655 58.7349 756.285 67.3865 769.977 82.0617C783.681 96.7501 791.564 117.613 791.564 142.235H795.564ZM712.864 54.7349C688.36 54.7349 667.642 63.6295 653.059 79.1005C638.484 94.5617 630.164 116.452 630.164 142.235H634.164C634.164 117.318 642.194 96.458 655.969 81.8442C669.736 67.2402 689.368 58.7349 712.864 58.7349V54.7349ZM630.164 142.235C630.164 167.708 638.253 189.596 652.712 205.135C667.185 220.688 687.907 229.735 712.864 229.735V225.735C688.921 225.735 669.293 217.082 655.641 202.41C641.975 187.724 634.164 166.862 634.164 142.235H630.164ZM712.864 191.835C699.442 191.835 689.479 187.028 682.82 178.607C676.106 170.117 672.564 157.715 672.564 142.235H668.564C668.564 158.255 672.222 171.653 679.683 181.088C687.199 190.592 698.386 195.835 712.864 195.835V191.835ZM672.564 142.235C672.564 127.181 675.817 114.773 682.39 106.175C688.899 97.6602 698.849 92.6349 712.864 92.6349V88.6349C697.779 88.6349 686.579 94.1095 679.213 103.745C671.911 113.296 668.564 126.689 668.564 142.235H672.564ZM712.864 92.6349C726.443 92.6349 736.48 97.4472 743.174 105.867C749.922 114.355 753.464 126.755 753.464 142.235H757.464C757.464 126.215 753.807 112.814 746.305 103.378C738.748 93.8725 727.485 88.6349 712.864 88.6349V92.6349ZM753.464 142.235C753.464 157.108 749.999 169.521 743.273 178.169C736.601 186.747 726.56 191.835 712.864 191.835V195.835C727.668 195.835 738.927 190.273 746.43 180.625C753.879 171.049 757.464 157.661 757.464 142.235H753.464Z" fill="#D9D9D9"/>
</svg>
