<svg width="610" height="394" viewBox="0 0 610 394" fill="none" xmlns="http://www.w3.org/2000/svg">
<path d="M269.2 210L271.109 210.596L271.722 208.631L269.741 208.075L269.2 210ZM220.8 196.4L221.341 194.475L219.445 193.942L218.883 195.829L220.8 196.4ZM52.8 152L54.8 152.013V152H52.8ZM220.8 107.2L218.885 107.777L219.447 109.642L221.326 109.13L220.8 107.2ZM269.2 94L269.726 95.9295L271.727 95.3839L271.109 93.4042L269.2 94ZM140 304C206.863 304 253.245 267.842 271.109 210.596L267.291 209.404C249.955 264.958 205.137 300 140 300V304ZM269.741 208.075L221.341 194.475L220.259 198.325L268.659 211.925L269.741 208.075ZM218.883 195.829C213.377 214.313 204.083 228.92 191.034 238.912C177.992 248.9 161.041 254.4 140 254.4V258.4C161.759 258.4 179.608 252.7 193.466 242.088C207.317 231.48 217.023 216.087 222.717 196.971L218.883 195.829ZM140 254.4C111.523 254.4 90.2322 244.214 76.0617 226.501C61.8404 208.724 54.6018 183.128 54.8 152.013L50.8 151.987C50.5982 183.672 57.9596 210.276 72.9383 228.999C87.9678 247.786 110.477 258.4 140 258.4V254.4ZM54.8 152C54.8 120.674 62.0406 95.0754 76.2122 77.3489C90.3301 59.6893 111.518 49.6 140 49.6V45.6C110.482 45.6 88.0699 56.1107 73.0878 74.8511C58.1594 93.5246 50.8 120.126 50.8 152H54.8ZM140 49.6C161.041 49.6 177.994 55.1002 191.038 65.0407C204.088 74.9858 213.381 89.4945 218.885 107.777L222.715 106.623C217.019 87.7055 207.312 72.4142 193.462 61.8593C179.606 51.2998 161.759 45.6 140 45.6V49.6ZM221.326 109.13L269.726 95.9295L268.674 92.0705L220.274 105.27L221.326 109.13ZM271.109 93.4042C253.245 36.1575 206.863 -7.62939e-06 140 -7.62939e-06V3.99999C205.137 3.99999 249.955 39.0424 267.291 94.5958L271.109 93.4042ZM140 -7.62939e-06C96.3035 -7.62939e-06 61.2371 15.391 37.113 42.2125C13.0116 69.0088 0 107.024 0 152H4C4 107.776 16.7884 70.7912 40.087 44.8875C63.3629 19.009 97.2966 3.99999 140 3.99999V-7.62939e-06ZM0 152C0 196.976 13.0116 234.991 37.113 261.787C61.2371 288.609 96.3035 304 140 304V300C97.2966 300 63.3629 284.991 40.087 259.113C16.7884 233.209 4 196.224 4 152H0ZM461.712 114L463.501 113.106L463.496 113.096L461.712 114ZM286.913 134.4L284.995 133.831L284.436 135.716L286.311 136.307L286.913 134.4ZM331.312 148.4L330.711 150.307L332.629 150.912L333.223 148.991L331.312 148.4ZM422.513 154.8L422.784 156.782L424.626 156.529L424.508 154.673L422.513 154.8ZM328.513 172L327.91 170.093L327.878 170.103L327.847 170.114L328.513 172ZM427.712 266.8H429.712V260.904L426.125 265.583L427.712 266.8ZM427.712 296H425.712V298H427.712V296ZM469.713 296V298H471.713V296H469.713ZM416.913 227.6L415.066 226.831L415.023 226.935L414.991 227.044L416.913 227.6ZM352.913 207.6L352.31 205.693L352.255 205.71L352.201 205.731L352.913 207.6ZM422.113 194L424.111 194.077L424.205 191.633L421.791 192.026L422.113 194ZM463.496 113.096C448.598 83.7123 417.238 72 378.513 72V76C416.587 76 446.027 87.4877 459.929 114.904L463.496 113.096ZM378.513 72C352.601 72 331.977 78.0751 316.42 88.9087C300.851 99.7503 290.507 115.254 284.995 133.831L288.83 134.969C294.118 117.146 303.974 102.45 318.705 92.1913C333.448 81.9249 353.224 76 378.513 76V72ZM286.311 136.307L330.711 150.307L331.914 146.493L287.514 132.493L286.311 136.307ZM333.223 148.991C339.661 128.162 359.382 120 378.112 120V116C358.443 116 336.564 124.638 329.402 147.809L333.223 148.991ZM378.112 120C392.703 120 402.846 122.868 409.526 128.481C416.158 134.054 419.736 142.64 420.517 154.927L424.508 154.673C423.689 141.76 419.867 131.946 412.099 125.419C404.379 118.932 393.122 116 378.112 116V120ZM422.241 152.818C384.299 158.011 350.908 162.83 327.91 170.093L329.115 173.907C351.717 166.77 384.726 161.989 422.784 156.782L422.241 152.818ZM327.847 170.114C310.584 176.207 297.908 184.803 289.559 196.005C281.2 207.219 277.312 220.864 277.312 236.8H281.312C281.312 221.536 285.025 208.781 292.766 198.395C300.517 187.997 312.441 179.793 329.178 173.886L327.847 170.114ZM277.312 236.8C277.312 255.087 283.895 271.924 296.572 284.188C309.253 296.455 327.881 304 351.712 304V300C328.744 300 311.172 292.745 299.353 281.312C287.53 269.876 281.312 254.113 281.312 236.8H277.312ZM351.712 304C369.13 304 383.834 301.164 396.56 295.212C409.295 289.255 419.937 280.23 429.3 268.017L426.125 265.583C417.088 277.37 406.93 285.945 394.865 291.588C382.791 297.236 368.695 300 351.712 300V304ZM425.712 266.8V296H429.712V266.8H425.712ZM427.712 298H469.713V294H427.712V298ZM471.713 296V163.6H467.713V296H471.713ZM471.713 163.6C471.713 144.835 471.339 128.781 463.501 113.106L459.924 114.894C467.286 129.619 467.713 144.765 467.713 163.6H471.713ZM414.991 227.044C410.829 241.421 393.189 261.6 361.312 261.6V265.6C395.036 265.6 414.196 244.179 418.834 228.156L414.991 227.044ZM361.312 261.6C350.233 261.6 342.037 258.782 336.647 254.267C331.293 249.782 328.513 243.465 328.513 236H324.513C324.513 244.535 327.732 252.018 334.078 257.333C340.388 262.618 349.592 265.6 361.312 265.6V261.6ZM328.513 236C328.513 229.741 330.695 224.738 334.842 220.499C339.051 216.196 345.344 212.623 353.624 209.469L352.201 205.731C343.681 208.977 336.774 212.804 331.983 217.701C327.13 222.662 324.513 228.659 324.513 236H328.513ZM353.515 209.507C368.542 204.762 387.966 201.585 422.434 195.974L421.791 192.026C387.459 197.615 367.683 200.838 352.31 205.693L353.515 209.507ZM420.114 193.923C419.711 204.39 418.904 217.619 415.066 226.831L418.759 228.369C422.921 218.381 423.714 204.41 424.111 194.077L420.114 193.923ZM601.781 168L602.287 166.065L602.28 166.063L602.274 166.062L601.781 168ZM580.581 115.6L580.717 113.605L580.685 113.602L580.653 113.601L580.581 115.6ZM621.381 146.4L619.399 146.664L619.675 148.737L621.733 148.369L621.381 146.4ZM670.581 137.6L670.933 139.569L672.818 139.232L672.564 137.334L670.581 137.6ZM568.181 203.2L567.669 205.133L567.674 205.135L568.181 203.2ZM536.981 225.6L538.934 225.166L538.527 223.337L536.676 223.623L536.981 225.6ZM487.781 233.2L487.476 231.223L485.479 231.532L485.808 233.526L487.781 233.2ZM583.381 304C611.469 304 634.159 297.334 649.871 284.919C665.642 272.458 674.181 254.358 674.181 232H670.181C670.181 253.242 662.121 270.142 647.391 281.781C632.603 293.466 610.893 300 583.381 300V304ZM674.181 232C674.181 214.774 669.435 201.583 657.827 191.021C646.353 180.581 628.356 172.883 602.287 166.065L601.275 169.935C627.207 176.717 644.409 184.219 655.135 193.979C665.727 203.617 670.181 215.626 670.181 232H674.181ZM602.274 166.062C577.007 159.645 562.55 155.396 554.393 151.22C550.352 149.151 548.065 147.2 546.756 145.194C545.468 143.221 544.981 140.976 544.981 138H540.981C540.981 141.424 541.544 144.529 543.407 147.381C545.247 150.2 548.211 152.549 552.57 154.78C561.212 159.204 576.156 163.555 601.289 169.938L602.274 166.062ZM544.981 138C544.981 131.627 548.297 126.427 554.399 122.822C560.567 119.177 569.551 117.207 580.51 117.599L580.653 113.601C569.211 113.193 559.396 115.223 552.364 119.378C545.266 123.573 540.981 129.973 540.981 138H544.981ZM580.446 117.595C591.977 118.377 601.169 121.493 607.726 126.446C614.244 131.37 618.269 138.188 619.399 146.664L623.364 146.136C622.094 136.612 617.518 128.83 610.137 123.254C602.793 117.707 592.785 114.423 580.717 113.605L580.446 117.595ZM621.733 148.369L670.933 139.569L670.229 135.631L621.029 144.431L621.733 148.369ZM672.564 137.334C667.183 97.1892 630.782 72 579.781 72V76C629.581 76 663.579 100.411 668.599 137.866L672.564 137.334ZM579.781 72C553.668 72 531.992 78.5775 516.798 90.4753C501.556 102.411 492.981 119.596 492.981 140.4H496.981C496.981 120.804 505.007 104.789 519.264 93.6247C533.57 82.4225 554.295 76 579.781 76V72ZM492.981 140.4C492.981 157.071 497.857 169.771 509.88 180.069C521.744 190.231 540.423 197.921 567.669 205.133L568.693 201.267C541.54 194.079 523.618 186.569 512.482 177.031C501.505 167.629 496.981 156.129 496.981 140.4H492.981ZM567.674 205.135C592.172 211.56 605.57 215.597 612.888 219.786C616.471 221.837 618.403 223.822 619.497 225.984C620.609 228.182 620.981 230.803 620.981 234.4H624.981C624.981 230.597 624.604 227.218 623.066 224.178C621.51 221.103 618.891 218.613 614.875 216.314C606.993 211.803 592.991 207.64 568.689 201.265L567.674 205.135ZM620.981 234.4C620.981 241.752 617.896 247.541 612.18 251.565C606.383 255.646 597.738 258 586.581 258V262C598.225 262 607.78 259.554 614.483 254.835C621.267 250.059 624.981 243.048 624.981 234.4H620.981ZM586.581 258C573.697 258 562.918 254.877 554.822 249.257C546.747 243.652 541.228 235.491 538.934 225.166L535.029 226.034C537.535 237.309 543.615 246.348 552.541 252.543C561.444 258.723 573.066 262 586.581 262V258ZM536.676 223.623L487.476 231.223L488.087 235.177L537.287 227.577L536.676 223.623ZM485.808 233.526C489.488 255.809 500.253 273.492 517.012 285.572C533.738 297.63 556.281 304 583.381 304V300C556.881 300 535.224 293.77 519.351 282.328C503.51 270.908 493.275 254.191 489.755 232.874L485.808 233.526ZM840.178 80V78H838.178V80H840.178ZM739.378 80H741.378V78H739.378V80ZM690.578 80V78H688.578V80H690.578ZM846.178 272H848.178V266.458L844.639 270.723L846.178 272ZM846.178 296H844.178V298H846.178V296ZM888.978 296V298H890.978V296H888.978ZM888.978 80H890.978V78H888.978V80ZM838.178 80V190.8H842.178V80H838.178ZM838.178 190.8C838.178 216.693 831.755 232.615 822.685 242.065C813.625 251.505 801.62 254.8 789.778 254.8V258.8C802.336 258.8 815.532 255.295 825.571 244.835C835.601 234.385 842.178 217.307 842.178 190.8H838.178ZM789.778 254.8C778.628 254.8 770.135 252.018 763.63 247.546C757.112 243.064 752.457 236.794 749.144 229.612C742.488 215.182 741.378 197.358 741.378 184H737.378C737.378 197.442 738.468 216.018 745.512 231.288C749.049 238.956 754.119 245.861 761.364 250.842C768.621 255.832 777.929 258.8 789.778 258.8V254.8ZM741.378 184V80H737.378V184H741.378ZM739.378 78H690.578V82H739.378V78ZM688.578 80V200.4H692.578V80H688.578ZM688.578 200.4C688.578 213.485 689.976 239.276 701.497 261.859C707.273 273.181 715.616 283.741 727.634 291.464C739.661 299.191 755.247 304 775.378 304V300C755.909 300 741.095 295.359 729.797 288.099C718.49 280.834 710.583 270.869 705.06 260.041C693.981 238.324 692.578 213.315 692.578 200.4H688.578ZM775.378 304C807.085 304 831.684 292.599 847.717 273.277L844.639 270.723C829.472 289.001 806.071 300 775.378 300V304ZM844.178 272V296H848.178V272H844.178ZM846.178 298H888.978V294H846.178V298ZM890.978 296V80H886.978V296H890.978ZM888.978 78H840.178V82H888.978V78ZM1093.37 114L1095.16 113.106L1095.15 113.096L1093.37 114ZM918.569 134.4L916.651 133.831L916.092 135.716L917.967 136.307L918.569 134.4ZM962.969 148.4L962.367 150.307L964.286 150.912L964.88 148.991L962.969 148.4ZM1054.17 154.8L1054.44 156.782L1056.28 156.529L1056.16 154.673L1054.17 154.8ZM960.169 172L959.566 170.093L959.535 170.103L959.503 170.114L960.169 172ZM1059.37 266.8H1061.37V260.904L1057.78 265.583L1059.37 266.8ZM1059.37 296H1057.37V298H1059.37V296ZM1101.37 296V298H1103.37V296H1101.37ZM1048.57 227.6L1046.72 226.831L1046.68 226.935L1046.65 227.044L1048.57 227.6ZM984.569 207.6L983.966 205.693L983.911 205.71L983.857 205.731L984.569 207.6ZM1053.77 194L1055.77 194.077L1055.86 191.633L1053.45 192.026L1053.77 194ZM1095.15 113.096C1080.25 83.7123 1048.89 72 1010.17 72V76C1048.24 76 1077.68 87.4877 1091.58 114.904L1095.15 113.096ZM1010.17 72C984.257 72 963.633 78.0751 948.076 88.9087C932.507 99.7503 922.163 115.254 916.651 133.831L920.486 134.969C925.774 117.146 935.63 102.45 950.362 92.1913C965.104 81.9249 984.88 76 1010.17 76V72ZM917.967 136.307L962.367 150.307L963.57 146.493L919.17 132.493L917.967 136.307ZM964.88 148.991C971.318 128.162 991.038 120 1009.77 120V116C990.099 116 968.22 124.638 961.058 147.809L964.88 148.991ZM1009.77 120C1024.36 120 1034.5 122.868 1041.18 128.481C1047.81 134.054 1051.39 142.64 1052.17 154.927L1056.16 154.673C1055.34 141.76 1051.52 131.946 1043.76 125.419C1036.04 118.932 1024.78 116 1009.77 116V120ZM1053.9 152.818C1015.96 158.011 982.564 162.83 959.566 170.093L960.771 173.907C983.373 166.77 1016.38 161.989 1054.44 156.782L1053.9 152.818ZM959.503 170.114C942.24 176.207 929.564 184.803 921.215 196.005C912.857 207.219 908.969 220.864 908.969 236.8H912.969C912.969 221.536 916.681 208.781 924.422 198.395C932.173 187.997 944.097 179.793 960.834 173.886L959.503 170.114ZM908.969 236.8C908.969 255.087 915.551 271.924 928.228 284.188C940.909 296.455 959.537 304 983.369 304V300C960.401 300 942.828 292.745 931.009 281.312C919.186 269.876 912.969 254.113 912.969 236.8H908.969ZM983.369 304C1000.79 304 1015.49 301.164 1028.22 295.212C1040.95 289.255 1051.59 280.23 1060.96 268.017L1057.78 265.583C1048.74 277.37 1038.59 285.945 1026.52 291.588C1014.45 297.236 1000.35 300 983.369 300V304ZM1057.37 266.8V296H1061.37V266.8H1057.37ZM1059.37 298H1101.37V294H1059.37V298ZM1103.37 296V163.6H1099.37V296H1103.37ZM1103.37 163.6C1103.37 144.835 1103 128.781 1095.16 113.106L1091.58 114.894C1098.94 129.619 1099.37 144.765 1099.37 163.6H1103.37ZM1046.65 227.044C1042.49 241.421 1024.84 261.6 992.969 261.6V265.6C1026.69 265.6 1045.85 244.179 1050.49 228.156L1046.65 227.044ZM992.969 261.6C981.89 261.6 973.693 258.782 968.303 254.267C962.949 249.782 960.169 243.465 960.169 236H956.169C956.169 244.535 959.389 252.018 965.734 257.333C972.044 262.618 981.248 265.6 992.969 265.6V261.6ZM960.169 236C960.169 229.741 962.351 224.738 966.498 220.499C970.707 216.196 977 212.623 985.281 209.469L983.857 205.731C975.337 208.977 968.43 212.804 963.639 217.701C958.786 222.662 956.169 228.659 956.169 236H960.169ZM985.171 209.507C1000.2 204.762 1019.62 201.585 1054.09 195.974L1053.45 192.026C1019.11 197.615 999.339 200.838 983.966 205.693L985.171 209.507ZM1051.77 193.923C1051.37 204.39 1050.56 217.619 1046.72 226.831L1050.41 228.369C1054.58 218.381 1055.37 204.41 1055.77 194.077L1051.77 193.923ZM1135.44 296H1133.44V298H1135.44V296ZM1183.44 296V298H1185.44V296H1183.44ZM1183.44 1.99999H1185.44V-7.62939e-06H1183.44V1.99999ZM1135.44 1.99999V-7.62939e-06H1133.44V1.99999H1135.44ZM1135.44 298H1183.44V294H1135.44V298ZM1185.44 296V1.99999H1181.44V296H1185.44ZM1183.44 -7.62939e-06H1135.44V3.99999H1183.44V-7.62939e-06ZM1133.44 1.99999V296H1137.44V1.99999H1133.44ZM1284.75 117.6V115.6H1282.75V117.6H1284.75ZM1348.35 117.6V119.6H1350.35V117.6H1348.35ZM1348.35 80H1350.35V78H1348.35V80ZM1284.75 80H1282.75V82H1284.75V80ZM1284.75 20H1286.75V18H1284.75V20ZM1236.75 20V18H1234.75V20H1236.75ZM1236.75 80V82H1238.75V80H1236.75ZM1197.55 80V78H1195.55V80H1197.55ZM1197.55 117.6H1195.55V119.6H1197.55V117.6ZM1236.75 117.6H1238.75V115.6H1236.75V117.6ZM1245.15 269.6L1243.38 270.539L1243.39 270.548L1243.39 270.558L1245.15 269.6ZM1348.35 296L1348.73 297.963L1350.35 297.646V296H1348.35ZM1348.35 255.6H1350.35V253.284L1348.06 253.621L1348.35 255.6ZM1289.15 244L1290.85 242.952L1290.85 242.947L1289.15 244ZM1284.75 119.6H1348.35V115.6H1284.75V119.6ZM1350.35 117.6V80H1346.35V117.6H1350.35ZM1348.35 78H1284.75V82H1348.35V78ZM1286.75 80V20H1282.75V80H1286.75ZM1284.75 18H1236.75V22H1284.75V18ZM1234.75 20V80H1238.75V20H1234.75ZM1236.75 78H1197.55V82H1236.75V78ZM1195.55 80V117.6H1199.55V80H1195.55ZM1197.55 119.6H1236.75V115.6H1197.55V119.6ZM1234.75 117.6V207.6H1238.75V117.6H1234.75ZM1234.75 207.6C1234.75 232.149 1233.09 251.188 1243.38 270.539L1246.91 268.661C1237.21 250.412 1238.75 232.651 1238.75 207.6H1234.75ZM1243.39 270.558C1252.16 286.633 1267.87 295.582 1286.59 299.458C1305.29 303.331 1327.18 302.193 1348.73 297.963L1347.96 294.037C1326.72 298.207 1305.4 299.269 1287.4 295.542C1269.42 291.818 1254.93 283.367 1246.9 268.642L1243.39 270.558ZM1350.35 296V255.6H1346.35V296H1350.35ZM1348.06 253.621C1334.49 255.616 1322.33 256.577 1312.43 255.17C1302.57 253.769 1295.23 250.067 1290.85 242.952L1287.44 245.048C1292.66 253.533 1301.32 257.631 1311.87 259.13C1322.37 260.623 1335 259.584 1348.64 257.579L1348.06 253.621ZM1290.85 242.947C1288.51 239.172 1287.44 234.073 1286.99 227.613C1286.55 221.154 1286.75 213.683 1286.75 205.2H1282.75C1282.75 213.517 1282.55 221.246 1283 227.887C1283.46 234.527 1284.58 240.428 1287.45 245.053L1290.85 242.947ZM1286.75 205.2V117.6H1282.75V205.2H1286.75ZM1512.33 80V78H1510.95L1510.46 79.2924L1512.33 80ZM1453.93 234.4L1452.07 235.129L1453.97 239.97L1455.81 235.108L1453.93 234.4ZM1393.53 80L1395.4 79.2714L1394.9 78H1393.53V80ZM1343.53 80V78H1340.56L1341.68 80.7523L1343.53 80ZM1430.73 294.8L1432.61 295.488L1432.88 294.763L1432.59 294.048L1430.73 294.8ZM1395.13 392L1393.26 391.312L1392.27 394H1395.13V392ZM1440.33 392V394H1441.71L1442.2 392.72L1440.33 392ZM1560.73 80L1562.6 80.72L1563.65 78H1560.73V80ZM1510.46 79.2924L1452.06 233.692L1455.81 235.108L1514.21 80.7076L1510.46 79.2924ZM1455.8 233.671L1395.4 79.2714L1391.67 80.7286L1452.07 235.129L1455.8 233.671ZM1393.53 78H1343.53V82H1393.53V78ZM1341.68 80.7523L1428.88 295.552L1432.59 294.048L1345.39 79.2477L1341.68 80.7523ZM1428.86 294.112L1393.26 391.312L1397.01 392.688L1432.61 295.488L1428.86 294.112ZM1395.13 394H1440.33V390H1395.13V394ZM1442.2 392.72L1562.6 80.72L1558.87 79.28L1438.47 391.28L1442.2 392.72ZM1560.73 78H1512.33V82H1560.73V78Z" fill="#D9D9D9"/>
</svg>
