<svg width="361" height="475" viewBox="0 0 361 475" fill="none" xmlns="http://www.w3.org/2000/svg">
<rect width="360.245" height="474.559" fill="#0B2C48"/>
<g clip-path="url(#clip0)">
<path d="M57.5 165H55.5V167H57.5V165ZM105.05 164.4L105.291 166.386L105.304 166.384L105.05 164.4ZM105.05 57.6L105.292 55.6147L105.291 55.6145L105.05 57.6ZM57.5 57V55H55.5V57H57.5ZM75.95 147.9H73.95V149.9H75.95V147.9ZM75.95 74.1V72.1H73.95V74.1H75.95ZM103.85 74.85L103.442 76.808L103.459 76.8116L103.477 76.8148L103.85 74.85ZM103.85 147.15L103.465 145.187L103.454 145.19L103.442 145.192L103.85 147.15ZM57.5 167H91.85V163H57.5V167ZM91.85 167C93.6313 167 100.201 167.002 105.291 166.385L104.809 162.415C99.9987 162.998 93.6688 163 91.85 163V167ZM105.304 166.384C132.455 162.911 146.8 139.054 146.8 111H142.8C142.8 137.846 129.245 159.289 104.796 162.416L105.304 166.384ZM146.8 111C146.8 82.9575 132.462 58.932 105.292 55.6147L104.808 59.5853C129.238 62.568 142.8 84.1425 142.8 111H146.8ZM105.291 55.6145C100.201 54.9976 93.6313 55 91.85 55V59C93.6688 59 99.9987 59.0024 104.809 59.5855L105.291 55.6145ZM91.85 55H57.5V59H91.85V55ZM55.5 57V165H59.5V57H55.5ZM77.95 147.9V74.1H73.95V147.9H77.95ZM75.95 76.1H91.85V72.1H75.95V76.1ZM91.85 76.1C94.9189 76.1 100.087 76.1091 103.442 76.808L104.258 72.892C100.413 72.0909 94.7811 72.1 91.85 72.1V76.1ZM103.477 76.8148C110.291 78.1096 115.31 82.3161 118.676 88.3829C122.067 94.4931 123.75 102.459 123.75 111H127.75C127.75 101.991 125.983 93.3069 122.174 86.4421C118.34 79.5339 112.409 74.4404 104.223 72.8852L103.477 76.8148ZM123.75 111C123.75 119.245 122.14 127.179 118.781 133.35C115.445 139.477 110.422 143.823 103.465 145.187L104.235 149.113C112.578 147.477 118.505 142.223 122.294 135.263C126.06 128.346 127.75 119.705 127.75 111H123.75ZM103.442 145.192C100.087 145.891 95.0673 145.9 91.85 145.9V149.9C94.9327 149.9 100.413 149.909 104.258 149.108L103.442 145.192ZM91.85 145.9H75.95V149.9H91.85V145.9ZM171.529 129.6V127.6H169.317L169.539 129.801L171.529 129.6ZM230.029 129.6V131.6H231.891L232.024 129.743L230.029 129.6ZM229.129 144.15L230.974 144.922L231.83 142.877L229.708 142.236L229.129 144.15ZM211.279 138.75L211.858 136.836L210.191 136.331L209.462 137.914L211.279 138.75ZM211.729 115.8V117.8H214.008L213.712 115.54L211.729 115.8ZM171.979 115.8L170.009 115.455L169.599 117.8H171.979V115.8ZM171.529 131.6H230.029V127.6H171.529V131.6ZM232.024 129.743C233.099 114.777 229.893 102.274 222.957 93.4686C215.985 84.6195 205.434 79.75 192.379 79.75V83.75C204.374 83.75 213.698 88.1805 219.815 95.9439C225.965 103.751 229.06 115.173 228.034 129.457L232.024 129.743ZM192.379 79.75C179.956 79.75 169.321 84.2156 161.8 92.2522C154.289 100.279 150.029 111.709 150.029 125.4H154.029C154.029 112.541 158.019 102.146 164.721 94.9853C171.413 87.8344 180.952 83.75 192.379 83.75V79.75ZM150.029 125.4C150.029 138.164 154.395 149.149 162.059 156.951C169.725 164.757 180.569 169.25 193.279 169.25V165.25C181.54 165.25 171.758 161.118 164.912 154.149C158.063 147.176 154.029 137.236 154.029 125.4H150.029ZM193.279 169.25C209.76 169.25 224.485 160.433 230.974 144.922L227.284 143.378C221.474 157.267 208.299 165.25 193.279 165.25V169.25ZM229.708 142.236L211.858 136.836L210.7 140.664L228.55 146.064L229.708 142.236ZM209.462 137.914C206.366 144.646 200.515 148.3 192.379 148.3V152.3C201.943 152.3 209.293 147.854 213.096 139.586L209.462 137.914ZM192.379 148.3C186.644 148.3 182.319 146.599 179.262 143.542C176.179 140.459 174.164 135.774 173.519 129.399L169.539 129.801C170.245 136.776 172.505 142.441 176.434 146.37C180.39 150.326 185.814 152.3 192.379 152.3V148.3ZM193.129 99.5C198.334 99.5 202.001 100.828 204.572 103.352C207.182 105.914 208.951 109.987 209.746 116.06L213.712 115.54C212.858 109.013 210.876 103.936 207.374 100.498C203.833 97.0218 199.024 95.5 193.129 95.5V99.5ZM211.729 113.8H171.979V117.8H211.729V113.8ZM173.949 116.145C174.947 110.442 177.041 106.34 180.104 103.654C183.155 100.978 187.404 99.5 193.129 99.5V95.5C186.705 95.5 181.429 97.1719 177.467 100.646C173.517 104.11 171.111 109.158 170.009 115.455L173.949 116.145ZM279.014 117L279.52 115.065L279.513 115.063L279.506 115.062L279.014 117ZM271.064 97.35L271.199 95.3546L271.167 95.3524L271.135 95.3513L271.064 97.35ZM286.364 108.9L284.381 109.164L284.658 111.237L286.716 110.869L286.364 108.9ZM304.814 105.6L305.166 107.569L307.05 107.232L306.796 105.334L304.814 105.6ZM266.414 130.2L265.902 132.133L265.906 132.135L266.414 130.2ZM254.714 138.6L256.666 138.166L256.26 136.337L254.408 136.623L254.714 138.6ZM236.264 141.45L235.958 139.473L233.961 139.782L234.29 141.776L236.264 141.45ZM272.114 169.25C282.827 169.25 291.642 166.709 297.822 161.825C304.062 156.895 307.414 149.733 307.414 141H303.414C303.414 148.617 300.541 154.58 295.342 158.687C290.086 162.841 282.25 165.25 272.114 165.25V169.25ZM307.414 141C307.414 134.274 305.543 128.958 300.872 124.708C296.336 120.581 289.338 117.633 279.52 115.065L278.508 118.935C288.189 121.467 294.392 124.219 298.18 127.667C301.835 130.992 303.414 135.126 303.414 141H307.414ZM279.506 115.062C269.989 112.645 264.72 111.083 261.813 109.595C260.396 108.87 259.751 108.263 259.426 107.764C259.122 107.3 258.964 106.726 258.964 105.75H254.964C254.964 107.174 255.199 108.607 256.076 109.951C256.933 111.262 258.256 112.268 259.99 113.155C263.382 114.892 269.138 116.555 278.521 118.938L279.506 115.062ZM258.964 105.75C258.964 103.877 259.904 102.302 261.881 101.134C263.924 99.9272 267.034 99.2073 270.992 99.3487L271.135 95.3513C266.694 95.1926 262.753 95.9728 259.846 97.6906C256.873 99.4476 254.964 102.223 254.964 105.75H258.964ZM270.928 99.3454C275.085 99.6272 278.277 100.743 280.489 102.415C282.664 104.057 284.001 106.313 284.381 109.164L288.346 108.636C287.826 104.737 285.938 101.518 282.9 99.2229C279.9 96.9567 275.892 95.6728 271.199 95.3546L270.928 99.3454ZM286.716 110.869L305.166 107.569L304.462 103.631L286.012 106.931L286.716 110.869ZM306.796 105.334C304.666 89.4392 290.264 79.75 270.764 79.75V83.75C289.063 83.75 301.062 92.6608 302.831 105.866L306.796 105.334ZM270.764 79.75C260.775 79.75 252.35 82.265 246.374 86.9441C240.351 91.6609 236.964 98.4707 236.964 106.65H240.964C240.964 99.6793 243.802 94.0391 248.84 90.0934C253.928 86.11 261.402 83.75 270.764 83.75V79.75ZM236.964 106.65C236.964 113.196 238.902 118.334 243.738 122.475C248.414 126.481 255.655 129.421 265.902 132.133L266.925 128.267C256.772 125.579 250.288 122.819 246.34 119.437C242.55 116.191 240.964 112.254 240.964 106.65H236.964ZM265.906 132.135C275.154 134.56 279.99 136.035 282.558 137.505C283.766 138.196 284.276 138.783 284.542 139.308C284.825 139.869 284.964 140.616 284.964 141.9H288.964C288.964 140.409 288.821 138.906 288.111 137.503C287.383 136.064 286.186 134.973 284.545 134.033C281.412 132.24 275.973 130.64 266.921 128.265L265.906 132.135ZM284.964 141.9C284.964 144.252 284.003 146.041 282.194 147.315C280.303 148.646 277.345 149.5 273.314 149.5V153.5C277.832 153.5 281.7 152.554 284.496 150.585C287.374 148.559 288.964 145.548 288.964 141.9H284.964ZM273.314 149.5C268.679 149.5 264.901 148.377 262.117 146.445C259.355 144.527 257.46 141.741 256.666 138.166L252.761 139.034C253.767 143.559 256.223 147.223 259.836 149.73C263.427 152.223 268.048 153.5 273.314 153.5V149.5ZM254.408 136.623L235.958 139.473L236.569 143.427L255.019 140.577L254.408 136.623ZM234.29 141.776C235.72 150.434 239.923 157.367 246.494 162.104C253.033 166.817 261.764 169.25 272.114 169.25V165.25C262.364 165.25 254.519 162.958 248.833 158.859C243.18 154.783 239.507 148.816 238.237 141.124L234.29 141.776ZM317.562 71.4H315.562V73.4H317.562V71.4ZM335.562 71.4V73.4H337.562V71.4H335.562ZM335.562 54.9H337.562V52.9H335.562V54.9ZM317.562 54.9V52.9H315.562V54.9H317.562ZM317.562 165H315.562V167H317.562V165ZM335.562 165V167H337.562V165H335.562ZM335.562 84H337.562V82H335.562V84ZM317.562 84V82H315.562V84H317.562ZM317.562 73.4H335.562V69.4H317.562V73.4ZM337.562 71.4V54.9H333.562V71.4H337.562ZM335.562 52.9H317.562V56.9H335.562V52.9ZM315.562 54.9V71.4H319.562V54.9H315.562ZM317.562 167H335.562V163H317.562V167ZM337.562 165V84H333.562V165H337.562ZM335.562 82H317.562V86H335.562V82ZM315.562 84V165H319.562V84H315.562ZM407.604 84V82H405.604V84H407.604ZM407.604 89.7L406.27 91.1905L409.604 94.1732V89.7H407.604ZM405.504 160.8H407.504V156.778L404.297 159.205L405.504 160.8ZM405.504 168.6H403.504V168.613L403.504 168.626L405.504 168.6ZM370.704 177.45L372.483 176.537L371.586 174.788L369.822 175.655L370.704 177.45ZM353.904 185.7L353.022 183.905L351.085 184.856L352.18 186.715L353.904 185.7ZM422.454 180.3L424.399 180.763L424.406 180.736L424.411 180.708L422.454 180.3ZM423.504 84H425.504V82H423.504V84ZM405.604 84V89.7H409.604V84H405.604ZM408.937 88.2095C402.833 82.7483 394.844 79.75 385.254 79.75V83.75C393.963 83.75 400.974 86.4517 406.27 91.1905L408.937 88.2095ZM385.254 79.75C373.211 79.75 363.239 84.5305 356.306 92.5963C349.396 100.634 345.604 111.812 345.604 124.5H349.604C349.604 112.588 353.161 102.391 359.339 95.2037C365.493 88.0445 374.346 83.75 385.254 83.75V79.75ZM345.604 124.5C345.604 137.038 349.358 148.207 356.162 156.277C362.99 164.376 372.812 169.25 384.654 169.25V165.25C373.995 165.25 365.292 160.899 359.22 153.698C353.124 146.468 349.604 136.262 349.604 124.5H345.604ZM384.654 169.25C393.431 169.25 400.769 166.891 406.71 162.395L404.297 159.205C399.138 163.109 392.676 165.25 384.654 165.25V169.25ZM403.504 160.8V168.6H407.504V160.8H403.504ZM403.504 168.626C403.572 173.891 401.78 177.64 398.882 180.109C395.933 182.62 391.607 184 386.304 184V188C392.25 188 397.599 186.455 401.475 183.154C405.402 179.81 407.585 174.859 407.503 168.574L403.504 168.626ZM386.304 184C380.369 184 375.045 181.534 372.483 176.537L368.924 178.363C372.362 185.066 379.338 188 386.304 188V184ZM369.822 175.655L353.022 183.905L354.785 187.495L371.585 179.245L369.822 175.655ZM352.18 186.715C359.024 198.334 372.016 205.25 386.154 205.25V201.25C373.291 201.25 361.683 194.966 355.627 184.685L352.18 186.715ZM386.154 205.25C395.543 205.25 404.066 203.406 410.784 199.399C417.552 195.363 422.395 189.181 424.399 180.763L420.508 179.837C418.762 187.169 414.605 192.462 408.735 195.964C402.816 199.494 395.064 201.25 386.154 201.25V205.25ZM424.411 180.708C425.196 176.942 425.504 173.2 425.504 168.9H421.504C421.504 173 421.211 176.458 420.496 179.892L424.411 180.708ZM425.504 168.9V84H421.504V168.9H425.504ZM423.504 82H407.604V86H423.504V82ZM387.354 149.05C380.942 149.05 376.419 146.432 373.425 142.19C370.368 137.859 368.804 131.675 368.804 124.5H364.804C364.804 132.175 366.464 139.266 370.157 144.497C373.913 149.818 379.665 153.05 387.354 153.05V149.05ZM368.804 124.5C368.804 117.411 370.4 111.233 373.543 106.884C376.625 102.62 381.301 99.95 387.954 99.95V95.95C380.056 95.95 374.157 99.2052 370.301 104.541C366.507 109.792 364.804 116.889 364.804 124.5H368.804ZM387.954 99.95C394.247 99.95 398.517 102.367 401.302 106.446C404.168 110.645 405.604 116.82 405.604 124.5H409.604C409.604 116.43 408.114 109.33 404.605 104.191C401.016 98.9331 395.46 95.95 387.954 95.95V99.95ZM405.604 124.5C405.604 132.191 404.202 138.352 401.292 142.54C398.469 146.603 394.06 149.05 387.354 149.05V153.05C395.197 153.05 400.913 150.097 404.577 144.822C408.155 139.673 409.604 132.559 409.604 124.5H405.604ZM454.585 93H452.585V98.5422L456.124 94.2771L454.585 93ZM454.585 84H456.585V82H454.585V84ZM438.385 84V82H436.385V84H438.385ZM438.385 165H436.385V167H438.385V165ZM456.685 165V167H458.685V165H456.685ZM494.635 165H492.635V167H494.635V165ZM512.935 165V167H514.935V165H512.935ZM480.985 79.75C468.769 79.75 459.324 84.1576 453.046 91.7229L456.124 94.2771C461.547 87.7424 469.801 83.75 480.985 83.75V79.75ZM456.585 93V84H452.585V93H456.585ZM454.585 82H438.385V86H454.585V82ZM436.385 84V165H440.385V84H436.385ZM438.385 167H456.685V163H438.385V167ZM458.685 165V123.3H454.685V165H458.685ZM458.685 123.3C458.685 113.781 461.046 108.215 464.14 105.023C467.226 101.84 471.354 100.7 475.585 100.7V96.7C470.666 96.7 465.344 98.0349 461.268 102.239C457.2 106.435 454.685 113.169 454.685 123.3H458.685ZM475.585 100.7C479.589 100.7 482.55 101.687 484.775 103.205C487.013 104.731 488.642 106.885 489.821 109.424C492.213 114.57 492.635 121.017 492.635 126H496.635C496.635 120.933 496.233 113.73 493.449 107.738C492.041 104.709 489.995 101.923 487.029 99.9C484.052 97.8695 480.281 96.7 475.585 96.7V100.7ZM492.635 126V165H496.635V126H492.635ZM494.635 167H512.935V163H494.635V167ZM514.935 165V119.7H510.935V165H514.935ZM514.935 119.7C514.935 114.813 514.412 104.933 509.933 96.2113C507.677 91.8195 504.397 87.6794 499.647 84.6443C494.89 81.6045 488.777 79.75 480.985 79.75V83.75C488.118 83.75 493.462 85.4392 497.493 88.015C501.532 90.5956 504.374 94.143 506.375 98.0387C510.408 105.892 510.935 114.987 510.935 119.7H514.935Z" fill="#00E09E"/>
</g>
<defs>
<clipPath id="clip0">
<rect width="308" height="150" fill="white" transform="translate(47 36)"/>
</clipPath>
</defs>
</svg>
