<svg width="366" height="475" viewBox="0 0 366 475" fill="none" xmlns="http://www.w3.org/2000/svg">
<rect x="0.692383" width="365.165" height="474.559" fill="#0B2C48"/>
<g clip-path="url(#clip0)">
<path d="M69.5 165H67.5V167H69.5V165ZM117.05 164.4L117.291 166.386L117.304 166.384L117.05 164.4ZM117.05 57.6L117.292 55.6147L117.291 55.6145L117.05 57.6ZM69.5 57V55H67.5V57H69.5ZM87.95 147.9H85.95V149.9H87.95V147.9ZM87.95 74.1V72.1H85.95V74.1H87.95ZM115.85 74.85L115.442 76.808L115.459 76.8116L115.477 76.8148L115.85 74.85ZM115.85 147.15L115.465 145.187L115.454 145.19L115.442 145.192L115.85 147.15ZM69.5 167H103.85V163H69.5V167ZM103.85 167C105.631 167 112.201 167.002 117.291 166.385L116.809 162.415C111.999 162.998 105.669 163 103.85 163V167ZM117.304 166.384C144.455 162.911 158.8 139.054 158.8 111H154.8C154.8 137.846 141.245 159.289 116.796 162.416L117.304 166.384ZM158.8 111C158.8 82.9575 144.462 58.932 117.292 55.6147L116.808 59.5853C141.238 62.568 154.8 84.1425 154.8 111H158.8ZM117.291 55.6145C112.201 54.9976 105.631 55 103.85 55V59C105.669 59 111.999 59.0024 116.809 59.5855L117.291 55.6145ZM103.85 55H69.5V59H103.85V55ZM67.5 57V165H71.5V57H67.5ZM89.95 147.9V74.1H85.95V147.9H89.95ZM87.95 76.1H103.85V72.1H87.95V76.1ZM103.85 76.1C106.919 76.1 112.087 76.1091 115.442 76.808L116.258 72.892C112.413 72.0909 106.781 72.1 103.85 72.1V76.1ZM115.477 76.8148C122.291 78.1096 127.31 82.3161 130.676 88.3829C134.067 94.4931 135.75 102.459 135.75 111H139.75C139.75 101.991 137.983 93.3069 134.174 86.4421C130.34 79.5339 124.409 74.4404 116.223 72.8852L115.477 76.8148ZM135.75 111C135.75 119.245 134.14 127.179 130.781 133.35C127.445 139.477 122.422 143.823 115.465 145.187L116.235 149.113C124.578 147.477 130.505 142.223 134.294 135.263C138.06 128.346 139.75 119.705 139.75 111H135.75ZM115.442 145.192C112.087 145.891 107.067 145.9 103.85 145.9V149.9C106.933 149.9 112.413 149.909 116.258 149.108L115.442 145.192ZM103.85 145.9H87.95V149.9H103.85V145.9ZM183.529 129.6V127.6H181.317L181.539 129.801L183.529 129.6ZM242.029 129.6V131.6H243.891L244.024 129.743L242.029 129.6ZM241.129 144.15L242.974 144.922L243.83 142.877L241.708 142.236L241.129 144.15ZM223.279 138.75L223.858 136.836L222.191 136.331L221.462 137.914L223.279 138.75ZM223.729 115.8V117.8H226.008L225.712 115.54L223.729 115.8ZM183.979 115.8L182.009 115.455L181.599 117.8H183.979V115.8ZM183.529 131.6H242.029V127.6H183.529V131.6ZM244.024 129.743C245.099 114.777 241.893 102.274 234.957 93.4686C227.985 84.6195 217.434 79.75 204.379 79.75V83.75C216.374 83.75 225.698 88.1805 231.815 95.9439C237.965 103.751 241.06 115.173 240.034 129.457L244.024 129.743ZM204.379 79.75C191.956 79.75 181.321 84.2156 173.8 92.2522C166.289 100.279 162.029 111.709 162.029 125.4H166.029C166.029 112.541 170.019 102.146 176.721 94.9853C183.413 87.8344 192.952 83.75 204.379 83.75V79.75ZM162.029 125.4C162.029 138.164 166.395 149.149 174.059 156.951C181.725 164.757 192.569 169.25 205.279 169.25V165.25C193.54 165.25 183.758 161.118 176.912 154.149C170.063 147.176 166.029 137.236 166.029 125.4H162.029ZM205.279 169.25C221.76 169.25 236.485 160.433 242.974 144.922L239.284 143.378C233.474 157.267 220.299 165.25 205.279 165.25V169.25ZM241.708 142.236L223.858 136.836L222.7 140.664L240.55 146.064L241.708 142.236ZM221.462 137.914C218.366 144.646 212.515 148.3 204.379 148.3V152.3C213.943 152.3 221.293 147.854 225.096 139.586L221.462 137.914ZM204.379 148.3C198.644 148.3 194.319 146.599 191.262 143.542C188.179 140.459 186.164 135.774 185.519 129.399L181.539 129.801C182.245 136.776 184.505 142.441 188.434 146.37C192.39 150.326 197.814 152.3 204.379 152.3V148.3ZM205.129 99.5C210.334 99.5 214.001 100.828 216.572 103.352C219.182 105.914 220.951 109.987 221.746 116.06L225.712 115.54C224.858 109.013 222.876 103.936 219.374 100.498C215.833 97.0218 211.024 95.5 205.129 95.5V99.5ZM223.729 113.8H183.979V117.8H223.729V113.8ZM185.949 116.145C186.947 110.442 189.041 106.34 192.104 103.654C195.155 100.978 199.404 99.5 205.129 99.5V95.5C198.705 95.5 193.429 97.1719 189.467 100.646C185.517 104.11 183.111 109.158 182.009 115.455L185.949 116.145ZM271.734 165L269.854 165.682L270.332 167H271.734V165ZM289.884 165V167H291.286L291.764 165.682L289.884 165ZM319.284 84L321.164 84.6824L322.138 82H319.284V84ZM301.134 84V82H299.709L299.243 83.3473L301.134 84ZM280.884 142.65L278.995 143.307L280.891 148.758L282.774 143.303L280.884 142.65ZM260.484 84L262.373 83.343L261.906 82H260.484V84ZM242.334 84V82H239.48L240.454 84.6824L242.334 84ZM271.734 167H289.884V163H271.734V167ZM291.764 165.682L321.164 84.6824L317.404 83.3176L288.004 164.318L291.764 165.682ZM319.284 82H301.134V86H319.284V82ZM299.243 83.3473L278.993 141.997L282.774 143.303L303.024 84.6527L299.243 83.3473ZM282.773 141.993L262.373 83.343L258.595 84.657L278.995 143.307L282.773 141.993ZM260.484 82H242.334V86H260.484V82ZM240.454 84.6824L269.854 165.682L273.614 164.318L244.214 83.3176L240.454 84.6824ZM338.814 129.6V127.6H336.602L336.825 129.801L338.814 129.6ZM397.314 129.6V131.6H399.176L399.309 129.743L397.314 129.6ZM396.414 144.15L398.259 144.922L399.115 142.877L396.994 142.236L396.414 144.15ZM378.564 138.75L379.144 136.836L377.476 136.331L376.747 137.914L378.564 138.75ZM379.014 115.8V117.8H381.293L380.998 115.54L379.014 115.8ZM339.264 115.8L337.294 115.455L336.884 117.8H339.264V115.8ZM338.814 131.6H397.314V127.6H338.814V131.6ZM399.309 129.743C400.384 114.777 397.178 102.274 390.242 93.4686C383.27 84.6195 372.719 79.75 359.664 79.75V83.75C371.659 83.75 380.984 88.1805 387.1 95.9439C393.25 103.751 396.345 115.173 395.32 129.457L399.309 129.743ZM359.664 79.75C347.241 79.75 336.606 84.2156 329.085 92.2522C321.574 100.279 317.314 111.709 317.314 125.4H321.314C321.314 112.541 325.305 102.146 332.006 94.9853C338.698 87.8344 348.237 83.75 359.664 83.75V79.75ZM317.314 125.4C317.314 138.164 321.68 149.149 329.344 156.951C337.011 164.757 347.854 169.25 360.564 169.25V165.25C348.825 165.25 339.043 161.118 332.198 154.149C325.349 147.176 321.314 137.236 321.314 125.4H317.314ZM360.564 169.25C377.045 169.25 391.77 160.433 398.259 144.922L394.569 143.378C388.759 157.267 375.584 165.25 360.564 165.25V169.25ZM396.994 142.236L379.144 136.836L377.985 140.664L395.835 146.064L396.994 142.236ZM376.747 137.914C373.651 144.646 367.8 148.3 359.664 148.3V152.3C369.229 152.3 376.578 147.854 380.381 139.586L376.747 137.914ZM359.664 148.3C353.929 148.3 349.604 146.599 346.547 143.542C343.464 140.459 341.449 135.774 340.804 129.399L336.825 129.801C337.53 136.776 339.79 142.441 343.719 146.37C347.675 150.326 353.1 152.3 359.664 152.3V148.3ZM360.414 99.5C365.62 99.5 369.286 100.828 371.857 103.352C374.467 105.914 376.236 109.987 377.031 116.06L380.998 115.54C380.143 109.013 378.161 103.936 374.659 100.498C371.118 97.0218 366.309 95.5 360.414 95.5V99.5ZM379.014 113.8H339.264V117.8H379.014V113.8ZM341.235 116.145C342.232 110.442 344.326 106.34 347.389 103.654C350.44 100.978 354.689 99.5 360.414 99.5V95.5C353.99 95.5 348.714 97.1719 344.752 100.646C340.803 104.11 338.396 109.158 337.294 115.455L341.235 116.145ZM409.549 165H407.549V167H409.549V165ZM427.549 165V167H429.549V165H427.549ZM427.549 54.75H429.549V52.75H427.549V54.75ZM409.549 54.75V52.75H407.549V54.75H409.549ZM409.549 167H427.549V163H409.549V167ZM429.549 165V54.75H425.549V165H429.549ZM427.549 52.75H409.549V56.75H427.549V52.75ZM407.549 54.75V165H411.549V54.75H407.549ZM479.94 169.25C492.522 169.25 503.153 164.666 510.63 156.693C518.096 148.732 522.29 137.53 522.29 124.5H518.29C518.29 136.67 514.383 146.843 507.712 153.957C501.052 161.059 491.508 165.25 479.94 165.25V169.25ZM522.29 124.5C522.29 111.547 518.135 100.347 510.69 92.3669C503.232 84.3734 492.599 79.75 479.94 79.75V83.75C491.58 83.75 501.123 87.9766 507.765 95.0956C514.419 102.228 518.29 112.403 518.29 124.5H522.29ZM479.94 79.75C467.435 79.75 456.806 84.2946 449.31 92.2469C441.823 100.189 437.59 111.392 437.59 124.5H441.59C441.59 112.258 445.532 102.086 452.22 94.9906C458.899 87.9054 468.444 83.75 479.94 83.75V79.75ZM437.59 124.5C437.59 137.448 441.704 148.648 449.132 156.631C456.573 164.628 467.208 169.25 479.94 169.25V165.25C468.222 165.25 458.681 161.022 452.06 153.906C445.426 146.777 441.59 136.602 441.59 124.5H437.59ZM479.94 148.3C473.493 148.3 468.818 146.005 465.702 142.066C462.532 138.057 460.79 132.105 460.79 124.5H456.79C456.79 132.645 458.647 139.593 462.565 144.547C466.537 149.57 472.437 152.3 479.94 152.3V148.3ZM460.79 124.5C460.79 117.096 462.393 111.138 465.497 107.077C468.538 103.1 473.2 100.7 479.94 100.7V96.7C472.129 96.7 466.217 99.5496 462.32 104.648C458.487 109.661 456.79 116.604 456.79 124.5H460.79ZM479.94 100.7C486.469 100.7 491.181 103 494.312 106.938C497.497 110.945 499.24 116.895 499.24 124.5H503.24C503.24 116.355 501.382 109.405 497.443 104.449C493.449 99.4252 487.511 96.7 479.94 96.7V100.7ZM499.24 124.5C499.24 131.799 497.538 137.761 494.355 141.853C491.227 145.875 486.511 148.3 479.94 148.3V152.3C487.619 152.3 493.552 149.4 497.512 144.309C501.417 139.289 503.24 132.351 503.24 124.5H499.24ZM546.714 89.7H544.714V94.1732L548.048 91.1905L546.714 89.7ZM546.714 84H548.714V82H546.714V84ZM530.664 84V82H528.664V84H530.664ZM530.664 201H528.664V203H530.664V201ZM548.814 201V203H550.814V201H548.814ZM548.814 160.8L549.993 159.184L546.814 156.865V160.8H548.814ZM569.064 79.75C559.474 79.75 551.485 82.7483 545.381 88.2095L548.048 91.1905C553.344 86.4517 560.355 83.75 569.064 83.75V79.75ZM548.714 89.7V84H544.714V89.7H548.714ZM546.714 82H530.664V86H546.714V82ZM528.664 84V201H532.664V84H528.664ZM530.664 203H548.814V199H530.664V203ZM550.814 201V160.8H546.814V201H550.814ZM547.636 162.416C553.542 166.726 560.859 169.25 569.664 169.25V165.25C561.67 165.25 555.187 162.974 549.993 159.184L547.636 162.416ZM569.664 169.25C581.506 169.25 591.328 164.376 598.156 156.277C604.96 148.207 608.714 137.038 608.714 124.5H604.714C604.714 136.262 601.194 146.468 595.098 153.698C589.026 160.899 580.323 165.25 569.664 165.25V169.25ZM608.714 124.5C608.714 111.812 604.922 100.634 598.012 92.5963C591.079 84.5305 581.107 79.75 569.064 79.75V83.75C579.972 83.75 588.825 88.0445 594.979 95.2037C601.157 102.391 604.714 112.588 604.714 124.5H608.714ZM566.964 149.05C560.258 149.05 555.849 146.603 553.026 142.54C550.116 138.352 548.714 132.191 548.714 124.5H544.714C544.714 132.559 546.163 139.673 549.741 144.822C553.405 150.097 559.121 153.05 566.964 153.05V149.05ZM548.714 124.5C548.714 116.82 550.15 110.645 553.016 106.446C555.801 102.367 560.071 99.95 566.364 99.95V95.95C558.858 95.95 553.302 98.9331 549.713 104.191C546.204 109.33 544.714 116.43 544.714 124.5H548.714ZM566.364 99.95C573.019 99.95 577.736 102.622 580.856 106.892C584.034 111.243 585.664 117.42 585.664 124.5H589.664C589.664 116.88 587.92 109.782 584.086 104.533C580.192 99.203 574.26 95.95 566.364 95.95V99.95ZM585.664 124.5C585.664 131.667 584.066 137.849 580.974 142.182C577.943 146.429 573.378 149.05 566.964 149.05V153.05C574.651 153.05 580.436 149.821 584.23 144.506C587.963 139.276 589.664 132.183 589.664 124.5H585.664ZM680.246 94.8L678.499 95.7741L680.151 98.7362L681.944 95.8571L680.246 94.8ZM633.146 92.7H631.146V98.427L634.711 93.945L633.146 92.7ZM633.146 84H635.146V82H633.146V84ZM617.096 84V82H615.096V84H617.096ZM617.096 165H615.096V167H617.096V165ZM635.246 165V167H637.246V165H635.246ZM665.996 115.95L667.996 115.956V115.95H665.996ZM665.846 165L663.846 164.994L663.84 167H665.846V165ZM683.996 165V167H685.996V165H683.996ZM714.596 165H712.596V167H714.596V165ZM732.596 165V167H734.596V165H732.596ZM704.846 80.05C693.741 80.05 683.907 85.1372 678.548 93.7429L681.944 95.8571C686.486 88.5628 694.951 84.05 704.846 84.05V80.05ZM681.993 93.8259C677.258 85.3365 668.605 80.05 656.546 80.05V84.05C667.287 84.05 674.534 88.6635 678.499 95.7741L681.993 93.8259ZM656.546 80.05C646.236 80.05 637.24 84.3406 631.581 91.4549L634.711 93.945C639.552 87.8594 647.356 84.05 656.546 84.05V80.05ZM635.146 92.7V84H631.146V92.7H635.146ZM633.146 82H617.096V86H633.146V82ZM615.096 84V165H619.096V84H615.096ZM617.096 167H635.246V163H617.096V167ZM637.246 165V115.2H633.246V165H637.246ZM637.246 115.2C637.246 110.497 638.66 106.726 640.956 104.158C643.234 101.609 646.504 100.1 650.546 100.1V96.1C645.438 96.1 641.058 98.0412 637.974 101.492C634.907 104.924 633.246 109.703 633.246 115.2H637.246ZM650.546 100.1C654.765 100.1 658.051 101.589 660.307 104.177C662.591 106.796 663.996 110.746 663.996 115.95H667.996C667.996 110.054 666.401 105.079 663.322 101.548C660.216 97.9861 655.777 96.1 650.546 96.1V100.1ZM663.996 115.944L663.846 164.994L667.846 165.006L667.996 115.956L663.996 115.944ZM665.846 167H683.996V163H665.846V167ZM685.996 165V115.2H681.996V165H685.996ZM685.996 115.2C685.996 110.21 687.514 106.456 689.844 103.967C692.168 101.484 695.445 100.1 699.296 100.1V96.1C694.447 96.1 690.075 97.8664 686.923 101.233C683.778 104.594 681.996 109.39 681.996 115.2H685.996ZM699.296 100.1C703.445 100.1 706.694 101.555 708.93 104.106C711.192 106.686 712.596 110.596 712.596 115.8H716.596C716.596 109.904 715.001 104.964 711.938 101.469C708.849 97.9451 704.447 96.1 699.296 96.1V100.1ZM712.596 115.8V165H716.596V115.8H712.596ZM714.596 167H732.596V163H714.596V167ZM734.596 165V111.3H730.596V165H734.596ZM734.596 111.3C734.596 102.161 732.015 94.3177 726.887 88.7401C721.737 83.1389 714.227 80.05 704.846 80.05V84.05C713.315 84.05 719.68 86.8111 723.943 91.4474C728.227 96.1073 730.596 102.889 730.596 111.3H734.596ZM759.986 129.6V127.6H757.774L757.996 129.801L759.986 129.6ZM818.486 129.6V131.6H820.348L820.481 129.743L818.486 129.6ZM817.586 144.15L819.431 144.922L820.287 142.877L818.165 142.236L817.586 144.15ZM799.736 138.75L800.315 136.836L798.648 136.331L797.919 137.914L799.736 138.75ZM800.186 115.8V117.8H802.465L802.169 115.54L800.186 115.8ZM760.436 115.8L758.466 115.455L758.056 117.8H760.436V115.8ZM759.986 131.6H818.486V127.6H759.986V131.6ZM820.481 129.743C821.556 114.777 818.35 102.274 811.414 93.4686C804.442 84.6195 793.891 79.75 780.836 79.75V83.75C792.831 83.75 802.155 88.1805 808.272 95.9439C814.422 103.751 817.517 115.173 816.491 129.457L820.481 129.743ZM780.836 79.75C768.413 79.75 757.778 84.2156 750.257 92.2522C742.746 100.279 738.486 111.709 738.486 125.4H742.486C742.486 112.541 746.476 102.146 753.178 94.9853C759.87 87.8344 769.409 83.75 780.836 83.75V79.75ZM738.486 125.4C738.486 138.164 742.852 149.149 750.516 156.951C758.182 164.757 769.026 169.25 781.736 169.25V165.25C769.997 165.25 760.215 161.118 753.369 154.149C746.52 147.176 742.486 137.236 742.486 125.4H738.486ZM781.736 169.25C798.217 169.25 812.942 160.433 819.431 144.922L815.741 143.378C809.931 157.267 796.756 165.25 781.736 165.25V169.25ZM818.165 142.236L800.315 136.836L799.157 140.664L817.007 146.064L818.165 142.236ZM797.919 137.914C794.823 144.646 788.972 148.3 780.836 148.3V152.3C790.4 152.3 797.75 147.854 801.553 139.586L797.919 137.914ZM780.836 148.3C775.101 148.3 770.776 146.599 767.719 143.542C764.636 140.459 762.621 135.774 761.976 129.399L757.996 129.801C758.702 136.776 760.962 142.441 764.891 146.37C768.847 150.326 774.271 152.3 780.836 152.3V148.3ZM781.586 99.5C786.792 99.5 790.458 100.828 793.029 103.352C795.639 105.914 797.408 109.987 798.203 116.06L802.169 115.54C801.315 109.013 799.333 103.936 795.831 100.498C792.29 97.0218 787.481 95.5 781.586 95.5V99.5ZM800.186 113.8H760.436V117.8H800.186V113.8ZM762.406 116.145C763.404 110.442 765.498 106.34 768.561 103.654C771.612 100.978 775.861 99.5 781.586 99.5V95.5C775.162 95.5 769.886 97.1719 765.924 100.646C761.974 104.11 759.568 109.158 758.466 115.455L762.406 116.145ZM843.073 93H841.073V98.5422L844.613 94.2771L843.073 93ZM843.073 84H845.073V82H843.073V84ZM826.873 84V82H824.873V84H826.873ZM826.873 165H824.873V167H826.873V165ZM845.173 165V167H847.173V165H845.173ZM883.123 165H881.123V167H883.123V165ZM901.423 165V167H903.423V165H901.423ZM869.473 79.75C857.257 79.75 847.812 84.1576 841.534 91.7229L844.613 94.2771C850.035 87.7424 858.29 83.75 869.473 83.75V79.75ZM845.073 93V84H841.073V93H845.073ZM843.073 82H826.873V86H843.073V82ZM824.873 84V165H828.873V84H824.873ZM826.873 167H845.173V163H826.873V167ZM847.173 165V123.3H843.173V165H847.173ZM847.173 123.3C847.173 113.781 849.534 108.215 852.628 105.023C855.714 101.84 859.842 100.7 864.073 100.7V96.7C859.155 96.7 853.832 98.0349 849.756 102.239C845.688 106.435 843.173 113.169 843.173 123.3H847.173ZM864.073 100.7C868.078 100.7 871.038 101.687 873.264 103.205C875.501 104.731 877.13 106.885 878.31 109.424C880.701 114.57 881.123 121.017 881.123 126H885.123C885.123 120.933 884.721 113.73 881.937 107.738C880.529 104.709 878.483 101.923 875.517 99.9C872.54 97.8695 868.769 96.7 864.073 96.7V100.7ZM881.123 126V165H885.123V126H881.123ZM883.123 167H901.423V163H883.123V167ZM903.423 165V119.7H899.423V165H903.423ZM903.423 119.7C903.423 114.813 902.901 104.933 898.421 96.2113C896.166 91.8195 892.886 87.6794 888.135 84.6443C883.378 81.6045 877.265 79.75 869.473 79.75V83.75C876.607 83.75 881.95 85.4392 885.982 88.015C890.021 90.5956 892.862 94.143 894.863 98.0387C898.896 105.892 899.423 114.987 899.423 119.7H903.423ZM938.62 98.1V96.1H936.62V98.1H938.62ZM962.47 98.1V100.1H964.47V98.1H962.47ZM962.47 84H964.47V82H962.47V84ZM938.62 84H936.62V86H938.62V84ZM938.62 61.5H940.62V59.5H938.62V61.5ZM920.62 61.5V59.5H918.62V61.5H920.62ZM920.62 84V86H922.62V84H920.62ZM905.92 84V82H903.92V84H905.92ZM905.92 98.1H903.92V100.1H905.92V98.1ZM920.62 98.1H922.62V96.1H920.62V98.1ZM923.77 155.1L922.004 156.039L922.009 156.048L922.014 156.058L923.77 155.1ZM962.47 165L962.855 166.963L964.47 166.646V165H962.47ZM962.47 149.85H964.47V147.534L962.179 147.871L962.47 149.85ZM940.27 145.5L941.973 144.452L941.97 144.447L940.27 145.5ZM938.62 100.1H962.47V96.1H938.62V100.1ZM964.47 98.1V84H960.47V98.1H964.47ZM962.47 82H938.62V86H962.47V82ZM940.62 84V61.5H936.62V84H940.62ZM938.62 59.5H920.62V63.5H938.62V59.5ZM918.62 61.5V84H922.62V61.5H918.62ZM920.62 82H905.92V86H920.62V82ZM903.92 84V98.1H907.92V84H903.92ZM905.92 100.1H920.62V96.1H905.92V100.1ZM918.62 98.1V131.85H922.62V98.1H918.62ZM918.62 131.85C918.62 140.899 917.961 148.438 922.004 156.039L925.536 154.161C922.079 147.662 922.62 141.401 922.62 131.85H918.62ZM922.014 156.058C925.532 162.508 931.807 166.019 939.058 167.521C946.289 169.018 954.675 168.568 962.855 166.963L962.085 163.037C954.215 164.582 946.401 164.957 939.869 163.604C933.358 162.256 928.307 159.242 925.526 154.142L922.014 156.058ZM964.47 165V149.85H960.47V165H964.47ZM962.179 147.871C957.112 148.616 952.701 148.952 949.176 148.451C945.696 147.956 943.352 146.692 941.973 144.452L938.567 146.548C940.788 150.158 944.443 151.819 948.613 152.411C952.739 152.998 957.628 152.584 962.761 151.829L962.179 147.871ZM941.97 144.447C941.258 143.297 940.872 141.636 940.709 139.269C940.547 136.904 940.62 134.183 940.62 130.95H936.62C936.62 134.017 936.543 136.996 936.718 139.543C936.893 142.089 937.332 144.553 938.569 146.553L941.97 144.447ZM940.62 130.95V98.1H936.62V130.95H940.62Z" fill="#1E9FD7"/>
</g>
<defs>
<clipPath id="clip0">
<rect width="303" height="160" fill="white" transform="translate(59 40)"/>
</clipPath>
</defs>
</svg>
