<svg width="214" height="29" viewBox="0 0 214 29" fill="none" xmlns="http://www.w3.org/2000/svg">
<path d="M154.884 16.6676C155.696 17.0784 156.443 17.6077 157.1 18.2382C157.369 18.5453 157.575 18.9026 157.706 19.2895C157.836 19.6764 157.889 20.0854 157.861 20.4928C157.861 21.8546 157.408 22.8455 156.502 23.4653C155.485 24.1198 154.291 24.4461 153.082 24.3999C152.425 24.4043 151.77 24.3559 151.121 24.2554C150.582 24.135 150.259 24.0675 150.158 24.0531V22.8198C150.663 22.9792 151.182 23.0905 151.709 23.1522C152.269 23.2164 152.832 23.247 153.395 23.2437C154.207 23.2591 155.002 23.0143 155.664 22.5451C155.969 22.3393 156.216 22.0602 156.385 21.7336C156.553 21.407 156.637 21.0433 156.628 20.6759C156.622 20.2245 156.5 19.7822 156.273 19.3921C156.046 19.002 155.722 18.6775 155.332 18.4502C154.749 18.1274 154.368 17.9058 154.156 17.7853L153.005 17.159C152.199 16.7323 151.442 16.2203 150.745 15.6318C150.484 15.3605 150.283 15.0369 150.156 14.6823C150.029 14.3277 149.979 13.9502 150.008 13.5747C150.041 12.7239 150.334 11.9036 150.846 11.2237C151.405 10.4111 152.542 10.0032 154.257 10C154.759 9.99932 155.259 10.0331 155.756 10.1012C156.184 10.1582 156.608 10.2386 157.028 10.3421V11.6091C156.883 11.5561 156.546 11.4646 156.006 11.3345C155.433 11.2027 154.846 11.138 154.257 11.1418C153.448 11.0825 152.642 11.3055 151.979 11.7729C151.731 11.9745 151.534 12.2309 151.403 12.5219C151.271 12.8129 151.21 13.1305 151.222 13.4494C151.2 13.7419 151.254 14.0351 151.378 14.3008C151.502 14.5666 151.692 14.796 151.93 14.967C152.412 15.2946 152.99 15.6511 153.689 16.0413L154.884 16.6676Z" fill="white"/>
<path d="M159.638 14.5428H160.65V16.3253C160.859 15.7777 161.188 15.2839 161.613 14.88C162.135 14.4534 162.802 14.2461 163.473 14.3019C163.918 14.2983 164.359 14.3922 164.765 14.577C165.17 14.7617 165.53 15.0329 165.819 15.3714C166.465 16.0893 166.783 17.3756 166.783 19.2255C166.783 21.0755 166.455 22.4389 165.819 23.2097C165.543 23.5691 165.187 23.8603 164.781 24.0608C164.374 24.2612 163.927 24.3656 163.473 24.366C162.79 24.4164 162.114 24.2064 161.58 23.7782C161.162 23.3954 160.857 22.9056 160.698 22.3618L160.66 28.4513H159.648L159.638 14.5428ZM163.304 23.4265C163.661 23.433 164.011 23.3346 164.311 23.1436C164.612 22.9526 164.85 22.6774 164.995 22.3522C165.43 21.3731 165.627 20.3049 165.569 19.2352C165.569 17.8862 165.381 16.8922 165.005 16.2531C164.841 15.9486 164.595 15.6966 164.294 15.5261C163.993 15.3556 163.65 15.2736 163.304 15.2895C162.893 15.2919 162.49 15.412 162.144 15.6356C161.799 15.8593 161.524 16.1772 161.353 16.5517C160.888 17.3832 160.646 18.3209 160.65 19.2737C160.652 20.2304 160.85 21.1766 161.233 22.0535C161.384 22.4752 161.667 22.8367 162.041 23.0842C162.414 23.3316 162.857 23.4517 163.304 23.4265Z" fill="white"/>
<path d="M174.935 24.1734C174.243 24.3253 173.537 24.4013 172.829 24.3999C172.195 24.44 171.56 24.337 170.972 24.0985C170.383 23.86 169.855 23.4921 169.428 23.022C168.648 22.1019 168.257 20.7963 168.257 19.0956C168.257 17.5315 168.579 16.3448 169.221 15.5354C169.544 15.1298 169.96 14.8078 170.434 14.5965C170.908 14.3853 171.425 14.2909 171.943 14.3214C172.397 14.2886 172.853 14.3651 173.272 14.5444C173.691 14.7238 174.061 15.0008 174.352 15.3523C174.876 16.0446 175.155 16.8926 175.142 17.7612V18.2429H169.471V19.2354C169.403 20.3308 169.729 21.4145 170.392 22.2897C171.003 23.0172 171.933 23.3833 173.171 23.3833C173.766 23.3912 174.36 23.3167 174.935 23.1617V24.1734ZM173.923 17.3179C173.907 16.8289 173.739 16.3571 173.441 15.969C173.261 15.7356 173.025 15.5515 172.754 15.4336C172.484 15.3157 172.188 15.2679 171.895 15.2945C171.354 15.2717 170.823 15.4425 170.396 15.7763C169.961 16.1822 169.682 16.7276 169.606 17.3179H173.923Z" fill="white"/>
<path d="M182.874 24.2313C182.715 24.2698 182.513 24.3084 182.267 24.3517C181.919 24.3988 181.568 24.4198 181.217 24.4144C179.636 24.4144 178.456 23.9487 177.676 23.0172C176.844 21.9362 176.427 20.5928 176.5 19.2306C176.431 17.972 176.742 16.7216 177.391 15.6414C177.699 15.2054 178.113 14.8561 178.595 14.6273C179.077 14.3986 179.61 14.2982 180.142 14.3359C181.347 14.3359 182.156 14.6586 182.58 15.2994C182.992 15.8941 183.215 16.5992 183.221 17.3228H181.906C181.923 16.8028 181.762 16.2926 181.448 15.8775C181.288 15.6839 181.085 15.5309 180.854 15.4313C180.624 15.3316 180.373 15.2881 180.123 15.3042C179.743 15.2873 179.366 15.3836 179.04 15.5808C178.714 15.778 178.454 16.0673 178.292 16.4123C177.889 17.2377 177.69 18.1483 177.714 19.0668C177.643 20.2148 177.964 21.3528 178.625 22.2946C178.963 22.687 179.388 22.9947 179.867 23.193C180.345 23.3913 180.864 23.4746 181.38 23.4364C181.636 23.4399 181.892 23.4271 182.146 23.3978C182.325 23.3689 182.566 23.3208 182.874 23.2533V24.2313Z" fill="white"/>
<path d="M184.618 10.2119H186.116V11.8499H184.618V10.2119ZM184.863 14.5478H185.875V24.1831H184.863V14.5478Z" fill="white"/>
<path d="M193.29 22.8195C192.955 23.2493 192.553 23.6219 192.1 23.9227C191.547 24.2644 190.904 24.4322 190.254 24.4045C189.903 24.4364 189.549 24.382 189.223 24.246C188.897 24.11 188.61 23.8965 188.385 23.624C188.001 23.1064 187.798 22.4765 187.807 21.8319C187.794 21.3524 187.918 20.8791 188.166 20.4684C188.414 20.0576 188.774 19.7265 189.204 19.5146C190.136 18.9943 191.497 18.7341 193.29 18.7341V18.2524C193.29 17.9537 193.29 17.6694 193.29 17.3996C193.278 17.0755 193.237 16.7531 193.169 16.4361C193.13 16.2525 193.049 16.0803 192.933 15.9325C192.817 15.7848 192.669 15.6654 192.5 15.5834C192.101 15.377 191.657 15.2743 191.208 15.2847C190.69 15.2322 190.171 15.3843 189.763 15.7086C189.463 16.0196 189.265 16.4145 189.195 16.8408H187.981C187.987 16.5123 188.06 16.1886 188.196 15.8895C188.332 15.5904 188.527 15.3223 188.771 15.1016C189.296 14.5717 190.139 14.3115 191.3 14.3115C192.591 14.3115 193.42 14.6198 193.776 15.2413C194.157 15.9631 194.341 16.7721 194.311 17.5875V24.1636H193.299L193.29 22.8195ZM192.278 19.7025C191.466 19.6741 190.662 19.8673 189.951 20.2613C189.662 20.4172 189.423 20.6502 189.258 20.9343C189.094 21.2184 189.012 21.5424 189.021 21.8704C189.013 22.0519 189.046 22.2328 189.118 22.3996C189.19 22.5665 189.298 22.715 189.435 22.8339C189.722 23.0721 190.085 23.1972 190.457 23.1856C190.947 23.1901 191.43 23.062 191.854 22.8147C192.237 22.6128 192.558 22.3116 192.784 21.9427C192.965 21.6439 193.098 21.3188 193.179 20.9791C193.263 20.5671 193.3 20.1469 193.29 19.7266L192.278 19.7025Z" fill="white"/>
<path d="M196.879 10.2119H197.891V24.1831H196.879V10.2119Z" fill="white"/>
<path d="M204.751 24.3178C204.408 24.3741 204.062 24.4015 203.715 24.3997C203.026 24.453 202.341 24.2544 201.788 23.8408C201.557 23.603 201.381 23.3178 201.271 23.005C201.161 22.6923 201.121 22.3594 201.152 22.0294V15.516H199.615V14.5524H201.152V12.3122L202.164 11.6426V14.5332H204.736V15.4967H202.164V21.6055C202.145 22.0588 202.236 22.5101 202.429 22.9207C202.602 23.2579 203.041 23.4185 203.744 23.4024C203.949 23.4051 204.153 23.3808 204.351 23.3302C204.524 23.282 204.654 23.2483 204.736 23.2194L204.751 24.3178Z" fill="white"/>
<path d="M209.337 24.1253L205.594 14.543H206.731L209.915 22.5981L212.719 14.543H213.837L209.14 27.8975H208.022L209.337 24.1253Z" fill="white"/>
<path d="M7.87203 0L0 24.9458H9.80872L17.6807 0H7.87203Z" fill="white"/>
<path d="M23.4331 0L15.561 24.9458H25.3698L33.2418 0H23.4331Z" fill="white"/>
<path d="M128.655 24.7723H131.888V17.5218C131.862 15.8154 132.316 14.136 133.198 12.6752C134.072 11.2396 135.143 10.5217 136.412 10.5217C137.488 10.5217 138.146 10.8734 138.387 11.5768C138.683 12.8389 138.803 14.1359 138.743 15.4309V24.7723H141.976V12.9257C141.998 11.5574 141.657 10.2077 140.988 9.01381C140.327 7.86079 139.124 7.28588 137.38 7.28909C135.848 7.28909 134.672 7.68414 133.863 8.47423C133.025 9.3017 132.354 10.2832 131.888 11.3648V7.70823H128.655V24.7723ZM116.399 12.8197C116.451 12.0897 116.748 11.3987 117.242 10.859C117.558 10.4943 117.955 10.2086 118.4 10.0245C118.846 9.84049 119.329 9.76329 119.81 9.79908C120.933 9.79908 121.737 10.117 122.219 10.7626C122.681 11.3526 122.934 12.0798 122.937 12.8294L116.399 12.8197ZM125.769 22.0793C125.252 22.252 124.724 22.3936 124.189 22.5032C123.645 22.6074 123.091 22.6575 122.537 22.6526C120.407 22.6526 118.827 21.8496 117.796 20.2437C116.773 18.667 116.237 16.8239 116.255 14.9443H126.164V14.1446C126.164 12.0634 125.638 10.3997 124.584 9.15352C123.531 7.90736 121.999 7.28588 119.988 7.28909C118.261 7.29637 116.587 7.88338 115.233 8.956C113.759 10.0705 113.022 12.224 113.022 15.4165C113.022 18.7214 113.764 21.1751 115.248 22.7778C116.732 24.3805 118.819 25.1834 121.511 25.1866C122.238 25.1931 122.965 25.14 123.683 25.0277C124.319 24.9168 125.018 24.782 125.784 24.6133L125.769 22.0793ZM100.689 20.7881C100.201 19.3196 99.9711 17.7776 100.01 16.2306C99.9416 14.6255 100.204 13.0234 100.78 11.5238C100.973 11.0028 101.324 10.5556 101.785 10.246C102.246 9.93634 102.793 9.77996 103.348 9.79908C103.96 9.78041 104.563 9.95199 105.074 10.2902C105.585 10.6284 105.978 11.1166 106.2 11.6876C106.821 13.1062 107.122 14.6441 107.082 16.1921C107.104 17.7331 106.785 19.26 106.147 20.6629C105.506 21.9925 104.577 22.6429 103.358 22.6429C102.769 22.6774 102.187 22.5134 101.703 22.1771C101.219 21.8407 100.862 21.3516 100.689 20.7881ZM107.082 24.7723H110.31V0H107.082L107.01 10.0544C106.686 9.28577 106.149 8.62557 105.463 8.15145C104.58 7.5393 103.52 7.23612 102.447 7.28909C101.552 7.25926 100.665 7.47013 99.8782 7.89973C99.0919 8.32933 98.4352 8.96194 97.9765 9.73164C96.9359 11.36 96.4156 13.6211 96.4156 16.5149C96.4156 19.1485 96.8973 21.249 97.8608 22.8164C98.8244 24.3837 100.297 25.1674 102.279 25.1674C103.279 25.1751 104.264 24.9157 105.131 24.4158C106.017 23.8989 106.706 23.1025 107.091 22.1515L107.082 24.7723ZM77.5689 24.7723H80.9413L84.4678 12.9257L88.0377 24.7771H91.4437L95.2979 7.68896H92.1712L89.4155 20.0992L85.6578 7.70823H83.2152L79.4093 20.104L76.7258 7.70341H73.5944L77.5689 24.7723ZM62.1284 21.2362C61.4347 20.2919 61.0878 18.6234 61.0878 16.2306C61.0439 14.6706 61.3193 13.1181 61.8971 11.6683C62.4319 10.4254 63.4918 9.79908 65.072 9.79908C65.6318 9.77779 66.1883 9.89452 66.6924 10.139C67.1965 10.3835 67.6327 10.7482 67.9626 11.201C68.6563 12.1356 69.0032 13.8122 69.0032 16.2306C69.0436 17.7839 68.7631 19.3289 68.1794 20.7689C67.6237 22.0182 66.5767 22.6429 65.0382 22.6429C64.4686 22.6693 63.9014 22.5537 63.3876 22.3064C62.8738 22.0592 62.4295 21.6881 62.0947 21.2265L62.1284 21.2362ZM59.3679 22.773C60.6333 24.3789 62.5234 25.1818 65.0382 25.1818C67.5531 25.1818 69.4384 24.3917 70.6942 22.8115C71.9532 21.2313 72.5811 19.0425 72.5779 16.2451C72.5746 13.4476 71.9403 11.2572 70.6749 9.67383C69.4095 8.09364 67.5306 7.30355 65.0382 7.30355C62.5459 7.30355 60.6494 8.09364 59.3486 9.67383C58.096 11.254 57.4713 13.4396 57.4746 16.2306C57.4778 19.0217 58.1201 21.2057 59.4016 22.7826L59.3679 22.773ZM41.48 24.7723H44.7078V17.5218C44.6844 15.8157 45.1382 14.137 46.0182 12.6752C46.895 11.2396 47.9661 10.5217 49.2316 10.5217C50.3107 10.5217 50.9659 10.8734 51.2068 11.5768C51.4477 12.2802 51.5681 13.5713 51.5681 15.4309V24.7723H54.7959V12.9257C54.8272 11.5594 54.4947 10.2093 53.8324 9.01381C53.1901 7.86079 51.9873 7.28588 50.224 7.28909C48.692 7.28909 47.5197 7.68414 46.7071 8.47423C45.8703 9.30293 45.1999 10.2841 44.7319 11.3648V0H41.5041L41.48 24.7723Z" fill="white"/>
</svg>
