<svg width="696" height="396" viewBox="0 0 696 396" fill="none" xmlns="http://www.w3.org/2000/svg">
<path d="M-182 294H-6.8V248.8H-134V5.99999H-182V294ZM100.881 300C165.281 300 208.481 253.2 208.481 186C208.481 119.2 165.681 72 100.881 72C36.8813 72 -6.71875 118.4 -6.71875 186C-6.71875 252.8 35.6813 300 100.881 300ZM100.881 254.8C63.6813 254.8 44.4813 228 44.4813 186C44.4813 145.2 62.0813 117.2 100.881 117.2C138.481 117.2 157.681 144 157.681 186C157.681 226.4 138.881 254.8 100.881 254.8ZM378.547 78V93.2C363.347 79.6 343.347 72 318.947 72C257.747 72 218.547 120.4 218.547 186C218.547 250.8 257.347 300 317.347 300C339.747 300 358.147 294 372.947 282.8V303.6C373.347 334.4 351.747 350 321.747 350C304.547 350 288.147 342.8 280.147 327.2L235.347 349.2C252.547 378.4 285.347 396 321.347 396C370.147 396 408.147 376.8 418.147 334.8C420.147 325.2 420.947 315.6 420.947 304.4V78H378.547ZM324.547 256.8C286.947 256.8 269.747 225.6 269.747 186C269.747 146.8 287.347 115.2 326.147 115.2C362.947 115.2 378.547 144 378.547 186C378.547 228 363.347 256.8 324.547 256.8ZM459.031 44.4H507.031V0.399989H459.031V44.4ZM459.031 294H507.031V78H459.031V294ZM628.741 300C684.341 300 717.541 273.6 717.541 230C717.541 196.4 699.141 179.6 647.141 166C596.741 153.2 588.341 148.8 588.341 136C588.341 121.6 603.541 112.8 625.941 113.6C649.541 115.2 664.341 126.4 666.741 144.4L715.941 135.6C710.741 96.8 675.541 72 625.141 72C573.541 72 540.341 98 540.341 138.4C540.341 170.8 559.141 186.8 613.541 201.2C662.341 214 668.341 217.6 668.341 232.4C668.341 248.4 654.741 258 631.941 258C605.541 258 587.141 245.2 582.341 223.6L533.141 231.2C540.341 274.8 575.141 300 628.741 300ZM803.138 115.6H866.738V78H803.138V18H755.138V78H715.938V115.6H755.138V205.6C755.138 230.4 753.538 248.8 763.538 267.6C780.338 298.4 823.938 302.4 866.738 294V253.6C839.538 257.6 817.138 257.6 807.538 242C802.338 233.6 803.138 220 803.138 203.2V115.6ZM894.984 44.4H942.984V0.399989H894.984V44.4ZM894.984 294H942.984V78H894.984V294ZM1075.09 300C1123.09 300 1157.89 275.6 1171.09 231.6L1121.89 220.8C1114.29 242.8 1100.69 254.8 1075.09 254.8C1038.69 254.8 1020.29 227.2 1020.29 186C1020.29 146.4 1037.09 117.2 1075.09 117.2C1097.09 117.2 1115.89 130.8 1123.09 154L1171.09 140.8C1160.69 98.4 1124.69 72 1075.49 72C1009.89 72 969.494 119.6 969.094 186C969.494 251.2 1008.29 300 1075.09 300ZM1273.16 300C1328.76 300 1361.96 273.6 1361.96 230C1361.96 196.4 1343.56 179.6 1291.56 166C1241.16 153.2 1232.76 148.8 1232.76 136C1232.76 121.6 1247.96 112.8 1270.36 113.6C1293.96 115.2 1308.76 126.4 1311.16 144.4L1360.36 135.6C1355.16 96.8 1319.96 72 1269.56 72C1217.96 72 1184.76 98 1184.76 138.4C1184.76 170.8 1203.56 186.8 1257.96 201.2C1306.76 214 1312.76 217.6 1312.76 232.4C1312.76 248.4 1299.16 258 1276.36 258C1249.96 258 1231.56 245.2 1226.76 223.6L1177.56 231.2C1184.76 274.8 1219.56 300 1273.16 300Z" fill="white"/>
</svg>
