<svg width="603" height="298" viewBox="0 0 603 298" fill="none" xmlns="http://www.w3.org/2000/svg">
<path d="M2 290H0V292H2V290ZM50.8 290V292H52.8V290H50.8ZM50.8 86.8L52.4712 85.7012L48.8 80.1176V86.8H50.8ZM184.4 290L182.729 291.099L183.321 292H184.4V290ZM233.2 290V292H235.2V290H233.2ZM233.2 1.99998H235.2V-1.52588e-05H233.2V1.99998ZM184.4 1.99998V-1.52588e-05H182.4V1.99998H184.4ZM184.4 204.8L182.73 205.9L186.4 211.471V204.8H184.4ZM50.8 1.99998L52.4702 0.899727L51.8774 -1.52588e-05H50.8V1.99998ZM2 1.99998V-1.52588e-05H0V1.99998H2ZM2 292H50.8V288H2V292ZM52.8 290V86.8H48.8V290H52.8ZM49.1288 87.8987L182.729 291.099L186.071 288.901L52.4712 85.7012L49.1288 87.8987ZM184.4 292H233.2V288H184.4V292ZM235.2 290V1.99998H231.2V290H235.2ZM233.2 -1.52588e-05H184.4V3.99998H233.2V-1.52588e-05ZM182.4 1.99998V204.8H186.4V1.99998H182.4ZM186.07 203.7L52.4702 0.899727L49.1298 3.10025L182.73 205.9L186.07 203.7ZM50.8 -1.52588e-05H2V3.99998H50.8V-1.52588e-05ZM0 1.99998V290H4V1.99998H0ZM437.509 108L439.298 107.106L439.293 107.096L437.509 108ZM262.709 128.4L260.792 127.831L260.233 129.716L262.108 130.307L262.709 128.4ZM307.109 142.4L306.508 144.307L308.426 144.912L309.02 142.991L307.109 142.4ZM398.309 148.8L398.581 150.782L400.423 150.529L400.305 148.673L398.309 148.8ZM304.309 166L303.707 164.093L303.675 164.103L303.644 164.114L304.309 166ZM403.509 260.8H405.509V254.904L401.922 259.583L403.509 260.8ZM403.509 290H401.509V292H403.509V290ZM445.509 290V292H447.509V290H445.509ZM392.709 221.6L390.863 220.831L390.82 220.935L390.788 221.044L392.709 221.6ZM328.709 201.6L328.107 199.693L328.052 199.71L327.997 199.731L328.709 201.6ZM397.909 188L399.908 188.077L400.002 185.633L397.588 186.026L397.909 188ZM439.293 107.096C424.395 77.7123 393.035 66 354.309 66V70C392.384 70 421.824 81.4877 435.726 108.904L439.293 107.096ZM354.309 66C328.398 66 307.774 72.0751 292.216 82.9087C276.648 93.7503 266.304 109.254 260.792 127.831L264.627 128.969C269.915 111.146 279.771 96.4496 294.502 86.1913C309.245 75.9249 329.021 70 354.309 70V66ZM262.108 130.307L306.508 144.307L307.711 140.493L263.311 126.493L262.108 130.307ZM309.02 142.991C315.458 122.162 335.179 114 353.909 114V110C334.24 110 312.361 118.638 305.199 141.809L309.02 142.991ZM353.909 114C368.5 114 378.642 116.868 385.323 122.481C391.955 128.054 395.533 136.64 396.313 148.927L400.305 148.673C399.485 135.76 395.664 125.946 387.896 119.419C380.176 112.932 368.918 110 353.909 110V114ZM398.038 146.818C360.096 152.011 326.705 156.83 303.707 164.093L304.912 167.907C327.514 160.77 360.523 155.989 398.581 150.782L398.038 146.818ZM303.644 164.114C286.381 170.207 273.705 178.803 265.356 190.005C256.997 201.219 253.109 214.864 253.109 230.8H257.109C257.109 215.536 260.822 202.781 268.563 192.395C276.314 181.997 288.238 173.793 304.975 167.886L303.644 164.114ZM253.109 230.8C253.109 249.087 259.692 265.924 272.369 278.188C285.05 290.455 303.678 298 327.509 298V294C304.541 294 286.969 286.745 275.15 275.312C263.327 263.876 257.109 248.113 257.109 230.8H253.109ZM327.509 298C344.927 298 359.631 295.164 372.357 289.212C385.092 283.255 395.733 274.23 405.097 262.017L401.922 259.583C392.885 271.37 382.727 279.945 370.662 285.588C358.588 291.236 344.492 294 327.509 294V298ZM401.509 260.8V290H405.509V260.8H401.509ZM403.509 292H445.509V288H403.509V292ZM447.509 290V157.6H443.509V290H447.509ZM447.509 157.6C447.509 138.835 447.136 122.781 439.298 107.106L435.721 108.894C443.083 123.619 443.509 138.765 443.509 157.6H447.509ZM390.788 221.044C386.626 235.421 368.985 255.6 337.109 255.6V259.6C370.833 259.6 389.992 238.179 394.63 222.156L390.788 221.044ZM337.109 255.6C326.03 255.6 317.834 252.782 312.444 248.267C307.089 243.782 304.309 237.465 304.309 230H300.309C300.309 238.535 303.529 246.018 309.875 251.333C316.185 256.618 325.388 259.6 337.109 259.6V255.6ZM304.309 230C304.309 223.741 306.492 218.738 310.639 214.499C314.848 210.196 321.141 206.623 329.421 203.469L327.997 199.731C319.478 202.977 312.571 206.804 307.78 211.701C302.927 216.662 300.309 222.659 300.309 230H304.309ZM329.312 203.507C344.339 198.762 363.763 195.585 398.231 189.974L397.588 186.026C363.256 191.615 343.48 194.838 328.107 199.693L329.312 203.507ZM395.911 187.923C395.508 198.39 394.701 211.619 390.863 220.831L394.556 222.369C398.717 212.381 399.51 198.41 399.908 188.077L395.911 187.923ZM538.778 111.6V109.6H536.778V111.6H538.778ZM602.378 111.6V113.6H604.378V111.6H602.378ZM602.378 74H604.378V72H602.378V74ZM538.778 74H536.778V76H538.778V74ZM538.778 14H540.778V12H538.778V14ZM490.778 14V12H488.778V14H490.778ZM490.778 74V76H492.778V74H490.778ZM451.578 74V72H449.578V74H451.578ZM451.578 111.6H449.578V113.6H451.578V111.6ZM490.778 111.6H492.778V109.6H490.778V111.6ZM499.178 263.6L497.412 264.539L497.417 264.548L497.422 264.558L499.178 263.6ZM602.378 290L602.763 291.963L604.378 291.646V290H602.378ZM602.378 249.6H604.378V247.284L602.087 247.621L602.378 249.6ZM543.178 238L544.881 236.952L544.879 236.947L543.178 238ZM538.778 113.6H602.378V109.6H538.778V113.6ZM604.378 111.6V74H600.378V111.6H604.378ZM602.378 72H538.778V76H602.378V72ZM540.778 74V14H536.778V74H540.778ZM538.778 12H490.778V16H538.778V12ZM488.778 14V74H492.778V14H488.778ZM490.778 72H451.578V76H490.778V72ZM449.578 74V111.6H453.578V74H449.578ZM451.578 113.6H490.778V109.6H451.578V113.6ZM488.778 111.6V201.6H492.778V111.6H488.778ZM488.778 201.6C488.778 226.149 487.119 245.188 497.412 264.539L500.944 262.661C491.237 244.412 492.778 226.651 492.778 201.6H488.778ZM497.422 264.558C506.191 280.633 521.903 289.582 540.623 293.458C559.322 297.331 581.208 296.193 602.763 291.963L601.993 288.037C580.748 292.207 559.435 293.269 541.434 289.542C523.454 285.818 508.966 277.367 500.934 262.642L497.422 264.558ZM604.378 290V249.6H600.378V290H604.378ZM602.087 247.621C588.521 249.616 576.359 250.577 566.46 249.17C556.605 247.769 549.26 244.067 544.881 236.952L541.475 239.048C546.696 247.533 555.352 251.631 565.897 253.13C576.397 254.623 589.036 253.584 602.669 251.579L602.087 247.621ZM544.879 236.947C542.542 233.172 541.467 228.073 541.023 221.613C540.58 215.154 540.778 207.683 540.778 199.2H536.778C536.778 207.517 536.577 215.246 537.033 221.887C537.489 228.527 538.615 234.428 541.478 239.053L544.879 236.947ZM540.778 199.2V111.6H536.778V199.2H540.778ZM772.225 74V72H770.225V74H772.225ZM671.425 74H673.425V72H671.425V74ZM622.625 74V72H620.625V74H622.625ZM778.225 266H780.225V260.458L776.686 264.723L778.225 266ZM778.225 290H776.225V292H778.225V290ZM821.025 290V292H823.025V290H821.025ZM821.025 74H823.025V72H821.025V74ZM770.225 74V184.8H774.225V74H770.225ZM770.225 184.8C770.225 210.693 763.802 226.615 754.732 236.065C745.672 245.505 733.667 248.8 721.825 248.8V252.8C734.383 252.8 747.578 249.295 757.618 238.835C767.648 228.385 774.225 211.307 774.225 184.8H770.225ZM721.825 248.8C710.674 248.8 702.182 246.018 695.677 241.546C689.159 237.064 684.504 230.794 681.191 223.612C674.535 209.182 673.425 191.358 673.425 178H669.425C669.425 191.442 670.515 210.018 677.559 225.288C681.096 232.956 686.166 239.861 693.411 244.842C700.668 249.832 709.976 252.8 721.825 252.8V248.8ZM673.425 178V74H669.425V178H673.425ZM671.425 72H622.625V76H671.425V72ZM620.625 74V194.4H624.625V74H620.625ZM620.625 194.4C620.625 207.485 622.023 233.276 633.543 255.859C639.32 267.181 647.663 277.741 659.681 285.464C671.708 293.191 687.294 298 707.425 298V294C687.956 294 673.142 289.359 661.844 282.099C650.537 274.834 642.63 264.869 637.107 254.041C626.027 232.324 624.625 207.315 624.625 194.4H620.625ZM707.425 298C739.132 298 763.731 286.599 779.764 267.277L776.686 264.723C761.519 283.001 738.118 294 707.425 294V298ZM776.225 266V290H780.225V266H776.225ZM778.225 292H821.025V288H778.225V292ZM823.025 290V74H819.025V290H823.025ZM821.025 72H772.225V76H821.025V72ZM919.416 85.2L920.456 86.9084L920.506 86.8778L920.554 86.8444L919.416 85.2ZM897.816 108.4H895.816V116.003L899.557 109.384L897.816 108.4ZM897.816 74H899.816V72H897.816V74ZM855.016 74V72H853.016V74H855.016ZM855.016 290H853.016V292H855.016V290ZM903.416 290V292H905.416V290H903.416ZM931.816 124L932.781 125.752L932.791 125.746L931.816 124ZM976.616 118.8L976.074 120.725L978.616 121.44V118.8H976.616ZM976.616 74H978.616V72.3057L976.944 72.0272L976.616 74ZM918.376 83.4916C908.817 89.3099 901.399 97.9951 896.075 107.416L899.557 109.384C904.632 100.405 911.614 92.2901 920.456 86.9084L918.376 83.4916ZM899.816 108.4V74H895.816V108.4H899.816ZM897.816 72H855.016V76H897.816V72ZM853.016 74V290H857.016V74H853.016ZM855.016 292H903.416V288H855.016V292ZM905.416 290V180.4H901.416V290H905.416ZM905.416 180.4C905.416 155.656 914.027 136.085 932.781 125.752L930.85 122.248C910.404 133.515 901.416 154.744 901.416 180.4H905.416ZM932.791 125.746C945.888 118.427 963.736 117.255 976.074 120.725L977.157 116.875C963.895 113.145 944.943 114.373 930.84 122.254L932.791 125.746ZM978.616 118.8V74H974.616V118.8H978.616ZM976.944 72.0272C957.339 68.7596 934.387 72.4026 918.277 83.5556L920.554 86.8444C935.644 76.3974 957.492 72.8403 976.287 75.9728L976.944 72.0272Z" fill="#D9D9D9"/>
</svg>
