<svg width="628" height="388" viewBox="0 0 628 388" fill="none" xmlns="http://www.w3.org/2000/svg">
<path d="M2.26416 290H0.26416V292H2.26416V290ZM50.2642 290V292H52.2642V290H50.2642ZM50.2642 189.6V187.6H48.2642V189.6H50.2642ZM144.264 188L144.576 189.976L144.583 189.974L144.264 188ZM144.264 3.59999L143.952 5.57555L143.964 5.57728L144.264 3.59999ZM2.26416 1.99998V-1.52588e-05H0.26416V1.99998H2.26416ZM50.2642 144.4H48.2642V146.4H50.2642V144.4ZM50.2642 47.2V45.2H48.2642V47.2H50.2642ZM137.464 49.2L136.915 51.123L136.947 51.1322L136.979 51.1403L137.464 49.2ZM137.464 142.4L136.979 140.46L136.947 140.468L136.915 140.477L137.464 142.4ZM2.26416 292H50.2642V288H2.26416V292ZM52.2642 290V189.6H48.2642V290H52.2642ZM50.2642 191.6H121.464V187.6H50.2642V191.6ZM121.464 191.6C126.717 191.6 136.832 191.198 144.576 189.976L143.952 186.024C136.496 187.202 126.611 187.6 121.464 187.6V191.6ZM144.583 189.974C169.837 185.901 188.717 174.459 201.26 157.856C213.782 141.28 219.864 119.725 219.864 95.6H215.864C215.864 119.075 209.947 139.72 198.068 155.444C186.211 171.141 168.292 182.099 143.946 186.026L144.583 189.974ZM219.864 95.6C219.864 71.4825 213.885 49.9255 201.411 33.3952C188.912 16.8335 170.023 5.49229 144.565 1.6227L143.964 5.57728C168.506 9.30769 186.416 20.1665 198.218 35.8047C210.043 51.4745 215.864 72.1175 215.864 95.6H219.864ZM144.576 1.62447C136.834 0.401955 127.119 -1.52588e-05 121.464 -1.52588e-05V3.99998C127.009 3.99998 136.495 4.39801 143.952 5.57552L144.576 1.62447ZM121.464 -1.52588e-05H2.26416V3.99998H121.464V-1.52588e-05ZM0.26416 1.99998V290H4.26416V1.99998H0.26416ZM52.2642 144.4V47.2H48.2642V144.4H52.2642ZM50.2642 49.2H119.464V45.2H50.2642V49.2ZM119.464 49.2C124.616 49.2 131.59 49.6016 136.915 51.123L138.014 47.2769C132.139 45.5984 124.712 45.2 119.464 45.2V49.2ZM136.979 51.1403C159.665 56.8118 167.064 77.5933 167.064 95.6H171.064C171.064 76.8067 163.263 53.5882 137.949 47.2597L136.979 51.1403ZM167.064 95.6C167.064 113.627 159.652 134.791 136.979 140.46L137.949 144.34C163.276 138.009 171.064 114.373 171.064 95.6H167.064ZM136.915 140.477C131.59 141.998 124.616 142.4 119.464 142.4V146.4C124.712 146.4 132.139 146.002 138.014 144.323L136.915 140.477ZM119.464 142.4H50.2642V146.4H119.464V142.4ZM300.133 85.2L301.173 86.9084L301.223 86.8778L301.271 86.8444L300.133 85.2ZM278.533 108.4H276.533V116.003L280.274 109.384L278.533 108.4ZM278.533 74H280.533V72H278.533V74ZM235.733 74V72H233.733V74H235.733ZM235.733 290H233.733V292H235.733V290ZM284.133 290V292H286.133V290H284.133ZM312.533 124L313.498 125.752L313.509 125.746L312.533 124ZM357.333 118.8L356.791 120.725L359.333 121.44V118.8H357.333ZM357.333 74H359.333V72.3057L357.662 72.0272L357.333 74ZM299.093 83.4916C289.534 89.3099 282.117 97.9951 276.792 107.416L280.274 109.384C285.349 100.405 292.331 92.2901 301.173 86.9084L299.093 83.4916ZM280.533 108.4V74H276.533V108.4H280.533ZM278.533 72H235.733V76H278.533V72ZM233.733 74V290H237.733V74H233.733ZM235.733 292H284.133V288H235.733V292ZM286.133 290V180.4H282.133V290H286.133ZM286.133 180.4C286.133 155.656 294.744 136.085 313.498 125.752L311.568 122.248C291.121 133.515 282.133 154.744 282.133 180.4H286.133ZM313.509 125.746C326.605 118.427 344.453 117.255 356.791 120.725L357.874 116.875C344.612 113.145 325.661 114.373 311.557 122.254L313.509 125.746ZM359.333 118.8V74H355.333V118.8H359.333ZM357.662 72.0272C338.056 68.7596 315.104 72.4026 298.995 83.5556L301.271 86.8444C316.361 76.3974 338.209 72.8403 357.004 75.9728L357.662 72.0272ZM465.192 298C497.899 298 525.343 286.103 544.601 265.568C563.849 245.044 574.792 216.03 574.792 182H570.792C570.792 215.17 560.136 243.156 541.683 262.832C523.242 282.497 496.885 294 465.192 294V298ZM574.792 182C574.792 148.172 563.95 119.16 544.755 98.5856C525.547 77.9984 498.102 66 465.192 66V70C497.083 70 523.438 81.6016 541.83 101.314C560.234 121.04 570.792 149.028 570.792 182H574.792ZM465.192 66C432.688 66 405.246 77.7946 385.937 98.2781C366.638 118.752 355.592 147.767 355.592 182H359.592C359.592 148.633 370.347 120.648 388.848 101.022C407.339 81.4054 433.697 70 465.192 70V66ZM355.592 182C355.592 215.823 366.331 244.836 385.478 265.412C404.638 286.003 432.085 298 465.192 298V294C433.099 294 406.746 282.397 388.406 262.688C370.053 242.964 359.592 214.977 359.592 182H355.592ZM465.192 248.8C447.12 248.8 433.633 242.318 424.611 230.909C415.535 219.432 410.792 202.73 410.792 182H406.792C406.792 203.27 411.65 220.968 421.474 233.391C431.352 245.882 446.064 252.8 465.192 252.8V248.8ZM410.792 182C410.792 161.846 415.145 145.138 424.031 133.515C432.853 121.975 446.328 115.2 465.192 115.2V111.2C445.257 111.2 430.532 118.425 420.853 131.085C411.239 143.661 406.792 161.354 406.792 182H410.792ZM465.192 115.2C483.471 115.2 497.058 121.687 506.127 133.095C515.25 144.57 519.992 161.27 519.992 182H523.992C523.992 160.73 519.135 143.03 509.258 130.605C499.326 118.113 484.513 111.2 465.192 111.2V115.2ZM519.992 182C519.992 201.924 515.353 218.636 506.264 230.322C497.23 241.937 483.638 248.8 465.192 248.8V252.8C484.746 252.8 499.555 245.463 509.421 232.778C519.232 220.164 523.992 202.476 523.992 182H519.992ZM637.258 89.2H635.258V93.6732L638.591 90.6905L637.258 89.2ZM637.258 74H639.258V72H637.258V74ZM594.458 74V72H592.458V74H594.458ZM594.458 386H592.458V388H594.458V386ZM642.858 386V388H644.858V386H642.858ZM642.858 278.8L644.037 277.184L640.858 274.865V278.8H642.858ZM696.858 66C672.018 66 651.528 73.7483 635.924 87.7095L638.591 90.6905C653.388 77.4517 672.898 70 696.858 70V66ZM639.258 89.2V74H635.258V89.2H639.258ZM637.258 72H594.458V76H637.258V72ZM592.458 74V386H596.458V74H592.458ZM594.458 388H642.858V384H594.458V388ZM644.858 386V278.8H640.858V386H644.858ZM641.679 280.416C656.836 291.476 675.652 298 698.458 298V294C676.463 294 658.48 287.724 644.037 277.184L641.679 280.416ZM698.458 298C729.05 298 754.308 285.438 771.887 264.589C789.441 243.769 799.258 214.788 799.258 182H795.258C795.258 214.012 785.675 242.031 768.829 262.011C752.007 281.962 727.866 294 698.458 294V298ZM799.258 182C799.258 148.812 789.341 119.822 771.525 99.0963C753.685 78.343 728.026 66 696.858 66V70C726.89 70 751.431 81.857 768.491 101.704C785.575 121.578 795.258 149.588 795.258 182H799.258ZM691.258 250.8C672.427 250.8 659.58 243.853 651.35 232.009C643.034 220.04 639.258 202.816 639.258 182H635.258C635.258 203.184 639.081 221.36 648.065 234.291C657.136 247.346 671.289 254.8 691.258 254.8V250.8ZM639.258 182C639.258 161.195 643.131 143.958 651.31 131.978C659.407 120.117 671.864 113.2 689.658 113.2V109.2C670.651 109.2 656.908 116.683 648.006 129.722C639.185 142.642 635.258 160.805 635.258 182H639.258ZM689.658 113.2C708.437 113.2 722.03 120.81 730.993 133.08C740.015 145.431 744.458 162.67 744.458 182H748.458C748.458 162.13 743.901 143.969 734.223 130.72C724.486 117.39 709.678 109.2 689.658 109.2V113.2ZM744.458 182C744.458 201.542 740.11 218.787 731.33 231.088C722.611 243.304 709.421 250.8 691.258 250.8V254.8C710.694 254.8 725.105 246.696 734.586 233.412C744.006 220.213 748.458 202.058 748.458 182H744.458ZM859.342 195.6V193.6H857.13L857.352 195.801L859.342 195.6ZM1015.34 195.6V197.6H1017.2L1017.34 195.743L1015.34 195.6ZM1012.94 234.4L1014.79 235.172L1015.64 233.127L1013.52 232.486L1012.94 234.4ZM965.342 220L965.921 218.086L964.254 217.581L963.525 219.164L965.342 220ZM966.542 158.8V160.8H968.821L968.525 158.54L966.542 158.8ZM860.542 158.8L858.572 158.455L858.162 160.8H860.542V158.8ZM859.342 197.6H1015.34V193.6H859.342V197.6ZM1017.34 195.743C1020.16 156.402 1011.71 123.961 993.863 101.312C975.986 78.6195 948.872 66 914.942 66V70C947.812 70 973.699 82.1805 990.721 103.788C1007.78 125.439 1016.12 156.798 1013.35 195.457L1017.34 195.743ZM914.942 66C882.644 66 855.196 77.5906 835.832 98.2834C816.477 118.966 805.342 148.584 805.342 184.4H809.342C809.342 149.416 820.207 120.834 838.753 101.017C857.288 81.2094 883.64 70 914.942 70V66ZM805.342 184.4C805.342 217.664 816.708 246.087 836.465 266.201C856.226 286.319 884.257 298 917.342 298V294C885.228 294 858.259 282.681 839.319 263.399C820.376 244.113 809.342 216.736 809.342 184.4H805.342ZM917.342 298C960.073 298 998.048 275.183 1014.79 235.172L1011.1 233.628C995.037 272.017 958.612 294 917.342 294V298ZM1013.52 232.486L965.921 218.086L964.763 221.914L1012.36 236.314L1013.52 232.486ZM963.525 219.164C954.679 238.396 937.828 248.8 914.942 248.8V252.8C939.256 252.8 957.606 241.604 967.159 220.836L963.525 219.164ZM914.942 248.8C898.957 248.8 886.507 244.036 877.607 235.136C868.68 226.209 863.102 212.899 861.332 195.399L857.352 195.801C859.183 213.901 865.005 228.191 874.778 237.964C884.578 247.764 898.127 252.8 914.942 252.8V248.8ZM916.942 112C931.397 112 942.126 115.703 949.791 123.227C957.495 130.789 962.389 142.487 964.559 159.06L968.525 158.54C966.296 141.513 961.189 128.811 952.593 120.373C943.958 111.897 932.087 108 916.942 108V112ZM966.542 156.8H860.542V160.8H966.542V156.8ZM862.512 159.145C865.26 143.442 871.104 131.715 880.011 123.904C888.906 116.103 901.092 112 916.942 112V108C900.393 108 887.179 112.297 877.374 120.896C867.58 129.485 861.424 142.158 858.572 158.455L862.512 159.145ZM1102.37 85.2L1103.41 86.9084L1103.46 86.8778L1103.51 86.8444L1102.37 85.2ZM1080.77 108.4H1078.77V116.003L1082.51 109.384L1080.77 108.4ZM1080.77 74H1082.77V72H1080.77V74ZM1037.97 74V72H1035.97V74H1037.97ZM1037.97 290H1035.97V292H1037.97V290ZM1086.37 290V292H1088.37V290H1086.37ZM1114.77 124L1115.73 125.752L1115.74 125.746L1114.77 124ZM1159.57 118.8L1159.03 120.725L1161.57 121.44V118.8H1159.57ZM1159.57 74H1161.57V72.3057L1159.9 72.0272L1159.57 74ZM1101.33 83.4916C1091.77 89.3099 1084.35 97.9951 1079.03 107.416L1082.51 109.384C1087.58 100.405 1094.57 92.2901 1103.41 86.9084L1101.33 83.4916ZM1082.77 108.4V74H1078.77V108.4H1082.77ZM1080.77 72H1037.97V76H1080.77V72ZM1035.97 74V290H1039.97V74H1035.97ZM1037.97 292H1086.37V288H1037.97V292ZM1088.37 290V180.4H1084.37V290H1088.37ZM1088.37 180.4C1088.37 155.656 1096.98 136.085 1115.73 125.752L1113.8 122.248C1093.36 133.515 1084.37 154.744 1084.37 180.4H1088.37ZM1115.74 125.746C1128.84 118.427 1146.69 117.255 1159.03 120.725L1160.11 116.875C1146.85 113.145 1127.9 114.373 1113.79 122.254L1115.74 125.746ZM1161.57 118.8V74H1157.57V118.8H1161.57ZM1159.9 72.0272C1140.29 68.7596 1117.34 72.4026 1101.23 83.5556L1103.51 86.8444C1118.6 76.3974 1140.44 72.8403 1159.24 75.9728L1159.9 72.0272ZM1238.93 111.6V109.6H1236.93V111.6H1238.93ZM1302.53 111.6V113.6H1304.53V111.6H1302.53ZM1302.53 74H1304.53V72H1302.53V74ZM1238.93 74H1236.93V76H1238.93V74ZM1238.93 14H1240.93V12H1238.93V14ZM1190.93 14V12H1188.93V14H1190.93ZM1190.93 74V76H1192.93V74H1190.93ZM1151.73 74V72H1149.73V74H1151.73ZM1151.73 111.6H1149.73V113.6H1151.73V111.6ZM1190.93 111.6H1192.93V109.6H1190.93V111.6ZM1199.33 263.6L1197.57 264.539L1197.57 264.548L1197.58 264.558L1199.33 263.6ZM1302.53 290L1302.92 291.963L1304.53 291.646V290H1302.53ZM1302.53 249.6H1304.53V247.284L1302.24 247.621L1302.53 249.6ZM1243.33 238L1245.04 236.952L1245.03 236.947L1243.33 238ZM1238.93 113.6H1302.53V109.6H1238.93V113.6ZM1304.53 111.6V74H1300.53V111.6H1304.53ZM1302.53 72H1238.93V76H1302.53V72ZM1240.93 74V14H1236.93V74H1240.93ZM1238.93 12H1190.93V16H1238.93V12ZM1188.93 14V74H1192.93V14H1188.93ZM1190.93 72H1151.73V76H1190.93V72ZM1149.73 74V111.6H1153.73V74H1149.73ZM1151.73 113.6H1190.93V109.6H1151.73V113.6ZM1188.93 111.6V201.6H1192.93V111.6H1188.93ZM1188.93 201.6C1188.93 226.149 1187.27 245.188 1197.57 264.539L1201.1 262.661C1191.39 244.412 1192.93 226.651 1192.93 201.6H1188.93ZM1197.58 264.558C1206.35 280.633 1222.06 289.582 1240.78 293.458C1259.48 297.331 1281.36 296.193 1302.92 291.963L1302.15 288.037C1280.9 292.207 1259.59 293.269 1241.59 289.542C1223.61 285.818 1209.12 277.367 1201.09 262.642L1197.58 264.558ZM1304.53 290V249.6H1300.53V290H1304.53ZM1302.24 247.621C1288.68 249.616 1276.51 250.577 1266.61 249.17C1256.76 247.769 1249.42 244.067 1245.04 236.952L1241.63 239.048C1246.85 247.533 1255.51 251.631 1266.05 253.13C1276.55 254.623 1289.19 253.584 1302.82 251.579L1302.24 247.621ZM1245.03 236.947C1242.7 233.172 1241.62 228.073 1241.18 221.613C1240.73 215.154 1240.93 207.683 1240.93 199.2H1236.93C1236.93 207.517 1236.73 215.246 1237.19 221.887C1237.64 228.527 1238.77 234.428 1241.63 239.053L1245.03 236.947ZM1240.93 199.2V111.6H1236.93V199.2H1240.93ZM1466.52 74V72H1465.14L1464.65 73.2924L1466.52 74ZM1408.12 228.4L1406.26 229.129L1408.15 233.97L1409.99 229.108L1408.12 228.4ZM1347.72 74L1349.58 73.2714L1349.09 72H1347.72V74ZM1297.72 74V72H1294.75L1295.87 74.7523L1297.72 74ZM1384.92 288.8L1386.8 289.488L1387.06 288.763L1386.77 288.048L1384.92 288.8ZM1349.32 386L1347.44 385.312L1346.46 388H1349.32V386ZM1394.52 386V388H1395.89L1396.39 386.72L1394.52 386ZM1514.92 74L1516.79 74.72L1517.84 72H1514.92V74ZM1464.65 73.2924L1406.25 227.692L1409.99 229.108L1468.39 74.7076L1464.65 73.2924ZM1409.98 227.671L1349.58 73.2714L1345.86 74.7286L1406.26 229.129L1409.98 227.671ZM1347.72 72H1297.72V76H1347.72V72ZM1295.87 74.7523L1383.07 289.552L1386.77 288.048L1299.57 73.2477L1295.87 74.7523ZM1383.04 288.112L1347.44 385.312L1351.2 386.688L1386.8 289.488L1383.04 288.112ZM1349.32 388H1394.52V384H1349.32V388ZM1396.39 386.72L1516.79 74.72L1513.05 73.28L1392.65 385.28L1396.39 386.72ZM1514.92 72H1466.52V76H1514.92V72Z" fill="#D9D9D9"/>
</svg>
