<svg width="270" height="239" viewBox="0 0 270 239" fill="none" xmlns="http://www.w3.org/2000/svg">
<path d="M165.622 204.735L164.068 203.476L164.058 203.488L164.048 203.501L165.622 204.735ZM134.372 228.797L133.577 226.962L133.565 226.967L134.372 228.797ZM53.7468 228.797L52.9261 230.621L52.9443 230.629L52.9626 230.637L53.7468 228.797ZM22.4968 204.735L20.927 205.974L20.9351 205.984L22.4968 204.735ZM7.80933 177.86L9.69458 177.192L7.80933 177.86ZM2.49683 7.54736L2.48233 5.54741L0.496826 5.5618V7.54736H2.49683ZM45.6218 7.23485H47.6218V5.2203L45.6073 5.2349L45.6218 7.23485ZM55.3093 178.172L53.6623 179.307L53.6979 179.359L53.7367 179.408L55.3093 178.172ZM72.4968 191.922L71.6243 193.722L71.6347 193.727L71.6452 193.732L72.4968 191.922ZM132.809 177.86L131.214 176.654L131.202 176.67L131.189 176.687L132.809 177.86ZM142.497 7.23485V5.23485H140.497V7.23485H142.497ZM185.622 7.23485H187.622V5.23485H185.622V7.23485ZM183.622 147.86C183.622 168.866 177.109 187.379 164.068 203.476L167.176 205.994C180.802 189.174 187.622 169.77 187.622 147.86H183.622ZM164.048 203.501C155.922 213.861 145.774 221.677 133.577 226.962L135.167 230.632C147.97 225.085 158.655 216.859 167.196 205.969L164.048 203.501ZM133.565 226.967C121.545 232.264 108.489 234.922 94.3718 234.922V238.922C109.005 238.922 122.615 236.164 135.178 230.628L133.565 226.967ZM94.3718 234.922C80.2552 234.922 66.9814 232.264 54.531 226.958L52.9626 230.637C65.929 236.164 79.7385 238.922 94.3718 238.922V234.922ZM54.5676 226.974C42.3483 221.475 32.1883 213.648 24.0586 203.485L20.9351 205.984C29.472 216.655 40.1453 224.87 52.9261 230.621L54.5676 226.974ZM24.0666 203.496C17.9593 195.76 13.1669 186.996 9.69458 177.192L5.92407 178.528C9.53507 188.723 14.5344 197.877 20.9271 205.974L24.0666 203.496ZM9.69458 177.192C6.2242 167.393 4.49683 157.619 4.49683 147.86H0.496826C0.496826 158.101 2.31112 168.326 5.92407 178.528L9.69458 177.192ZM4.49683 147.86V7.54736H0.496826V147.86H4.49683ZM2.51132 9.5473L45.6363 9.23479L45.6073 5.2349L2.48233 5.54741L2.51132 9.5473ZM43.6218 7.23485V147.235H47.6218V7.23485H43.6218ZM43.6218 147.235C43.6218 158.895 46.977 169.603 53.6623 179.307L56.9563 177.038C50.725 167.992 47.6218 158.074 47.6218 147.235H43.6218ZM53.7367 179.408C58.5133 185.487 64.4846 190.26 71.6243 193.722L73.3694 190.123C66.7591 186.918 61.2721 182.524 56.882 176.937L53.7367 179.408ZM71.6452 193.732C78.983 197.185 86.5645 198.922 94.3718 198.922V194.922C87.1792 194.922 80.1773 193.326 73.3484 190.113L71.6452 193.732ZM94.3718 198.922C102.18 198.922 109.665 197.185 116.807 193.722L115.062 190.123C108.453 193.327 101.564 194.922 94.3718 194.922V198.922ZM116.807 193.722C123.971 190.248 129.856 185.349 134.429 179.033L131.189 176.687C127.013 182.454 121.647 186.93 115.062 190.123L116.807 193.722ZM134.405 179.066C141.154 170.139 144.497 159.495 144.497 147.235H140.497C140.497 158.724 137.381 168.497 131.214 176.654L134.405 179.066ZM144.497 147.235V7.23485H140.497V147.235H144.497ZM142.497 9.23485H185.622V5.23485H142.497V9.23485ZM183.622 7.23485V147.86H187.622V7.23485H183.622ZM710.481 75.9848L708.681 76.856L709.401 78.345L710.999 77.9166L710.481 75.9848ZM701.419 60.6723L702.997 59.4445L701.419 60.6723ZM689.544 50.6724L688.491 52.3729L688.513 52.3867L688.536 52.3999L689.544 50.6724ZM635.794 48.7973L634.757 47.0869L634.751 47.0908L635.794 48.7973ZM627.044 57.2348L625.348 56.1749L625.323 56.2141L625.301 56.2543L627.044 57.2348ZM628.606 78.1723L630.06 76.7991L630.041 76.7783L630.02 76.7581L628.606 78.1723ZM654.231 90.0474L653.643 91.9589L653.66 91.9642L653.678 91.9692L654.231 90.0474ZM693.294 101.297L693.854 99.3773L693.847 99.3755L693.294 101.297ZM717.669 110.672L716.728 112.437L716.762 112.456L716.798 112.473L717.669 110.672ZM734.856 122.547L733.472 123.991L733.48 123.998L733.487 124.005L734.856 122.547ZM750.481 144.422L752.315 143.623V143.623L750.481 144.422ZM747.981 199.422L749.738 200.377L747.981 199.422ZM726.731 222.547L725.64 220.871L725.631 220.877L725.622 220.883L726.731 222.547ZM699.544 233.797L699.136 231.839L699.128 231.841L699.544 233.797ZM622.669 230.047L621.942 231.911L621.961 231.918L621.98 231.925L622.669 230.047ZM591.106 206.61L589.547 207.863L589.55 207.867L591.106 206.61ZM570.794 162.86L570.276 160.928L568.398 161.432L568.848 163.323L570.794 162.86ZM613.919 151.297L615.889 150.952L615.511 148.8L613.401 149.366L613.919 151.297ZM625.169 179.11L626.769 177.91L626.745 177.879L626.721 177.849L625.169 179.11ZM642.981 192.547L642.212 194.394L642.221 194.397L642.23 194.401L642.981 192.547ZM685.794 194.735L686.293 196.671L686.314 196.666L686.335 196.66L685.794 194.735ZM701.731 187.547L700.558 185.927L700.551 185.932L700.545 185.937L701.731 187.547ZM703.919 153.485L702.606 154.994L702.611 154.999L703.919 153.485ZM683.919 143.485L684.481 141.565L684.478 141.565L683.919 143.485ZM642.044 131.297L642.603 129.377L642.588 129.373L642.574 129.369L642.044 131.297ZM598.919 110.36L600.251 108.869L600.228 108.848L600.204 108.827L598.919 110.36ZM584.231 90.6724L582.378 91.4238L582.386 91.4451L582.396 91.4662L584.231 90.6724ZM616.106 11.2974L615.294 9.4697L615.284 9.47418L616.106 11.2974ZM638.606 4.42236L638.286 2.44812L638.277 2.44956L638.606 4.42236ZM663.606 2.54735L663.651 0.547836L663.628 0.547348H663.606V2.54735ZM710.794 13.4849L711.749 11.7276L711.745 11.7258L710.794 13.4849ZM736.106 34.4224L734.57 35.7027L734.577 35.7119L734.585 35.7209L736.106 34.4224ZM753.606 64.4223L754.124 66.3541L756.265 65.78L755.475 63.7089L753.606 64.4223ZM712.282 75.1137C709.123 68.5861 706.032 63.3461 702.997 59.4445L699.84 61.9002C702.639 65.4986 705.589 70.467 708.681 76.856L712.282 75.1137ZM702.997 59.4445C699.894 55.4542 695.725 51.9628 690.551 48.9448L688.536 52.3999C693.362 55.2153 697.11 58.3905 699.84 61.9002L702.997 59.4445ZM690.596 48.9718C681.533 43.3611 671.69 40.5474 661.106 40.5474V44.5474C670.939 44.5474 680.055 47.1503 688.491 52.3729L690.596 48.9718ZM661.106 40.5474C650.829 40.5474 642.013 42.6897 634.757 47.087L636.83 50.5078C643.325 46.5717 651.383 44.5474 661.106 44.5474V40.5474ZM634.751 47.0908C630.767 49.525 627.614 52.5485 625.348 56.1749L628.74 58.2948C630.64 55.2545 633.32 52.653 636.837 50.5039L634.751 47.0908ZM625.301 56.2543C623.271 59.8624 622.231 63.635 622.231 67.5473H626.231C626.231 64.3763 627.066 61.274 628.787 58.2154L625.301 56.2543ZM622.231 67.5473C622.231 72.2384 623.896 76.2906 627.192 79.5866L630.02 76.7581C627.483 74.2208 626.231 71.1896 626.231 67.5473H622.231ZM627.152 79.5456C629.187 81.6999 632.485 83.7556 636.828 85.7682C641.21 87.7992 646.824 89.8608 653.643 91.9589L654.819 88.1358C648.096 86.0672 642.669 84.0664 638.51 82.139C634.311 80.1933 631.567 78.3948 630.06 76.7991L627.152 79.5456ZM653.678 91.9692L692.74 103.219L693.847 99.3755L654.785 88.1255L653.678 91.9692ZM692.734 103.217C702.657 106.112 710.641 109.191 716.728 112.437L718.61 108.908C712.196 105.487 703.93 102.316 693.854 99.3774L692.734 103.217ZM716.798 112.473C723.074 115.51 728.629 119.35 733.472 123.991L736.24 121.103C731.083 116.162 725.18 112.085 718.54 108.872L716.798 112.473ZM733.487 124.005C740.177 130.29 745.221 137.361 748.648 145.222L752.315 143.623C748.658 135.234 743.285 127.722 736.226 121.09L733.487 124.005ZM748.648 145.222C752.076 153.086 753.794 161.459 753.794 170.36H757.794C757.794 160.928 755.97 152.009 752.315 143.623L748.648 145.222ZM753.794 170.36C753.794 179.781 751.291 189.143 746.224 198.467L749.738 200.377C755.088 190.535 757.794 180.522 757.794 170.36H753.794ZM746.224 198.467C741.171 207.765 734.314 215.223 725.64 220.871L727.823 224.223C737.065 218.205 744.375 210.246 749.738 200.377L746.224 198.467ZM725.622 220.883C717.719 226.152 708.897 229.806 699.136 231.839L699.952 235.755C710.19 233.622 719.493 229.777 727.841 224.211L725.622 220.883ZM699.128 231.841C689.507 233.888 678.194 234.922 665.169 234.922V238.922C678.393 238.922 689.997 237.873 699.96 235.754L699.128 231.841ZM665.169 234.922C649.527 234.922 635.599 232.658 623.357 228.17L621.98 231.925C634.738 236.603 649.144 238.922 665.169 238.922V234.922ZM623.395 228.184C611.446 223.526 601.206 215.931 592.662 205.353L589.55 207.867C598.507 218.955 609.308 226.985 621.942 231.911L623.395 228.184ZM592.665 205.357C583.51 193.964 576.851 179.665 572.739 162.397L568.848 163.323C573.07 181.054 579.953 195.923 589.547 207.863L592.665 205.357ZM571.312 164.792L614.437 153.229L613.401 149.366L570.276 160.928L571.312 164.792ZM611.949 151.643C614.069 163.725 617.915 173.354 623.616 180.371L626.721 177.849C621.589 171.532 617.936 162.619 615.889 150.952L611.949 151.643ZM623.569 180.31C628.182 186.461 634.421 191.147 642.212 194.394L643.75 190.701C636.541 187.697 630.906 183.426 626.769 177.91L623.569 180.31ZM642.23 194.401C650.171 197.62 658.342 199.235 666.731 199.235V195.235C658.87 195.235 651.208 193.724 643.733 190.694L642.23 194.401ZM666.731 199.235C673.161 199.235 679.683 198.377 686.293 196.671L685.294 192.798C678.988 194.426 672.802 195.235 666.731 195.235V199.235ZM686.335 196.66C693.147 194.744 698.703 192.263 702.918 189.157L700.545 185.937C696.842 188.665 691.774 190.975 685.252 192.81L686.335 196.66ZM702.904 189.167C709.502 184.39 712.794 177.622 712.794 169.11H708.794C708.794 176.431 706.044 181.955 700.558 185.927L702.904 189.167ZM712.794 169.11C712.794 162.114 710.281 156.337 705.226 151.971L702.611 154.999C706.723 158.549 708.794 163.189 708.794 169.11H712.794ZM705.231 151.976C700.153 147.56 693.195 144.116 684.481 141.565L683.357 145.404C691.726 147.854 698.101 151.077 702.606 154.994L705.231 151.976ZM684.478 141.565L642.603 129.377L641.485 133.218L683.36 145.405L684.478 141.565ZM642.574 129.369C623.777 124.205 609.727 117.336 600.251 108.869L597.586 111.851C607.694 120.884 622.393 127.973 641.514 133.226L642.574 129.369ZM600.204 108.827C593.983 103.61 589.276 97.3001 586.067 89.8785L582.396 91.4662C585.853 99.4613 590.938 106.276 597.633 111.892L600.204 108.827ZM586.085 89.9209C583.057 82.4518 581.544 74.6861 581.544 66.6098H577.544C577.544 75.2003 579.156 83.4763 582.378 91.4238L586.085 89.9209ZM581.544 66.6098C581.544 54.933 584.857 44.2861 591.504 34.6179L588.208 32.3518C581.105 42.6837 577.544 54.1201 577.544 66.6098H581.544ZM591.504 34.6179C598.181 24.9061 606.651 17.7556 616.928 13.1205L615.284 9.47418C604.312 14.4224 595.281 22.0636 588.208 32.3518L591.504 34.6179ZM616.918 13.125C624.276 9.85486 631.614 7.61526 638.935 6.39514L638.277 2.44956C630.598 3.72945 622.936 6.0732 615.294 9.46973L616.918 13.125ZM638.926 6.39656C646.515 5.16601 654.74 4.54735 663.606 4.54735V0.547348C654.556 0.547348 646.114 1.17869 638.286 2.44814L638.926 6.39656ZM663.562 4.54685C682.086 4.9585 697.483 8.55809 709.842 15.2439L711.745 11.7258C698.687 4.66161 682.626 0.969528 663.651 0.547836L663.562 4.54685ZM709.839 15.2421C719.19 20.3243 727.433 27.1383 734.57 35.7027L737.643 33.142C730.196 24.2064 721.564 17.062 711.749 11.7276L709.839 15.2421ZM734.585 35.7209C741.715 44.0735 747.437 53.8712 751.738 65.1358L755.475 63.7089C751.026 52.0568 745.08 41.8546 737.627 33.1238L734.585 35.7209ZM753.088 62.4906L709.963 74.0531L710.999 77.9166L754.124 66.3541L753.088 62.4906Z" fill="#D9D9D9"/>
</svg>
