<svg width="273" height="293" viewBox="0 0 273 293" fill="none" xmlns="http://www.w3.org/2000/svg">
<path d="M176 2.23486H178V0.234856H176V2.23486ZM139.4 2.23486V0.234856H137.4V2.23486H139.4ZM38.6 2.23486H40.6V0.218391L38.5836 0.234924L38.6 2.23486ZM2 2.53485L1.98361 0.53492L0 0.551178V2.53485H2ZM89 224.735C115.234 224.735 137.51 216.263 153.239 201.074C168.976 185.876 178 164.109 178 137.835H174C174 163.161 165.324 183.843 150.461 198.196C135.59 212.557 114.366 220.735 89 220.735V224.735ZM178 137.835V2.23486H174V137.835H178ZM176 0.234856H139.4V4.23486H176V0.234856ZM137.4 2.23486V136.935H141.4V2.23486H137.4ZM137.4 136.935C137.4 167.869 114.658 186.835 89 186.835V190.835C116.742 190.835 141.4 170.201 141.4 136.935H137.4ZM89 186.835C63.6181 186.835 40.6 168.446 40.6 136.935H36.6C36.6 170.824 61.5819 190.835 89 190.835V186.835ZM40.6 136.935V2.23486H36.6V136.935H40.6ZM38.5836 0.234924L1.98361 0.53492L2.01639 4.53478L38.6164 4.23479L38.5836 0.234924ZM0 2.53485V137.835H4V2.53485H0ZM0 137.835C0 164.109 9.02359 185.876 24.7607 201.074C40.4901 216.263 62.7659 224.735 89 224.735V220.735C63.6341 220.735 42.4099 212.557 27.5393 198.196C12.6764 183.843 4 163.161 4 137.835H0ZM233.218 67.6349H231.218V72.108L234.552 69.1253L233.218 67.6349ZM233.218 56.2349H235.218V54.2349H233.218V56.2349ZM201.118 56.2349V54.2349H199.118V56.2349H201.118ZM201.118 290.235H199.118V292.235H201.118V290.235ZM237.418 290.235V292.235H239.418V290.235H237.418ZM237.418 209.835L238.597 208.219L235.418 205.9V209.835H237.418ZM277.918 49.7349C259.178 49.7349 243.688 55.5832 231.884 66.1444L234.552 69.1253C245.548 59.2865 260.058 53.7349 277.918 53.7349V49.7349ZM235.218 67.6349V56.2349H231.218V67.6349H235.218ZM233.218 54.2349H201.118V58.2349H233.218V54.2349ZM199.118 56.2349V290.235H203.118V56.2349H199.118ZM201.118 292.235H237.418V288.235H201.118V292.235ZM239.418 290.235V209.835H235.418V290.235H239.418ZM236.239 211.45C247.696 219.811 261.913 224.735 279.118 224.735V220.735C262.723 220.735 249.34 216.059 238.597 208.219L236.239 211.45ZM279.118 224.735C302.21 224.735 321.294 215.248 334.572 199.499C347.826 183.779 355.218 161.923 355.218 137.235H351.218C351.218 161.147 344.06 182.041 331.514 196.921C318.992 211.772 301.026 220.735 279.118 220.735V224.735ZM355.218 137.235C355.218 112.246 347.751 90.3818 334.297 74.7311C320.82 59.0529 301.436 49.7349 277.918 49.7349V53.7349C300.3 53.7349 318.566 62.5669 331.264 77.3386C343.985 92.1379 351.218 113.023 351.218 137.235H355.218ZM273.718 188.335C259.737 188.335 250.265 183.188 244.198 174.456C238.045 165.6 235.218 152.8 235.218 137.235H231.218C231.218 153.169 234.091 166.92 240.913 176.739C247.821 186.681 258.599 192.335 273.718 192.335V188.335ZM235.218 137.235C235.218 121.68 238.116 108.868 244.17 100C250.142 91.2518 259.325 86.1349 272.518 86.1349V82.1349C258.111 82.1349 247.643 87.8179 240.866 97.7447C234.17 107.552 231.218 121.29 231.218 137.235H235.218ZM272.518 86.1349C286.448 86.1349 296.49 91.7694 303.115 100.84C309.8 109.99 313.118 122.804 313.118 137.235H317.118C317.118 122.265 313.686 108.529 306.345 98.4801C298.946 88.3503 287.688 82.1349 272.518 82.1349V86.1349ZM313.118 137.235C313.118 151.827 309.87 164.647 303.365 173.76C296.921 182.789 287.181 188.335 273.718 188.335V192.335C288.454 192.335 299.415 186.18 306.621 176.084C313.766 166.073 317.118 152.343 317.118 137.235H313.118ZM442.473 122.235L442.979 120.3L442.972 120.298L442.965 120.296L442.473 122.235ZM426.573 82.9349L426.708 80.9394L426.676 80.9373L426.644 80.9361L426.573 82.9349ZM457.173 106.035L455.19 106.299L455.467 108.372L457.525 108.004L457.173 106.035ZM494.073 99.4349L494.425 101.404L496.309 101.067L496.055 99.1692L494.073 99.4349ZM417.273 148.635L416.761 150.568L416.765 150.569L417.273 148.635ZM393.873 165.435L395.825 165.001L395.419 163.172L393.567 163.458L393.873 165.435ZM356.973 171.135L356.667 169.158L354.67 169.467L354.999 171.461L356.973 171.135ZM428.673 224.735C449.811 224.735 466.951 219.719 478.85 210.317C490.808 200.868 497.273 187.143 497.273 170.235H493.273C493.273 186.027 487.287 198.552 476.37 207.178C465.395 215.851 449.234 220.735 428.673 220.735V224.735ZM497.273 170.235C497.273 157.209 493.677 147.168 484.844 139.131C476.145 131.215 462.547 125.418 442.979 120.3L441.967 124.17C461.398 129.252 474.201 134.854 482.152 142.089C489.969 149.202 493.273 158.061 493.273 170.235H497.273ZM442.965 120.296C423.998 115.479 413.217 112.306 407.159 109.205C404.168 107.673 402.538 106.26 401.622 104.857C400.728 103.488 400.373 101.911 400.373 99.7349H396.373C396.373 102.359 396.805 104.795 398.273 107.044C399.72 109.26 402.027 111.071 405.336 112.765C411.879 116.114 423.147 119.39 441.98 124.173L442.965 120.296ZM400.373 99.7349C400.373 95.1619 402.738 91.4123 407.19 88.7817C411.708 86.1121 418.343 84.6422 426.501 84.9336L426.644 80.9361C418.003 80.6275 410.537 82.1576 405.155 85.338C399.707 88.5574 396.373 93.5078 396.373 99.7349H400.373ZM426.437 84.9303C435.019 85.5121 441.811 87.8281 446.63 91.4682C451.411 95.0797 454.36 100.073 455.19 106.299L459.155 105.771C458.185 98.4969 454.685 92.54 449.041 88.2765C443.434 84.0416 435.826 81.5576 426.708 80.9394L426.437 84.9303ZM457.525 108.004L494.425 101.404L493.721 97.4661L456.821 104.066L457.525 108.004ZM496.055 99.1692C491.975 68.7241 464.373 49.7349 425.973 49.7349V53.7349C463.172 53.7349 488.371 71.9456 492.09 99.7005L496.055 99.1692ZM425.973 49.7349C406.309 49.7349 389.934 54.6874 378.427 63.6977C366.872 72.7457 360.373 85.7805 360.373 101.535H364.373C364.373 86.9892 370.323 75.124 380.893 66.847C391.512 58.5324 406.936 53.7349 425.973 53.7349V49.7349ZM360.373 101.535C360.373 114.156 364.074 123.831 373.222 131.666C382.211 139.366 396.314 145.156 416.761 150.568L417.784 146.701C397.431 141.314 384.085 135.704 375.824 128.628C367.722 121.689 364.373 113.214 364.373 101.535H360.373ZM416.765 150.569C435.163 155.395 445.136 158.407 450.554 161.508C453.188 163.015 454.551 164.442 455.313 165.949C456.094 167.492 456.373 169.363 456.373 172.035H460.373C460.373 169.157 460.089 166.528 458.882 164.143C457.657 161.722 455.608 159.792 452.541 158.037C446.559 154.613 435.982 151.475 417.78 146.7L416.765 150.569ZM456.373 172.035C456.373 177.387 454.137 181.576 449.984 184.499C445.749 187.481 439.379 189.235 431.073 189.235V193.235C439.866 193.235 447.146 191.389 452.286 187.77C457.508 184.094 460.373 178.683 460.373 172.035H456.373ZM431.073 189.235C421.488 189.235 413.51 186.912 407.538 182.767C401.589 178.637 397.519 172.625 395.825 165.001L391.92 165.869C393.826 174.444 398.457 181.332 405.257 186.053C412.036 190.758 420.857 193.235 431.073 193.235V189.235ZM393.567 163.458L356.667 169.158L357.278 173.111L394.178 167.411L393.567 163.458ZM354.999 171.461C357.779 188.294 365.919 201.676 378.603 210.82C391.255 219.94 408.273 224.735 428.673 224.735V220.735C408.873 220.735 392.741 216.08 380.942 207.575C369.176 199.093 361.566 186.676 358.946 170.809L354.999 171.461ZM559.47 84.4349V82.4349H557.47V84.4349H559.47ZM607.17 84.4349V86.4349H609.17V84.4349H607.17ZM607.17 56.2349H609.17V54.2349H607.17V56.2349ZM559.47 56.2349H557.47V58.2349H559.47V56.2349ZM559.47 11.2348H561.47V9.23485H559.47V11.2348ZM523.47 11.2348V9.23485H521.47V11.2348H523.47ZM523.47 56.2349V58.2349H525.47V56.2349H523.47ZM494.07 56.2349V54.2349H492.07V56.2349H494.07ZM494.07 84.4349H492.07V86.4349H494.07V84.4349ZM523.47 84.4349H525.47V82.4349H523.47V84.4349ZM529.77 198.435L528.005 199.374L528.01 199.383L528.015 199.393L529.77 198.435ZM607.17 218.235L607.555 220.197L609.17 219.88V218.235H607.17ZM607.17 187.935H609.17V185.619L606.879 185.956L607.17 187.935ZM562.77 179.235L564.474 178.187L564.471 178.182L562.77 179.235ZM559.47 86.4349H607.17V82.4349H559.47V86.4349ZM609.17 84.4349V56.2349H605.17V84.4349H609.17ZM607.17 54.2349H559.47V58.2349H607.17V54.2349ZM561.47 56.2349V11.2348H557.47V56.2349H561.47ZM559.47 9.23485H523.47V13.2348H559.47V9.23485ZM521.47 11.2348V56.2349H525.47V11.2348H521.47ZM523.47 54.2349H494.07V58.2349H523.47V54.2349ZM492.07 56.2349V84.4349H496.07V56.2349H492.07ZM494.07 86.4349H523.47V82.4349H494.07V86.4349ZM521.47 84.4349V151.935H525.47V84.4349H521.47ZM521.47 151.935C521.47 170.284 520.211 184.723 528.005 199.374L531.536 197.496C524.329 183.947 525.47 170.786 525.47 151.935H521.47ZM528.015 199.393C534.683 211.618 546.62 218.392 560.752 221.318C574.864 224.241 591.351 223.378 607.555 220.197L606.785 216.272C590.89 219.392 574.977 220.179 561.563 217.401C548.171 214.628 537.458 208.352 531.526 197.477L528.015 199.393ZM609.17 218.235V187.935H605.17V218.235H609.17ZM606.879 185.956C596.713 187.451 587.652 188.162 580.302 187.117C572.997 186.079 567.652 183.352 564.474 178.187L561.067 180.283C565.088 186.818 571.744 189.941 579.739 191.077C587.689 192.208 597.228 191.418 607.461 189.914L606.879 185.956ZM564.471 178.182C562.784 175.457 561.984 171.733 561.653 166.91C561.322 162.089 561.47 156.518 561.47 150.135H557.47C557.47 156.352 557.319 162.181 557.663 167.184C558.006 172.187 558.857 176.713 561.07 180.288L564.471 178.182ZM561.47 150.135V84.4349H557.47V150.135H561.47ZM646.859 147.435V145.435H644.647L644.87 147.636L646.859 147.435ZM763.859 147.435V149.435H765.721L765.854 147.578L763.859 147.435ZM762.059 176.535L763.904 177.307L764.76 175.262L762.638 174.621L762.059 176.535ZM726.359 165.735L726.938 163.821L725.271 163.316L724.542 164.899L726.359 165.735ZM727.259 119.835V121.835H729.538L729.242 119.575L727.259 119.835ZM647.759 119.835L645.789 119.49L645.379 121.835H647.759V119.835ZM646.859 149.435H763.859V145.435H646.859V149.435ZM765.854 147.578C767.979 117.987 761.623 93.521 748.143 76.4097C734.628 59.2543 714.139 49.7349 688.559 49.7349V53.7349C713.079 53.7349 732.341 62.8154 745.001 78.885C757.695 94.9987 763.94 118.383 761.865 147.292L765.854 147.578ZM688.559 49.7349C664.211 49.7349 643.489 58.4754 628.862 74.1058C614.244 89.7259 605.859 112.069 605.859 139.035H609.859C609.859 112.9 617.974 91.5938 631.782 76.8389C645.58 62.0943 665.207 53.7349 688.559 53.7349V49.7349ZM605.859 139.035C605.859 164.099 614.425 185.547 629.345 200.736C644.268 215.929 665.424 224.735 690.359 224.735V220.735C666.395 220.735 646.301 212.291 632.199 197.933C618.093 183.573 609.859 163.17 609.859 139.035H605.859ZM690.359 224.735C722.59 224.735 751.265 207.518 763.904 177.307L760.214 175.763C748.254 204.352 721.129 220.735 690.359 220.735V224.735ZM762.638 174.621L726.938 163.821L725.78 167.649L761.48 178.449L762.638 174.621ZM724.542 164.899C717.996 179.131 705.545 186.835 688.559 186.835V190.835C706.973 190.835 720.923 182.339 728.176 166.571L724.542 164.899ZM688.559 186.835C676.674 186.835 667.474 183.296 660.911 176.733C654.322 170.144 650.169 160.283 648.849 147.234L644.87 147.636C646.25 161.286 650.647 172.126 658.083 179.562C665.545 187.024 675.844 190.835 688.559 190.835V186.835ZM690.059 85.2349C700.815 85.2349 708.718 87.9881 714.346 93.5121C720.012 99.0744 723.656 107.722 725.276 120.095L729.242 119.575C727.563 106.748 723.706 97.0954 717.148 90.6576C710.551 84.1817 701.504 81.2349 690.059 81.2349V85.2349ZM727.259 117.835H647.759V121.835H727.259V117.835ZM649.729 120.18C651.777 108.477 656.121 99.7999 662.691 94.0385C669.248 88.2879 678.259 85.2349 690.059 85.2349V81.2349C677.56 81.2349 667.521 84.4818 660.053 91.0312C652.597 97.5699 647.941 107.193 645.789 119.49L649.729 120.18ZM905.698 81.7349L907.487 80.8404L907.482 80.8304L905.698 81.7349ZM774.598 97.0349L772.681 96.466L772.122 98.351L773.997 98.9423L774.598 97.0349ZM807.898 107.535L807.297 109.442L809.215 110.047L809.809 108.125L807.898 107.535ZM876.298 112.335L876.57 114.316L878.412 114.064L878.294 112.208L876.298 112.335ZM805.798 125.235L805.196 123.328L805.164 123.338L805.133 123.349L805.798 125.235ZM880.198 196.335H882.198V190.439L878.611 195.118L880.198 196.335ZM880.198 218.235H878.198V220.235H880.198V218.235ZM911.698 218.235V220.235H913.698V218.235H911.698ZM872.098 166.935L870.252 166.166L870.209 166.27L870.177 166.379L872.098 166.935ZM824.098 151.935L823.496 150.028L823.441 150.045L823.386 150.066L824.098 151.935ZM875.998 141.735L877.997 141.812L878.091 139.368L875.677 139.761L875.998 141.735ZM907.482 80.8304C896.184 58.5471 872.424 49.7349 843.298 49.7349V53.7349C871.773 53.7349 893.613 62.3226 903.915 82.6393L907.482 80.8304ZM843.298 49.7349C823.787 49.7349 808.213 54.31 796.443 62.5061C784.662 70.7102 776.843 82.4385 772.681 96.466L776.516 97.6038C780.454 84.3312 787.785 73.4095 798.729 65.7886C809.684 58.1597 824.41 53.7349 843.298 53.7349V49.7349ZM773.997 98.9423L807.297 109.442L808.5 105.627L775.2 95.1274L773.997 98.9423ZM809.809 108.125C814.547 92.7969 829.068 86.7349 842.998 86.7349V82.7349C828.129 82.7349 811.45 89.2728 805.988 106.944L809.809 108.125ZM842.998 86.7349C853.889 86.7349 861.357 88.8778 866.237 92.9786C871.069 97.0388 873.722 103.325 874.302 112.462L878.294 112.208C877.674 102.444 874.778 94.9309 868.81 89.9162C862.89 84.9419 854.307 82.7349 842.998 82.7349V86.7349ZM876.027 110.353C847.585 114.245 822.494 117.865 805.196 123.328L806.401 127.142C823.303 121.804 848.012 118.224 876.57 114.316L876.027 110.353ZM805.133 123.349C792.12 127.942 782.519 134.438 776.182 142.94C769.836 151.454 766.898 161.799 766.898 173.835H770.898C770.898 162.471 773.661 153.016 779.389 145.33C785.128 137.632 793.977 131.528 806.464 127.121L805.133 123.349ZM766.898 173.835C766.898 187.672 771.881 200.434 781.495 209.735C791.114 219.039 805.217 224.735 823.198 224.735V220.735C806.08 220.735 793.033 215.33 784.276 206.86C775.516 198.385 770.898 186.697 770.898 173.835H766.898ZM823.198 224.735C836.316 224.735 847.42 222.599 857.046 218.096C866.681 213.59 874.723 206.765 881.786 197.552L878.611 195.118C871.874 203.905 864.316 210.28 855.351 214.473C846.377 218.671 835.881 220.735 823.198 220.735V224.735ZM878.198 196.335V218.235H882.198V196.335H878.198ZM880.198 220.235H911.698V216.235H880.198V220.235ZM913.698 218.235V118.935H909.698V218.235H913.698ZM913.698 118.935C913.698 104.87 913.425 92.716 907.487 80.8404L903.91 82.6293C909.372 93.5537 909.698 104.799 909.698 118.935H913.698ZM870.177 166.379C867.115 176.956 854.074 191.935 830.398 191.935V195.935C855.922 195.935 870.481 179.714 874.02 167.491L870.177 166.379ZM830.398 191.935C822.169 191.935 816.148 189.842 812.22 186.552C808.328 183.292 806.298 178.7 806.298 173.235H802.298C802.298 179.769 804.768 185.528 809.652 189.618C814.499 193.678 821.528 195.935 830.398 195.935V191.935ZM806.298 173.235C806.298 168.676 807.881 165.048 810.903 161.958C813.987 158.806 818.63 156.158 824.81 153.804L823.386 150.066C816.967 152.511 811.71 155.414 808.044 159.161C804.316 162.972 802.298 167.594 802.298 173.235H806.298ZM824.701 153.842C835.928 150.296 850.452 147.92 876.32 143.709L875.677 139.761C849.945 143.95 835.069 146.373 823.496 150.028L824.701 153.842ZM874 141.658C873.697 149.525 873.09 159.354 870.252 166.166L873.945 167.704C877.107 160.115 877.7 149.545 877.997 141.812L874 141.658ZM1060.25 77.8349L1058.5 78.809L1060.16 81.771L1061.95 78.892L1060.25 77.8349ZM966.05 73.6349H964.05V79.3619L967.615 74.8799L966.05 73.6349ZM966.05 56.2349H968.05V54.2349H966.05V56.2349ZM933.95 56.2349V54.2349H931.95V56.2349H933.95ZM933.95 218.235H931.95V220.235H933.95V218.235ZM970.25 218.235V220.235H972.25V218.235H970.25ZM1031.75 120.135L1033.75 120.141V120.135H1031.75ZM1031.45 218.235L1029.45 218.229L1029.44 220.235H1031.45V218.235ZM1067.75 218.235V220.235H1069.75V218.235H1067.75ZM1128.95 218.235H1126.95V220.235H1128.95V218.235ZM1164.95 218.235V220.235H1166.95V218.235H1164.95ZM1109.45 50.3349C1087.84 50.3349 1068.86 60.2221 1058.55 76.7777L1061.95 78.892C1071.44 63.6476 1089.06 54.3349 1109.45 54.3349V50.3349ZM1062 76.8607C1052.91 60.5714 1036.31 50.3349 1012.85 50.3349V54.3349C1034.99 54.3349 1050.19 63.8983 1058.5 78.809L1062 76.8607ZM1012.85 50.3349C992.79 50.3349 975.394 58.6754 964.485 72.3898L967.615 74.8799C977.706 62.1943 993.91 54.3349 1012.85 54.3349V50.3349ZM968.05 73.6349V56.2349H964.05V73.6349H968.05ZM966.05 54.2349H933.95V58.2349H966.05V54.2349ZM931.95 56.2349V218.235H935.95V56.2349H931.95ZM933.95 220.235H970.25V216.235H933.95V220.235ZM972.25 218.235V118.635H968.25V218.235H972.25ZM972.25 118.635C972.25 108.832 975.202 100.786 980.179 95.2176C985.138 89.6687 992.233 86.4349 1000.85 86.4349V82.4349C991.167 82.4349 982.962 86.101 977.196 92.5521C971.448 98.9836 968.25 108.038 968.25 118.635H972.25ZM1000.85 86.4349C1009.79 86.4349 1016.94 89.6112 1021.88 95.2743C1026.85 100.968 1029.75 109.381 1029.75 120.135H1033.75C1033.75 108.689 1030.65 99.2513 1024.89 92.6454C1019.11 86.0085 1010.81 82.4349 1000.85 82.4349V86.4349ZM1029.75 120.129L1029.45 218.229L1033.45 218.241L1033.75 120.141L1029.75 120.129ZM1031.45 220.235H1067.75V216.235H1031.45V220.235ZM1069.75 218.235V118.635H1065.75V218.235H1069.75ZM1069.75 118.635C1069.75 108.245 1072.92 100.216 1077.99 94.8015C1083.05 89.3935 1090.15 86.4349 1098.35 86.4349V82.4349C1089.15 82.4349 1080.95 85.7762 1075.06 92.0682C1069.18 98.3541 1065.75 107.425 1065.75 118.635H1069.75ZM1098.35 86.4349C1107.15 86.4349 1114.22 89.5397 1119.12 95.1282C1124.05 100.746 1126.95 109.081 1126.95 119.835H1130.95C1130.95 108.388 1127.85 99.0235 1122.13 92.4915C1116.38 85.93 1108.15 82.4349 1098.35 82.4349V86.4349ZM1126.95 119.835V218.235H1130.95V119.835H1126.95ZM1128.95 220.235H1164.95V216.235H1128.95V220.235ZM1166.95 218.235V110.835H1162.95V218.235H1166.95ZM1166.95 110.835C1166.95 92.9204 1161.89 77.7651 1152.06 67.0687C1142.2 56.3488 1127.76 50.3349 1109.45 50.3349V54.3349C1126.84 54.3349 1140.15 60.0209 1149.12 69.776C1158.11 79.5546 1162.95 93.6493 1162.95 110.835H1166.95Z" fill="#D9D9D9"/>
</svg>
