<svg width="274" height="229" viewBox="0 0 274 229" fill="none" xmlns="http://www.w3.org/2000/svg">
<path d="M176.497 6.23486H178.497V4.23486H176.497V6.23486ZM139.897 6.23486V4.23486H137.897V6.23486H139.897ZM39.0968 6.23486H41.0968V4.21839L39.0804 4.23492L39.0968 6.23486ZM2.49683 6.53485L2.48043 4.53492L0.496826 4.55118V6.53485H2.49683ZM89.4968 228.735C115.731 228.735 138.007 220.263 153.736 205.074C169.473 189.876 178.497 168.109 178.497 141.835H174.497C174.497 167.161 165.82 187.843 150.958 202.196C136.087 216.557 114.863 224.735 89.4968 224.735V228.735ZM178.497 141.835V6.23486H174.497V141.835H178.497ZM176.497 4.23486H139.897V8.23486H176.497V4.23486ZM137.897 6.23486V140.935H141.897V6.23486H137.897ZM137.897 140.935C137.897 171.869 115.155 190.835 89.4968 190.835V194.835C117.239 194.835 141.897 174.201 141.897 140.935H137.897ZM89.4968 190.835C64.1149 190.835 41.0968 172.446 41.0968 140.935H37.0968C37.0968 174.824 62.0787 194.835 89.4968 194.835V190.835ZM41.0968 140.935V6.23486H37.0968V140.935H41.0968ZM39.0804 4.23492L2.48043 4.53492L2.51322 8.53478L39.1132 8.23479L39.0804 4.23492ZM0.496826 6.53485V141.835H4.49683V6.53485H0.496826ZM0.496826 141.835C0.496826 168.109 9.52041 189.876 25.2575 205.074C40.9869 220.263 63.2628 228.735 89.4968 228.735V224.735C64.1309 224.735 42.9068 216.557 28.0361 202.196C13.1732 187.843 4.49683 167.161 4.49683 141.835H0.496826ZM299.633 99.8349L300.182 97.9118L300.169 97.9081L300.156 97.9046L299.633 99.8349ZM260.933 89.3349L261.456 87.4046L261.456 87.4044L260.933 89.3349ZM270.233 35.9348L270.177 37.9341L270.191 37.9345L270.206 37.9347L270.233 35.9348ZM317.033 71.9348L315.076 72.3469L315.472 74.2275L317.366 73.9068L317.033 71.9348ZM356.033 65.3349L356.366 67.3068L358.49 66.9475L357.975 64.8566L356.033 65.3349ZM270.833 2.03486L270.819 4.03481L270.833 2.03486ZM239.933 120.535L239.364 122.452L239.375 122.456L239.933 120.535ZM295.733 136.735L296.333 134.827L296.312 134.82L296.29 134.814L295.733 136.735ZM221.033 152.635L222.976 152.16L222.542 150.385L220.735 150.657L221.033 152.635ZM183.233 158.335L182.935 156.357L180.933 156.659L181.259 158.657L183.233 158.335ZM272.933 228.735C295.29 228.735 316.88 223.036 332.938 211.483C349.061 199.884 359.533 182.423 359.533 159.235H355.533C355.533 181.047 345.755 197.335 330.602 208.236C315.386 219.184 294.675 224.735 272.933 224.735V228.735ZM359.533 159.235C359.533 137.086 349.953 123.163 337.645 114.088C325.461 105.104 310.637 100.899 300.182 97.9118L299.083 101.758C309.628 104.771 323.755 108.816 335.271 117.307C346.663 125.707 355.533 138.484 355.533 159.235H359.533ZM300.156 97.9046L261.456 87.4046L260.409 91.2651L299.109 101.765L300.156 97.9046ZM261.456 87.4044C254.263 85.4564 246.747 83.0486 241.045 79.2349C235.428 75.4785 231.733 70.4839 231.733 63.2348H227.733C227.733 72.1859 232.438 78.2912 238.821 82.5599C245.118 86.7711 253.203 89.3133 260.41 91.2653L261.456 87.4044ZM231.733 63.2348C231.733 55.6793 235.959 49.271 242.969 44.7395C249.998 40.1951 259.709 37.6433 270.177 37.9341L270.288 33.9356C259.156 33.6264 248.617 36.3247 240.797 41.3803C232.957 46.4487 227.733 53.9904 227.733 63.2348H231.733ZM270.206 37.9347C291.665 38.2247 310.506 50.6401 315.076 72.3469L318.99 71.5228C313.96 47.6296 293.201 34.2451 270.26 33.935L270.206 37.9347ZM317.366 73.9068L356.366 67.3068L355.699 63.3629L316.699 69.9629L317.366 73.9068ZM357.975 64.8566C352.925 44.3512 342.409 28.1819 327.447 17.1144C312.496 6.05527 293.238 0.187225 270.846 0.0349045L270.819 4.03481C292.528 4.18249 310.919 9.86444 325.068 20.3303C339.206 30.7878 349.241 46.1185 354.091 65.8131L357.975 64.8566ZM270.846 0.0349045C248.497 -0.117134 228.235 5.27526 213.505 16.1773C198.71 27.1283 189.633 43.549 189.633 65.0349H193.633C193.633 44.8207 202.106 29.5914 215.885 19.3924C229.731 9.14445 249.069 3.88685 270.819 4.03481L270.846 0.0349045ZM189.633 65.0349C189.633 84.6803 197.171 97.6758 207.272 106.445C217.284 115.138 229.706 119.585 239.364 122.452L240.502 118.618C230.959 115.785 219.231 111.531 209.894 103.425C200.644 95.3939 193.633 83.4894 193.633 65.0349H189.633ZM239.375 122.456L295.175 138.656L296.29 134.814L240.49 118.614L239.375 122.456ZM295.132 138.643C303.074 141.143 308.719 144.236 312.368 148.023C315.956 151.747 317.733 156.262 317.733 161.935H321.733C321.733 155.308 319.609 149.773 315.248 145.247C310.947 140.784 304.591 137.427 296.333 134.827L295.132 138.643ZM317.733 161.935C317.733 170.992 312.831 178.144 304.975 183.12C297.078 188.123 286.297 190.835 275.033 190.835V194.835C286.869 194.835 298.438 191.997 307.116 186.499C315.835 180.976 321.733 172.678 321.733 161.935H317.733ZM275.033 190.835C249.715 190.835 229.026 176.936 222.976 152.16L219.09 153.109C225.64 179.934 248.151 194.835 275.033 194.835V190.835ZM220.735 150.657L182.935 156.357L183.531 160.312L221.331 154.613L220.735 150.657ZM181.259 158.657C188.348 202.116 224.761 228.735 272.933 228.735V224.735C226.305 224.735 191.918 199.153 185.207 158.013L181.259 158.657Z" fill="#D9D9D9"/>
</svg>
