<svg width="557" height="820" viewBox="0 0 557 820" fill="none" xmlns="http://www.w3.org/2000/svg">
<path d="M555.655 709.388C556.146 708.897 556.146 707.422 555.655 706.93C555.163 706.439 554.672 706.439 554.181 706.439C553.689 706.439 553.198 706.439 552.706 706.93L530.593 729.053C530.102 729.544 530.102 731.019 530.593 731.511C531.085 732.002 531.576 732.002 532.067 732.002C532.559 732.002 533.05 732.002 533.542 731.511L555.655 709.388ZM555.655 620.899C556.146 620.408 556.146 618.933 555.655 618.441C555.163 617.95 554.672 617.95 554.181 617.95C553.689 617.95 553.198 617.95 552.706 618.441L530.593 640.564C530.102 641.055 530.102 642.53 530.593 643.022C531.085 643.513 531.576 643.513 532.067 643.513C532.559 643.513 533.05 643.513 533.542 643.022L555.655 620.899ZM555.655 532.41C556.146 531.918 556.146 530.444 555.655 529.952C555.163 529.46 554.672 529.46 554.181 529.46C553.689 529.46 553.198 529.46 552.706 529.952L530.593 552.074C530.102 552.566 530.102 554.041 530.593 554.532C531.085 555.024 531.576 555.024 532.067 555.024C532.559 555.024 533.05 555.024 533.542 554.532L555.655 532.41ZM555.655 443.921C556.146 443.429 556.146 441.954 555.655 441.463C555.163 440.971 554.672 440.971 554.672 440.971C554.181 440.971 553.689 440.971 553.689 441.463L531.576 463.585C531.085 464.077 531.085 465.552 531.576 466.043C532.067 466.535 532.559 466.535 533.05 466.535C533.542 466.535 534.033 466.535 534.524 466.043L555.655 443.921ZM555.655 356.415C556.146 355.923 556.146 354.448 555.655 353.957C555.163 353.465 554.672 353.465 554.181 353.465C553.689 353.465 553.198 353.465 552.706 353.957L530.593 376.079C530.102 376.571 530.102 378.046 530.593 378.537C531.085 379.029 531.576 379.029 532.067 379.029C532.559 379.029 533.05 379.029 533.542 378.537L555.655 356.415ZM555.655 268.417C556.146 267.926 556.146 266.451 555.655 265.959C555.163 265.468 554.672 265.468 554.181 265.468C553.689 265.468 553.198 265.468 552.706 265.959L530.593 288.082C530.102 288.573 530.102 290.048 530.593 290.54C531.085 291.031 531.576 291.031 532.067 291.031C532.559 291.031 533.05 291.031 533.542 290.54L555.655 268.417ZM555.655 179.928C556.146 179.436 556.146 177.962 555.655 177.47C555.163 176.978 554.672 176.978 554.181 176.978C553.689 176.978 553.198 176.978 552.706 177.47L530.593 199.592C530.102 200.084 530.102 201.559 530.593 202.05C531.085 202.542 531.576 202.542 532.067 202.542C532.559 202.542 533.05 202.542 533.542 202.05L555.655 179.928ZM555.655 91.4389C556.146 90.9472 556.146 89.4724 555.655 88.9808C555.163 88.4892 554.672 88.4892 554.181 88.4892C553.689 88.4892 553.198 88.4892 552.706 88.9808L530.593 111.103C530.102 111.595 530.102 113.07 530.593 113.561C531.085 114.053 531.576 114.053 532.067 114.053C532.559 114.053 533.05 114.053 533.542 113.561L555.655 91.4389ZM555.655 2.94964C556.146 2.45803 556.146 0.983213 555.655 0.491607C555.163 0 554.672 0 554.181 0C553.689 0 553.198 0 553.198 0.491607L531.085 22.6139C530.593 23.1055 530.593 24.5803 531.085 25.0719C531.576 25.5635 532.068 25.5635 532.559 25.5635C533.05 25.5635 533.542 25.5635 534.033 25.0719L555.655 2.94964ZM467.202 797.386C467.694 796.894 467.694 795.42 467.202 794.928C466.711 794.436 466.219 794.436 465.728 794.436C465.237 794.436 464.745 794.436 464.254 794.928L442.141 817.05C441.649 817.542 441.649 819.017 442.141 819.508C442.632 820 443.123 820 443.615 820C444.106 820 444.598 820 445.089 819.508L467.202 797.386ZM467.202 709.388C467.694 708.897 467.694 707.422 467.202 706.93C466.711 706.439 466.219 706.439 465.728 706.439C465.237 706.439 464.745 706.439 464.254 706.93L442.141 729.053C441.649 729.544 441.649 731.019 442.141 731.511C442.632 732.002 443.123 732.002 443.615 732.002C444.106 732.002 444.598 732.002 445.089 731.511L467.202 709.388ZM467.202 620.899C467.694 620.408 467.694 618.933 467.202 618.441C466.711 617.95 466.219 617.95 465.728 617.95C465.237 617.95 464.745 617.95 464.254 618.441L442.141 640.564C441.649 641.055 441.649 642.53 442.141 643.022C442.632 643.513 443.123 643.513 443.615 643.513C444.106 643.513 444.598 643.513 445.089 643.022L467.202 620.899ZM467.202 532.41C467.694 531.918 467.694 530.444 467.202 529.952C466.711 529.46 466.219 529.46 465.728 529.46C465.237 529.46 464.745 529.46 464.254 529.952L442.141 552.074C441.649 552.566 441.649 554.041 442.141 554.532C442.632 555.024 443.123 555.024 443.615 555.024C444.106 555.024 444.598 555.024 445.089 554.532L467.202 532.41ZM467.202 443.921C467.694 443.429 467.694 441.954 467.202 441.463C466.711 440.971 466.219 440.971 466.219 440.971C465.728 440.971 465.237 440.971 465.237 441.463L442.632 463.585C442.141 464.077 442.141 465.552 442.632 466.043C443.123 466.535 443.615 466.535 444.106 466.535C444.598 466.535 445.089 466.535 445.58 466.043L467.202 443.921ZM467.202 356.415C467.694 355.923 467.694 354.448 467.202 353.957C466.711 353.465 466.219 353.465 465.728 353.465C465.237 353.465 464.745 353.465 464.254 353.957L442.632 376.079C442.141 376.571 442.141 378.046 442.632 378.537C443.123 379.029 443.615 379.029 444.106 379.029C444.598 379.029 445.089 379.029 445.58 378.537L467.202 356.415ZM467.202 268.417C467.694 267.926 467.694 266.451 467.202 265.959C466.711 265.468 466.219 265.468 465.728 265.468C465.237 265.468 464.745 265.468 464.254 265.959L442.632 287.59C442.141 288.082 442.141 289.556 442.632 290.048C443.123 290.54 443.615 290.54 444.106 290.54C444.598 290.54 445.089 290.54 445.58 290.048L467.202 268.417ZM467.202 179.928C467.694 179.436 467.694 177.962 467.202 177.47C466.711 176.978 466.219 176.978 465.728 176.978C465.237 176.978 464.745 176.978 464.254 177.47L442.632 199.592C442.141 200.084 442.141 201.559 442.632 202.05C443.123 202.542 443.615 202.542 444.106 202.542C444.598 202.542 445.089 202.542 445.58 202.05L467.202 179.928ZM467.202 91.4389C467.694 90.9472 467.694 89.4724 467.202 88.9808C466.711 88.4892 466.219 88.4892 465.728 88.4892C465.237 88.4892 464.745 88.4892 464.254 88.9808L442.632 111.103C442.141 111.595 442.141 113.07 442.632 113.561C443.123 114.053 443.615 114.053 444.106 114.053C444.598 114.053 445.089 114.053 445.58 113.561L467.202 91.4389ZM467.202 2.94964C467.694 2.45803 467.694 0.983213 467.202 0.491607C466.711 0 466.219 0 466.219 0C465.728 0 465.237 0 465.237 0.491607L442.632 22.6139C442.141 23.1055 442.141 24.5803 442.632 25.0719C443.123 25.5635 443.615 25.5635 444.106 25.5635C444.598 25.5635 445.089 25.5635 445.58 25.0719L467.202 2.94964ZM378.749 797.386C379.241 796.894 379.241 795.42 378.749 794.928C378.258 794.436 377.767 794.436 377.275 794.436C376.784 794.436 376.292 794.436 375.801 794.928L353.688 817.05C353.196 817.542 353.196 819.017 353.688 819.508C354.179 820 354.671 820 355.162 820C355.653 820 356.145 820 356.636 819.508L378.749 797.386ZM378.749 709.388C379.241 708.897 379.241 707.422 378.749 706.93C378.258 706.439 377.767 706.439 377.275 706.439C376.784 706.439 376.292 706.439 375.801 706.93L353.688 729.053C353.196 729.544 353.196 731.019 353.688 731.511C354.179 732.002 354.671 732.002 355.162 732.002C355.653 732.002 356.145 732.002 356.636 731.511L378.749 709.388ZM378.749 620.899C379.241 620.408 379.241 618.933 378.749 618.441C378.258 617.95 377.767 617.95 377.275 617.95C376.784 617.95 376.292 617.95 375.801 618.441L353.688 640.564C353.196 641.055 353.196 642.53 353.688 643.022C354.179 643.513 354.671 643.513 355.162 643.513C355.653 643.513 356.145 643.513 356.636 643.022L378.749 620.899ZM378.749 532.41C379.241 531.918 379.241 530.444 378.749 529.952C378.258 529.46 377.767 529.46 377.275 529.46C376.784 529.46 376.292 529.46 375.801 529.952L353.688 552.074C353.196 552.566 353.196 554.041 353.688 554.532C354.179 555.024 354.671 555.024 355.162 555.024C355.653 555.024 356.145 555.024 356.636 554.532L378.749 532.41ZM378.749 443.921C379.241 443.429 379.241 441.954 378.749 441.463C378.258 440.971 377.767 440.971 377.767 440.971C377.275 440.971 376.784 440.971 376.784 441.463L354.179 463.585C353.688 464.077 353.688 465.552 354.179 466.043C354.671 466.535 355.162 466.535 355.654 466.535C356.145 466.535 356.636 466.535 357.128 466.043L378.749 443.921ZM378.749 356.415C379.241 355.923 379.241 354.448 378.749 353.957C378.258 353.465 377.767 353.465 377.275 353.465C376.784 353.465 376.292 353.465 375.801 353.957L354.179 376.079C353.688 376.571 353.688 378.046 354.179 378.537C354.671 379.029 355.162 379.029 355.654 379.029C356.145 379.029 356.636 379.029 357.128 378.537L378.749 356.415ZM378.749 268.417C379.241 267.926 379.241 266.451 378.749 265.959C378.258 265.468 377.767 265.468 377.275 265.468C376.784 265.468 376.292 265.468 375.801 265.959L354.179 287.59C353.688 288.082 353.688 289.556 354.179 290.048C354.671 290.54 355.162 290.54 355.654 290.54C356.145 290.54 356.636 290.54 357.128 290.048L378.749 268.417ZM378.749 179.928C379.241 179.436 379.241 177.962 378.749 177.47C378.258 176.978 377.767 176.978 377.275 176.978C376.784 176.978 376.292 176.978 375.801 177.47L354.179 199.592C353.688 200.084 353.688 201.559 354.179 202.05C354.671 202.542 355.162 202.542 355.654 202.542C356.145 202.542 356.636 202.542 357.128 202.05L378.749 179.928ZM378.749 91.4389C379.241 90.9472 379.241 89.4724 378.749 88.9808C378.749 88.4892 378.258 88.4892 377.767 88.4892C377.275 88.4892 376.784 88.4892 376.292 88.9808L354.179 111.103C353.688 111.595 353.688 113.07 354.179 113.561C354.671 114.053 355.162 114.053 355.654 114.053C356.145 114.053 356.636 114.053 357.128 113.561L378.749 91.4389ZM378.749 2.94964C379.241 2.45803 379.241 0.983213 378.749 0.491607C378.749 0 378.258 0 377.767 0C377.275 0 376.784 0 376.784 0.491607L354.179 22.6139C353.688 23.1055 353.688 24.5803 354.179 25.0719C354.671 25.5635 355.162 25.5635 355.654 25.5635C356.145 25.5635 356.636 25.5635 357.128 25.0719L378.749 2.94964ZM290.788 797.386C291.28 796.894 291.28 795.42 290.788 794.928C290.297 794.436 289.805 794.436 289.314 794.436C288.823 794.436 288.331 794.436 287.84 794.928L265.727 817.05C265.235 817.542 265.235 819.017 265.727 819.508C266.218 820 266.709 820 267.201 820C267.692 820 268.184 820 268.675 819.508L290.788 797.386ZM290.788 709.388C291.28 708.897 291.28 707.422 290.788 706.93C290.297 706.439 289.805 706.439 289.314 706.439C288.823 706.439 288.331 706.439 287.84 706.93L265.727 729.053C265.235 729.544 265.235 731.019 265.727 731.511C266.218 732.002 266.709 732.002 267.201 732.002C267.692 732.002 268.184 732.002 268.675 731.511L290.788 709.388ZM290.788 620.899C291.28 620.408 291.28 618.933 290.788 618.441C290.297 617.95 289.805 617.95 289.314 617.95C288.823 617.95 288.331 617.95 287.84 618.441L265.727 640.564C265.235 641.055 265.235 642.53 265.727 643.022C266.218 643.513 266.709 643.513 267.201 643.513C267.692 643.513 268.184 643.513 268.675 643.022L290.788 620.899ZM290.788 532.41C291.28 531.918 291.28 530.444 290.788 529.952C290.297 529.46 289.805 529.46 289.314 529.46C288.823 529.46 288.331 529.46 287.84 529.952L265.727 552.074C265.235 552.566 265.235 554.041 265.727 554.532C266.218 555.024 266.709 555.024 267.201 555.024C267.692 555.024 268.184 555.024 268.675 554.532L290.788 532.41ZM290.788 443.921C291.28 443.429 291.28 441.954 290.788 441.463C290.297 440.971 289.805 440.971 289.805 440.971C289.314 440.971 288.823 440.971 288.823 441.463L265.727 463.585C265.235 464.077 265.235 465.552 265.727 466.043C266.218 466.535 266.709 466.535 267.201 466.535C267.692 466.535 268.184 466.535 268.675 466.043L290.788 443.921ZM290.788 356.415C291.28 355.923 291.28 354.448 290.788 353.957C290.297 353.465 289.805 353.465 289.314 353.465C288.823 353.465 288.331 353.465 287.84 353.957L265.727 376.079C265.235 376.571 265.235 378.046 265.727 378.537C266.218 379.029 266.709 379.029 267.201 379.029C267.692 379.029 268.184 379.029 268.675 378.537L290.788 356.415ZM290.788 268.417C291.28 267.926 291.28 266.451 290.788 265.959C290.297 265.468 289.805 265.468 289.314 265.468C288.823 265.468 288.331 265.468 287.84 265.959L265.727 287.59C265.235 288.082 265.235 289.556 265.727 290.048C266.218 290.54 266.709 290.54 267.201 290.54C267.692 290.54 268.184 290.54 268.675 290.048L290.788 268.417ZM290.788 179.928C291.28 179.436 291.28 177.962 290.788 177.47C290.297 176.978 289.805 176.978 289.314 176.978C288.823 176.978 288.331 176.978 287.84 177.47L265.727 199.592C265.235 200.084 265.235 201.559 265.727 202.05C266.218 202.542 266.709 202.542 267.201 202.542C267.692 202.542 268.184 202.542 268.675 202.05L290.788 179.928ZM290.788 91.4389C291.28 90.9472 291.28 89.4724 290.788 88.9808C290.297 88.4892 289.805 88.4892 289.314 88.4892C288.823 88.4892 288.331 88.4892 287.84 88.9808L265.727 111.103C265.235 111.595 265.235 113.07 265.727 113.561C266.218 114.053 266.709 114.053 267.201 114.053C267.692 114.053 268.184 114.053 268.675 113.561L290.788 91.4389ZM290.788 2.94964C291.28 2.45803 291.28 0.983213 290.788 0.491607C290.297 0 289.805 0 289.314 0C288.823 0 288.331 0 288.331 0.491607L265.727 22.6139C265.235 23.1055 265.235 24.5803 265.727 25.0719C266.218 25.5635 266.709 25.5635 267.201 25.5635C267.692 25.5635 268.184 25.5635 268.675 25.0719L290.788 2.94964ZM202.336 797.386C202.827 796.894 202.827 795.42 202.336 794.928C201.844 794.436 201.353 794.436 200.861 794.436C200.37 794.436 199.879 794.436 199.387 794.928L177.274 817.05C176.783 817.542 176.783 819.017 177.274 819.508C177.765 820 178.257 820 178.748 820C179.24 820 179.731 820 180.222 819.508L202.336 797.386ZM202.336 709.388C202.827 708.897 202.827 707.422 202.336 706.93C201.844 706.439 201.353 706.439 200.861 706.439C200.37 706.439 199.879 706.439 199.387 706.93L177.274 729.053C176.783 729.544 176.783 731.019 177.274 731.511C177.765 732.002 178.257 732.002 178.748 732.002C179.24 732.002 179.731 732.002 180.222 731.511L202.336 709.388ZM202.336 620.899C202.827 620.408 202.827 618.933 202.336 618.441C201.844 617.95 201.353 617.95 200.861 617.95C200.37 617.95 199.879 617.95 199.387 618.441L177.274 640.564C176.783 641.055 176.783 642.53 177.274 643.022C177.765 643.513 178.257 643.513 178.748 643.513C179.24 643.513 179.731 643.513 180.222 643.022L202.336 620.899ZM202.336 532.41C202.827 531.918 202.827 530.444 202.336 529.952C201.844 529.46 201.353 529.46 200.861 529.46C200.37 529.46 199.879 529.46 199.387 529.952L177.274 552.074C176.783 552.566 176.783 554.041 177.274 554.532C177.765 555.024 178.257 555.024 178.748 555.024C179.24 555.024 179.731 555.024 180.222 554.532L202.336 532.41ZM202.336 443.921C202.827 443.429 202.827 441.954 202.336 441.463C201.844 440.971 201.353 440.971 201.353 440.971C200.861 440.971 200.37 440.971 200.37 441.463L178.257 463.585C177.765 464.077 177.765 465.552 178.257 466.043C178.748 466.535 179.24 466.535 179.731 466.535C180.222 466.535 180.714 466.535 181.205 466.043L202.336 443.921ZM202.336 356.415C202.827 355.923 202.827 354.448 202.336 353.957C201.844 353.465 201.353 353.465 200.861 353.465C200.37 353.465 199.879 353.465 199.387 353.957L177.274 376.079C176.783 376.571 176.783 378.046 177.274 378.537C177.765 379.029 178.257 379.029 178.748 379.029C179.24 379.029 179.731 379.029 180.222 378.537L202.336 356.415ZM202.336 268.417C202.827 267.926 202.827 266.451 202.336 265.959C201.844 265.468 201.353 265.468 200.861 265.468C200.37 265.468 199.879 265.468 199.387 265.959L177.274 288.082C176.783 288.573 176.783 290.048 177.274 290.54C177.765 291.031 178.257 291.031 178.748 291.031C179.24 291.031 179.731 291.031 180.222 290.54L202.336 268.417ZM202.336 179.928C202.827 179.436 202.827 177.962 202.336 177.47C201.844 176.978 201.353 176.978 200.861 176.978C200.37 176.978 199.879 176.978 199.387 177.47L177.274 199.592C176.783 200.084 176.783 201.559 177.274 202.05C177.765 202.542 178.257 202.542 178.748 202.542C179.24 202.542 179.731 202.542 180.222 202.05L202.336 179.928ZM202.336 91.4389C202.827 90.9472 202.827 89.4724 202.336 88.9808C201.844 88.4892 201.353 88.4892 200.861 88.4892C200.37 88.4892 199.879 88.4892 199.387 88.9808L177.274 111.103C176.783 111.595 176.783 113.07 177.274 113.561C177.765 114.053 178.257 114.053 178.748 114.053C179.24 114.053 179.731 114.053 180.222 113.561L202.336 91.4389ZM202.336 2.94964C202.827 2.45803 202.827 0.983213 202.336 0.491607C201.844 0 201.353 0 200.861 0C200.37 0 199.878 0 199.878 0.491607L177.765 22.6139C177.274 23.1055 177.274 24.5803 177.765 25.0719C178.257 25.5635 178.748 25.5635 179.24 25.5635C179.731 25.5635 180.222 25.5635 180.714 25.0719L202.336 2.94964ZM113.883 797.386C114.374 796.894 114.374 795.42 113.883 794.928C113.391 794.436 112.9 794.436 112.409 794.436C111.917 794.436 111.426 794.436 110.934 794.928L88.8212 817.05C88.3298 817.542 88.3298 819.017 88.8212 819.508C89.3126 820 89.804 820 90.2954 820C90.7869 820 91.2783 820 91.7697 819.508L113.883 797.386ZM113.883 709.388C114.374 708.897 114.374 707.422 113.883 706.93C113.391 706.439 112.9 706.439 112.409 706.439C111.917 706.439 111.426 706.439 110.934 706.93L88.8212 729.053C88.3298 729.544 88.3298 731.019 88.8212 731.511C89.3126 732.002 89.804 732.002 90.2954 732.002C90.7869 732.002 91.2783 732.002 91.7697 731.511L113.883 709.388ZM113.883 620.899C114.374 620.408 114.374 618.933 113.883 618.441C113.391 617.95 112.9 617.95 112.409 617.95C111.917 617.95 111.426 617.95 110.934 618.441L88.8212 640.564C88.3298 641.055 88.3298 642.53 88.8212 643.022C89.3126 643.513 89.804 643.513 90.2954 643.513C90.7869 643.513 91.2783 643.513 91.7697 643.022L113.883 620.899ZM113.883 532.41C114.374 531.918 114.374 530.444 113.883 529.952C113.391 529.46 112.9 529.46 112.409 529.46C111.917 529.46 111.426 529.46 110.934 529.952L88.8212 552.074C88.3298 552.566 88.3298 554.041 88.8212 554.532C89.3126 555.024 89.804 555.024 90.2954 555.024C90.7869 555.024 91.2783 555.024 91.7697 554.532L113.883 532.41ZM113.883 443.921C114.374 443.429 114.374 441.954 113.883 441.463C113.391 440.971 112.9 440.971 112.9 440.971C112.409 440.971 111.917 440.971 111.917 441.463L89.8041 463.585C89.3127 464.077 89.3127 465.552 89.8041 466.043C90.2955 466.535 90.7869 466.535 91.2783 466.535C91.7697 466.535 92.2611 466.535 92.7525 466.043L113.883 443.921ZM113.883 356.415C114.374 355.923 114.374 354.448 113.883 353.957C113.391 353.465 112.9 353.465 112.409 353.465C111.917 353.465 111.426 353.465 110.934 353.957L88.8212 376.079C88.3298 376.571 88.3298 378.046 88.8212 378.537C89.3126 379.029 89.804 379.029 90.2954 379.029C90.7869 379.029 91.2783 379.029 91.7697 378.537L113.883 356.415ZM113.883 268.417C114.374 267.926 114.374 266.451 113.883 265.959C113.391 265.468 112.9 265.468 112.409 265.468C111.917 265.468 111.426 265.468 110.934 265.959L88.8212 288.082C88.3298 288.573 88.3298 290.048 88.8212 290.54C89.3126 291.031 89.804 291.031 90.2954 291.031C90.7869 291.031 91.2783 291.031 91.7697 290.54L113.883 268.417ZM113.883 179.928C114.374 179.436 114.374 177.962 113.883 177.47C113.391 176.978 112.9 176.978 112.409 176.978C111.917 176.978 111.426 176.978 110.934 177.47L88.8212 199.592C88.3298 200.084 88.3298 201.559 88.8212 202.05C89.3126 202.542 89.804 202.542 90.2954 202.542C90.7869 202.542 91.2783 202.542 91.7697 202.05L113.883 179.928ZM113.883 91.4389C114.374 90.9472 114.374 89.4724 113.883 88.9808C113.391 88.4892 112.9 88.4892 112.409 88.4892C111.917 88.4892 111.426 88.4892 110.934 88.9808L88.8212 111.103C88.3298 111.595 88.3298 113.07 88.8212 113.561C89.3126 114.053 89.804 114.053 90.2954 114.053C90.7869 114.053 91.2783 114.053 91.7697 113.561L113.883 91.4389ZM113.883 2.94964C114.374 2.45803 114.374 0.983213 113.883 0.491607C113.391 0 113.391 0 112.9 0C112.409 0 111.917 0 111.917 0.491607L89.8041 22.6139C89.3127 23.1055 89.3127 24.5803 89.8041 25.0719C90.2955 25.5635 90.7869 25.5635 91.2783 25.5635C91.7697 25.5635 92.2611 25.5635 92.7525 25.0719L113.883 2.94964ZM25.4301 797.386C25.9216 796.894 25.9216 795.42 25.4301 794.928C24.9387 794.436 24.4473 794.436 23.9559 794.436C23.4645 794.436 22.9731 794.436 22.4817 794.928L0.368553 817.05C-0.122851 817.542 -0.122851 819.017 0.368553 819.508C0.859957 820 1.35136 820 1.84276 820C2.33417 820 2.82557 820 3.31698 819.508L25.4301 797.386ZM25.4301 709.388C25.9216 708.897 25.9216 707.422 25.4301 706.93C24.9387 706.439 24.4473 706.439 23.9559 706.439C23.4645 706.439 22.9731 706.439 22.4817 706.93L0.368553 729.053C-0.122851 729.544 -0.122851 731.019 0.368553 731.511C0.859957 732.002 1.35136 732.002 1.84276 732.002C2.33417 732.002 2.82557 732.002 3.31698 731.511L25.4301 709.388ZM25.4301 620.899C25.9216 620.408 25.9216 618.933 25.4301 618.441C24.9387 617.95 24.4473 617.95 23.9559 617.95C23.4645 617.95 22.9731 617.95 22.4817 618.441L0.368553 640.564C-0.122851 641.055 -0.122851 642.53 0.368553 643.022C0.859957 643.513 1.35136 643.513 1.84276 643.513C2.33417 643.513 2.82557 643.513 3.31698 643.022L25.4301 620.899ZM25.4301 532.41C25.9216 531.918 25.9216 530.444 25.4301 529.952C24.9387 529.46 24.4473 529.46 23.9559 529.46C23.4645 529.46 22.9731 529.46 22.4817 529.952L0.368553 552.074C-0.122851 552.566 -0.122851 554.041 0.368553 554.532C0.859957 555.024 1.35136 555.024 1.84276 555.024C2.33417 555.024 2.82557 555.024 3.31698 554.532L25.4301 532.41ZM25.4301 443.921C25.9216 443.429 25.9216 441.954 25.4301 441.463C24.9387 440.971 24.4473 440.971 24.4473 440.971C23.9559 440.971 23.4645 440.971 23.4645 441.463L1.35136 463.585C0.859957 464.077 0.859957 465.552 1.35136 466.043C1.84276 466.535 2.33417 466.535 2.82557 466.535C3.31698 466.535 3.80838 466.535 4.29978 466.043L25.4301 443.921ZM25.4301 356.415C25.9216 355.923 25.9216 354.448 25.4301 353.957C24.9387 353.465 24.4473 353.465 23.9559 353.465C23.4645 353.465 22.9731 353.465 22.4817 353.957L0.368553 376.079C0.368553 376.571 0.368553 378.046 0.859957 378.537C1.35136 379.029 1.84276 379.029 2.33417 379.029C2.82557 379.029 3.31698 379.029 3.80838 378.537L25.4301 356.415ZM25.4301 268.417C25.9216 267.926 25.9216 266.451 25.4301 265.959C25.4301 265.468 24.9387 264.976 24.4473 264.976C23.9559 264.976 23.4645 264.976 22.9731 265.468L0.859957 287.59C0.368553 288.082 0.368553 289.556 0.859957 290.048C1.35136 290.54 1.84276 290.54 2.33417 290.54C2.82557 290.54 3.31698 290.54 3.80838 290.048L25.4301 268.417ZM25.4301 179.928C25.9216 179.436 25.9216 177.962 25.4301 177.47C25.4301 176.978 24.9387 176.487 24.4473 176.487C23.9559 176.487 23.4645 176.487 22.9731 176.978L0.859957 199.101C0.368553 199.592 0.368553 201.067 0.859957 201.559C1.35136 202.05 1.84276 202.05 2.33417 202.05C2.82557 202.05 3.31698 202.05 3.80838 201.559L25.4301 179.928ZM25.4301 91.4389C25.9216 90.9472 25.9216 89.4724 25.4301 88.9808C25.4301 88.4892 24.9387 88.4892 24.4473 88.4892C23.9559 88.4892 23.4645 88.4892 22.9731 88.9808L0.859957 111.103C0.368553 111.595 0.368553 113.07 0.859957 113.561C1.35136 114.053 1.84276 114.053 2.33417 114.053C2.82557 114.053 3.31698 114.053 3.80838 113.561L25.4301 91.4389ZM25.4301 2.94964C25.9216 2.45803 25.9216 0.983213 25.4301 0.491607C25.4301 0 24.9387 0 24.4473 0C23.9559 0 23.4645 0 22.9731 0.491607L0.859957 22.6139C0.368553 23.1055 0.368553 24.5803 0.859957 25.0719C1.35136 25.5635 1.84276 25.5635 2.33417 25.5635C2.82557 25.5635 3.31698 25.5635 3.80838 25.0719L25.4301 2.94964ZM531.085 817.05C530.593 817.542 530.593 819.017 531.085 819.508C531.576 820 532.068 820 532.559 820C533.05 820 533.542 820 534.033 819.508L556.146 797.386C556.638 796.894 556.638 795.42 556.146 794.928C555.655 794.436 555.163 794.436 554.672 794.436C554.181 794.436 553.689 794.436 553.198 794.928L531.085 817.05Z" fill="#808DDE"/>
</svg>
