<svg width="620" height="1439" viewBox="0 0 620 1439" fill="none" xmlns="http://www.w3.org/2000/svg">
<path d="M2361 -83.5229C2361 766.775 1675.93 1456.11 830.889 1456.11C-12.9306 1454.88 -698 765.546 -698 -83.5229C-698 -933.821 -12.9305 -1623.15 832.111 -1623.15C1675.93 -1623.15 2361 -933.821 2361 -83.5229ZM2155.85 -83.5229C2155.85 -819.547 1562.36 -1415.49 832.111 -1415.49C101.858 -1415.49 -492.846 -819.547 -492.846 -83.5229C-492.846 652.501 100.637 1248.45 830.889 1248.45C1561.14 1248.45 2155.85 652.501 2155.85 -83.5229ZM1949.47 -83.5229C1949.47 536.998 1448.8 1040.79 832.111 1040.79C215.426 1040.79 -285.249 536.998 -285.249 -83.5229C-285.249 -704.044 215.426 -1207.83 832.111 -1207.83C1448.8 -1209.06 1949.47 -705.273 1949.47 -83.5229ZM1747.98 -83.5229C1747.98 -592.227 1337.67 -1005.09 832.111 -1005.09C326.551 -1005.09 -83.7577 -592.227 -83.7577 -83.5229C-83.7577 425.181 326.551 838.043 832.111 838.043C1337.67 838.043 1747.98 425.181 1747.98 -83.5229ZM1544.05 -83.5229C1544.05 312.136 1225.32 634.07 830.889 634.07C436.455 634.07 117.733 313.365 117.733 -83.5229C117.733 -480.411 437.677 -801.116 832.111 -801.116C1226.54 -801.116 1544.05 -480.411 1544.05 -83.5229ZM1342.55 -83.5229C1342.55 -367.365 1114.2 -597.142 832.111 -597.142C550.023 -597.142 321.667 -367.365 321.667 -83.5229C321.667 200.319 550.023 430.096 832.111 430.096C1114.2 430.096 1342.55 200.319 1342.55 -83.5229ZM1139.84 -83.5229C1139.84 87.2739 1001.85 226.123 832.111 226.123C662.37 226.123 524.379 87.2739 524.379 -83.5229C524.379 -254.32 662.37 -393.169 832.111 -393.169C1001.85 -393.169 1139.84 -255.549 1139.84 -83.5229ZM933.467 -83.5229C933.467 -140.046 888.284 -185.51 832.111 -185.51C775.937 -185.51 730.754 -140.046 730.754 -83.5229C730.754 -27.0002 775.937 18.4637 832.111 18.4637C888.284 18.4637 933.467 -27.0002 933.467 -83.5229Z" fill="#ED4D66"/>
</svg>
