<svg width="710" height="465" viewBox="0 0 710 465" fill="none" xmlns="http://www.w3.org/2000/svg">
<path d="M1695 -302C1695 205.491 1283.54 617 776.112 617C268.459 617.224 -143 205.715 -143 -302C-143 -809.491 268.459 -1221 775.888 -1221C1283.54 -1221 1695 -809.491 1695 -302ZM1571.67 -302C1571.67 -741.541 1215.38 -1097.66 776.112 -1097.66C336.624 -1097.66 -19.6744 -741.317 -19.6744 -302C-19.6744 137.541 336.624 493.659 775.888 493.659C1215.38 493.884 1571.67 137.541 1571.67 -302ZM1447.45 -302C1447.45 68.9189 1146.76 369.422 776.112 369.422C405.238 369.422 104.772 68.6947 104.772 -302C104.772 -672.919 405.463 -973.422 776.112 -973.422C1146.76 -973.422 1447.45 -672.695 1447.45 -302ZM1326.37 -302C1326.37 -606.091 1079.94 -852.324 776.112 -852.324C472.058 -852.324 225.856 -605.867 225.856 -302C225.856 2.0907 472.283 248.324 776.112 248.324C1079.94 248.548 1326.37 2.0907 1326.37 -302ZM1204.16 -302C1204.16 -65.4103 1012.45 126.328 775.888 126.328C539.327 126.328 347.612 -65.4103 347.612 -302C347.612 -538.59 539.327 -730.328 775.888 -730.328C1012.45 -730.328 1204.16 -538.59 1204.16 -302ZM1082.86 -302C1082.86 -471.537 945.405 -609.006 775.888 -609.006C606.371 -609.006 468.919 -471.537 468.919 -302C468.919 -132.463 606.371 5.0061 775.888 5.0061C945.405 5.0061 1082.86 -132.463 1082.86 -302ZM960.876 -302C960.876 -199.739 878.136 -116.989 775.888 -116.989C673.64 -116.989 590.899 -199.739 590.899 -302C590.899 -404.261 673.64 -487.011 775.888 -487.011C878.136 -487.011 960.876 -404.036 960.876 -302ZM836.878 -302C836.878 -335.638 809.522 -362.998 775.888 -362.998C742.254 -362.998 714.898 -335.638 714.898 -302C714.898 -268.362 742.254 -241.002 775.888 -241.002C809.746 -241.002 836.878 -268.137 836.878 -302Z" fill="#ED4D66"/>
</svg>
