<svg width="712" height="589" viewBox="0 0 712 589" fill="none" xmlns="http://www.w3.org/2000/svg">
<path d="M-182.487 390.453C1.46572 302.446 54.9437 218.253 135.713 91.2769C236.674 -67.9429 367.267 -257.086 708.578 -420.135L773.511 -294.674C463.704 -146.387 344.745 11.9673 247.335 165.917C162.15 300.384 97.9813 412.761 -117.554 515.914L-182.487 390.453ZM832.541 -180.8L897.871 -55.2583C650.754 63.0404 563.788 185.959 475.683 324.626C382.61 471.469 285.987 623.582 7.76191 756.723L-57.1716 631.262C189.946 512.963 276.353 388.732 364.061 249.985C457.212 102.758 554.316 -47.6587 832.541 -180.8ZM956.901 58.6156L1021.91 183.693C837.96 271.7 779.456 346.083 699.005 473.523C598.044 632.743 472.237 830.849 130.847 994.282L65.914 868.821C375.721 720.533 489.576 552.752 587.383 398.883C672.49 264.8 741.366 161.769 956.901 58.6156Z" fill="#ED4D66"/>
</svg>
